%TF.GenerationSoftware,KiCad,Pcbnew,(5.1.6)-1*%
%TF.CreationDate,2021-03-15T09:06:00+08:00*%
%TF.ProjectId,unify0,756e6966-7930-42e6-9b69-6361645f7063,rev?*%
%TF.SameCoordinates,Original*%
%TF.FileFunction,Copper,L2,Inr*%
%TF.FilePolarity,Positive*%
%FSLAX46Y46*%
G04 Gerber Fmt 4.6, Leading zero omitted, Abs format (unit mm)*
G04 Created by KiCad (PCBNEW (5.1.6)-1) date 2021-03-15 09:06:00*
%MOMM*%
%LPD*%
G01*
G04 APERTURE LIST*
%TA.AperFunction,ViaPad*%
%ADD10C,0.450000*%
%TD*%
%TA.AperFunction,Conductor*%
%ADD11C,0.450000*%
%TD*%
%TA.AperFunction,Conductor*%
%ADD12C,0.127000*%
%TD*%
G04 APERTURE END LIST*
D10*
%TO.N,+5V*%
X8000000Y-4000000D03*
%TO.N,GND*%
X1600000Y-4250000D03*
X4850000Y-1300000D03*
X9275000Y-4275000D03*
X2300000Y-5250000D03*
X400000Y-400000D03*
X400000Y-900000D03*
X400000Y-1400000D03*
X400000Y-1900000D03*
X400000Y-2400000D03*
X400000Y-2900000D03*
X400000Y-3400000D03*
X400000Y-3900000D03*
X400000Y-4400000D03*
X400000Y-4900000D03*
X400000Y-5400000D03*
X400000Y-5900000D03*
X400000Y-6400000D03*
X400000Y-6900000D03*
X400000Y-7400000D03*
X2700000Y-7430000D03*
X2200000Y-7430000D03*
X3200000Y-7430000D03*
X3700000Y-7430000D03*
X4200000Y-7430000D03*
X4700000Y-7430000D03*
X5200000Y-7430000D03*
X5700000Y-7430000D03*
X6200000Y-7430000D03*
X6700000Y-7430000D03*
X7200000Y-7430000D03*
X7700000Y-7430000D03*
X8200000Y-7430000D03*
X8700000Y-7430000D03*
X2350000Y-800000D03*
X2575000Y-6700000D03*
X9250000Y-1800000D03*
X9200000Y-7430000D03*
X7050000Y-5250000D03*
%TO.N,/P_D+*%
X9250000Y-3300000D03*
X4710000Y-6850000D03*
%TO.N,/P_D-*%
X9250000Y-2700000D03*
X4710000Y-6300000D03*
%TO.N,Net-(D1-Pad1)*%
X2750000Y-340000D03*
X9250000Y-500000D03*
%TD*%
D11*
%TO.N,GND*%
X430000Y-7430000D02*
X400000Y-7400000D01*
X2200000Y-7430000D02*
X430000Y-7430000D01*
X2300000Y-4950000D02*
X1600000Y-4250000D01*
X2300000Y-5250000D02*
X2300000Y-4950000D01*
X2300000Y-6425000D02*
X2575000Y-6700000D01*
X2300000Y-5250000D02*
X2300000Y-6425000D01*
X2200000Y-7075000D02*
X2575000Y-6700000D01*
X2200000Y-7430000D02*
X2200000Y-7075000D01*
X7050000Y-5250000D02*
X2300000Y-5250000D01*
X8300000Y-5250000D02*
X7050000Y-5250000D01*
X9275000Y-4275000D02*
X8300000Y-5250000D01*
X5350000Y-1800000D02*
X4850000Y-1300000D01*
X9250000Y-1800000D02*
X5350000Y-1800000D01*
X2850000Y-1300000D02*
X4850000Y-1300000D01*
X2350000Y-800000D02*
X2850000Y-1300000D01*
X1600000Y-1550000D02*
X2350000Y-800000D01*
X1600000Y-4250000D02*
X1600000Y-1550000D01*
%TD*%
D12*
%TO.N,GND*%
G36*
X2350468Y-218803D02*
G01*
X2334500Y-299077D01*
X2334500Y-380923D01*
X2350468Y-461197D01*
X2381789Y-536813D01*
X2427260Y-604866D01*
X2485134Y-662740D01*
X2553187Y-708211D01*
X2628803Y-739532D01*
X2709077Y-755500D01*
X2790923Y-755500D01*
X2871197Y-739532D01*
X2946813Y-708211D01*
X3014866Y-662740D01*
X3072740Y-604866D01*
X3118211Y-536813D01*
X3149532Y-461197D01*
X3165500Y-380923D01*
X3165500Y-299077D01*
X3149532Y-218803D01*
X3148164Y-215500D01*
X8946894Y-215500D01*
X8927260Y-235134D01*
X8881789Y-303187D01*
X8850468Y-378803D01*
X8834500Y-459077D01*
X8834500Y-540923D01*
X8850468Y-621197D01*
X8881789Y-696813D01*
X8927260Y-764866D01*
X8985134Y-822740D01*
X9053187Y-868211D01*
X9128803Y-899532D01*
X9209077Y-915500D01*
X9290923Y-915500D01*
X9371197Y-899532D01*
X9446813Y-868211D01*
X9484500Y-843030D01*
X9484500Y-2356970D01*
X9446813Y-2331789D01*
X9371197Y-2300468D01*
X9290923Y-2284500D01*
X9209077Y-2284500D01*
X9128803Y-2300468D01*
X9053187Y-2331789D01*
X8985134Y-2377260D01*
X8927260Y-2435134D01*
X8881789Y-2503187D01*
X8850468Y-2578803D01*
X8834500Y-2659077D01*
X8834500Y-2740923D01*
X8850468Y-2821197D01*
X8881789Y-2896813D01*
X8927260Y-2964866D01*
X8962394Y-3000000D01*
X8927260Y-3035134D01*
X8881789Y-3103187D01*
X8850468Y-3178803D01*
X8834500Y-3259077D01*
X8834500Y-3340923D01*
X8850468Y-3421197D01*
X8881789Y-3496813D01*
X8927260Y-3564866D01*
X8985134Y-3622740D01*
X9053187Y-3668211D01*
X9128803Y-3699532D01*
X9209077Y-3715500D01*
X9290923Y-3715500D01*
X9371197Y-3699532D01*
X9446813Y-3668211D01*
X9484500Y-3643029D01*
X9484501Y-7596500D01*
X215500Y-7596500D01*
X215500Y-6259077D01*
X4294500Y-6259077D01*
X4294500Y-6340923D01*
X4310468Y-6421197D01*
X4341789Y-6496813D01*
X4387260Y-6564866D01*
X4397394Y-6575000D01*
X4387260Y-6585134D01*
X4341789Y-6653187D01*
X4310468Y-6728803D01*
X4294500Y-6809077D01*
X4294500Y-6890923D01*
X4310468Y-6971197D01*
X4341789Y-7046813D01*
X4387260Y-7114866D01*
X4445134Y-7172740D01*
X4513187Y-7218211D01*
X4588803Y-7249532D01*
X4669077Y-7265500D01*
X4750923Y-7265500D01*
X4831197Y-7249532D01*
X4906813Y-7218211D01*
X4974866Y-7172740D01*
X5032740Y-7114866D01*
X5078211Y-7046813D01*
X5109532Y-6971197D01*
X5125500Y-6890923D01*
X5125500Y-6809077D01*
X5109532Y-6728803D01*
X5078211Y-6653187D01*
X5032740Y-6585134D01*
X5022606Y-6575000D01*
X5032740Y-6564866D01*
X5078211Y-6496813D01*
X5109532Y-6421197D01*
X5125500Y-6340923D01*
X5125500Y-6259077D01*
X5109532Y-6178803D01*
X5078211Y-6103187D01*
X5032740Y-6035134D01*
X4974866Y-5977260D01*
X4906813Y-5931789D01*
X4831197Y-5900468D01*
X4750923Y-5884500D01*
X4669077Y-5884500D01*
X4588803Y-5900468D01*
X4513187Y-5931789D01*
X4445134Y-5977260D01*
X4387260Y-6035134D01*
X4341789Y-6103187D01*
X4310468Y-6178803D01*
X4294500Y-6259077D01*
X215500Y-6259077D01*
X215500Y-3959077D01*
X7584500Y-3959077D01*
X7584500Y-4040923D01*
X7600468Y-4121197D01*
X7631789Y-4196813D01*
X7677260Y-4264866D01*
X7735134Y-4322740D01*
X7803187Y-4368211D01*
X7878803Y-4399532D01*
X7959077Y-4415500D01*
X8040923Y-4415500D01*
X8121197Y-4399532D01*
X8196813Y-4368211D01*
X8264866Y-4322740D01*
X8322740Y-4264866D01*
X8368211Y-4196813D01*
X8399532Y-4121197D01*
X8415500Y-4040923D01*
X8415500Y-3959077D01*
X8399532Y-3878803D01*
X8368211Y-3803187D01*
X8322740Y-3735134D01*
X8264866Y-3677260D01*
X8196813Y-3631789D01*
X8121197Y-3600468D01*
X8040923Y-3584500D01*
X7959077Y-3584500D01*
X7878803Y-3600468D01*
X7803187Y-3631789D01*
X7735134Y-3677260D01*
X7677260Y-3735134D01*
X7631789Y-3803187D01*
X7600468Y-3878803D01*
X7584500Y-3959077D01*
X215500Y-3959077D01*
X215500Y-215500D01*
X2351836Y-215500D01*
X2350468Y-218803D01*
G37*
X2350468Y-218803D02*
X2334500Y-299077D01*
X2334500Y-380923D01*
X2350468Y-461197D01*
X2381789Y-536813D01*
X2427260Y-604866D01*
X2485134Y-662740D01*
X2553187Y-708211D01*
X2628803Y-739532D01*
X2709077Y-755500D01*
X2790923Y-755500D01*
X2871197Y-739532D01*
X2946813Y-708211D01*
X3014866Y-662740D01*
X3072740Y-604866D01*
X3118211Y-536813D01*
X3149532Y-461197D01*
X3165500Y-380923D01*
X3165500Y-299077D01*
X3149532Y-218803D01*
X3148164Y-215500D01*
X8946894Y-215500D01*
X8927260Y-235134D01*
X8881789Y-303187D01*
X8850468Y-378803D01*
X8834500Y-459077D01*
X8834500Y-540923D01*
X8850468Y-621197D01*
X8881789Y-696813D01*
X8927260Y-764866D01*
X8985134Y-822740D01*
X9053187Y-868211D01*
X9128803Y-899532D01*
X9209077Y-915500D01*
X9290923Y-915500D01*
X9371197Y-899532D01*
X9446813Y-868211D01*
X9484500Y-843030D01*
X9484500Y-2356970D01*
X9446813Y-2331789D01*
X9371197Y-2300468D01*
X9290923Y-2284500D01*
X9209077Y-2284500D01*
X9128803Y-2300468D01*
X9053187Y-2331789D01*
X8985134Y-2377260D01*
X8927260Y-2435134D01*
X8881789Y-2503187D01*
X8850468Y-2578803D01*
X8834500Y-2659077D01*
X8834500Y-2740923D01*
X8850468Y-2821197D01*
X8881789Y-2896813D01*
X8927260Y-2964866D01*
X8962394Y-3000000D01*
X8927260Y-3035134D01*
X8881789Y-3103187D01*
X8850468Y-3178803D01*
X8834500Y-3259077D01*
X8834500Y-3340923D01*
X8850468Y-3421197D01*
X8881789Y-3496813D01*
X8927260Y-3564866D01*
X8985134Y-3622740D01*
X9053187Y-3668211D01*
X9128803Y-3699532D01*
X9209077Y-3715500D01*
X9290923Y-3715500D01*
X9371197Y-3699532D01*
X9446813Y-3668211D01*
X9484500Y-3643029D01*
X9484501Y-7596500D01*
X215500Y-7596500D01*
X215500Y-6259077D01*
X4294500Y-6259077D01*
X4294500Y-6340923D01*
X4310468Y-6421197D01*
X4341789Y-6496813D01*
X4387260Y-6564866D01*
X4397394Y-6575000D01*
X4387260Y-6585134D01*
X4341789Y-6653187D01*
X4310468Y-6728803D01*
X4294500Y-6809077D01*
X4294500Y-6890923D01*
X4310468Y-6971197D01*
X4341789Y-7046813D01*
X4387260Y-7114866D01*
X4445134Y-7172740D01*
X4513187Y-7218211D01*
X4588803Y-7249532D01*
X4669077Y-7265500D01*
X4750923Y-7265500D01*
X4831197Y-7249532D01*
X4906813Y-7218211D01*
X4974866Y-7172740D01*
X5032740Y-7114866D01*
X5078211Y-7046813D01*
X5109532Y-6971197D01*
X5125500Y-6890923D01*
X5125500Y-6809077D01*
X5109532Y-6728803D01*
X5078211Y-6653187D01*
X5032740Y-6585134D01*
X5022606Y-6575000D01*
X5032740Y-6564866D01*
X5078211Y-6496813D01*
X5109532Y-6421197D01*
X5125500Y-6340923D01*
X5125500Y-6259077D01*
X5109532Y-6178803D01*
X5078211Y-6103187D01*
X5032740Y-6035134D01*
X4974866Y-5977260D01*
X4906813Y-5931789D01*
X4831197Y-5900468D01*
X4750923Y-5884500D01*
X4669077Y-5884500D01*
X4588803Y-5900468D01*
X4513187Y-5931789D01*
X4445134Y-5977260D01*
X4387260Y-6035134D01*
X4341789Y-6103187D01*
X4310468Y-6178803D01*
X4294500Y-6259077D01*
X215500Y-6259077D01*
X215500Y-3959077D01*
X7584500Y-3959077D01*
X7584500Y-4040923D01*
X7600468Y-4121197D01*
X7631789Y-4196813D01*
X7677260Y-4264866D01*
X7735134Y-4322740D01*
X7803187Y-4368211D01*
X7878803Y-4399532D01*
X7959077Y-4415500D01*
X8040923Y-4415500D01*
X8121197Y-4399532D01*
X8196813Y-4368211D01*
X8264866Y-4322740D01*
X8322740Y-4264866D01*
X8368211Y-4196813D01*
X8399532Y-4121197D01*
X8415500Y-4040923D01*
X8415500Y-3959077D01*
X8399532Y-3878803D01*
X8368211Y-3803187D01*
X8322740Y-3735134D01*
X8264866Y-3677260D01*
X8196813Y-3631789D01*
X8121197Y-3600468D01*
X8040923Y-3584500D01*
X7959077Y-3584500D01*
X7878803Y-3600468D01*
X7803187Y-3631789D01*
X7735134Y-3677260D01*
X7677260Y-3735134D01*
X7631789Y-3803187D01*
X7600468Y-3878803D01*
X7584500Y-3959077D01*
X215500Y-3959077D01*
X215500Y-215500D01*
X2351836Y-215500D01*
X2350468Y-218803D01*
%TD*%
M02*
