M48
; DRILL file {KiCad (5.1.6)-1} date 03/15/21 09:06:01
; FORMAT={-:-/ absolute / inch / decimal}
; #@! TF.CreationDate,2021-03-15T09:06:01+08:00
; #@! TF.GenerationSoftware,Kicad,Pcbnew,(5.1.6)-1
; #@! TF.FileFunction,Plated,1,4,PTH
FMAT,2
INCH
T1C0.0079
%
G90
G05
T1
X0.0157Y-0.0157
X0.0157Y-0.0354
X0.0157Y-0.0551
X0.0157Y-0.0748
X0.0157Y-0.0945
X0.0157Y-0.1142
X0.0157Y-0.1339
X0.0157Y-0.1535
X0.0157Y-0.1732
X0.0157Y-0.1929
X0.0157Y-0.2126
X0.0157Y-0.2323
X0.0157Y-0.252
X0.0157Y-0.2717
X0.0157Y-0.2913
X0.063Y-0.1673
X0.0866Y-0.2925
X0.0906Y-0.2067
X0.0925Y-0.0315
X0.1014Y-0.2638
X0.1063Y-0.2925
X0.1083Y-0.0134
X0.126Y-0.2925
X0.1457Y-0.2925
X0.1654Y-0.2925
X0.185Y-0.2925
X0.1854Y-0.248
X0.1854Y-0.2697
X0.1909Y-0.0512
X0.2047Y-0.2925
X0.2244Y-0.2925
X0.2441Y-0.2925
X0.2638Y-0.2925
X0.2776Y-0.2067
X0.2835Y-0.2925
X0.3031Y-0.2925
X0.315Y-0.1575
X0.3228Y-0.2925
X0.3425Y-0.2925
X0.3622Y-0.2925
X0.3642Y-0.0197
X0.3642Y-0.0709
X0.3642Y-0.1063
X0.3642Y-0.1299
X0.3652Y-0.1683
T0
M30
