%TF.GenerationSoftware,KiCad,Pcbnew,(5.1.6)-1*%
%TF.CreationDate,2021-03-15T09:06:00+08:00*%
%TF.ProjectId,unify0,756e6966-7930-42e6-9b69-6361645f7063,rev?*%
%TF.SameCoordinates,Original*%
%TF.FileFunction,Copper,L1,Top*%
%TF.FilePolarity,Positive*%
%FSLAX46Y46*%
G04 Gerber Fmt 4.6, Leading zero omitted, Abs format (unit mm)*
G04 Created by KiCad (PCBNEW (5.1.6)-1) date 2021-03-15 09:06:00*
%MOMM*%
%LPD*%
G01*
G04 APERTURE LIST*
%TA.AperFunction,SMDPad,CuDef*%
%ADD10R,1.000000X2.000000*%
%TD*%
%TA.AperFunction,SMDPad,CuDef*%
%ADD11R,0.900000X0.800000*%
%TD*%
%TA.AperFunction,ViaPad*%
%ADD12C,0.450000*%
%TD*%
%TA.AperFunction,Conductor*%
%ADD13C,0.400000*%
%TD*%
%TA.AperFunction,Conductor*%
%ADD14C,0.250000*%
%TD*%
%TA.AperFunction,Conductor*%
%ADD15C,0.450000*%
%TD*%
%TA.AperFunction,Conductor*%
%ADD16C,0.090000*%
%TD*%
%TA.AperFunction,Conductor*%
%ADD17C,0.150000*%
%TD*%
%TA.AperFunction,Conductor*%
%ADD18C,0.127000*%
%TD*%
G04 APERTURE END LIST*
%TO.P,D1,2*%
%TO.N,+3V3*%
%TA.AperFunction,SMDPad,CuDef*%
G36*
G01*
X8110000Y-327500D02*
X8110000Y-672500D01*
G75*
G02*
X7962500Y-820000I-147500J0D01*
G01*
X7667500Y-820000D01*
G75*
G02*
X7520000Y-672500I0J147500D01*
G01*
X7520000Y-327500D01*
G75*
G02*
X7667500Y-180000I147500J0D01*
G01*
X7962500Y-180000D01*
G75*
G02*
X8110000Y-327500I0J-147500D01*
G01*
G37*
%TD.AperFunction*%
%TO.P,D1,1*%
%TO.N,Net-(D1-Pad1)*%
%TA.AperFunction,SMDPad,CuDef*%
G36*
G01*
X9080000Y-327500D02*
X9080000Y-672500D01*
G75*
G02*
X8932500Y-820000I-147500J0D01*
G01*
X8637500Y-820000D01*
G75*
G02*
X8490000Y-672500I0J147500D01*
G01*
X8490000Y-327500D01*
G75*
G02*
X8637500Y-180000I147500J0D01*
G01*
X8932500Y-180000D01*
G75*
G02*
X9080000Y-327500I0J-147500D01*
G01*
G37*
%TD.AperFunction*%
%TD*%
D10*
%TO.P,AE1,2*%
%TO.N,N/C*%
X9200000Y-9700000D03*
%TO.P,AE1,1*%
%TO.N,Net-(AE1-Pad1)*%
X500000Y-9700000D03*
%TD*%
D11*
%TO.P,Y1,4*%
%TO.N,GND*%
X9150000Y-6600000D03*
%TO.P,Y1,3*%
%TO.N,Net-(C4-Pad2)*%
X7750000Y-6600000D03*
%TO.P,Y1,2*%
%TO.N,GND*%
X7750000Y-5500000D03*
%TO.P,Y1,1*%
%TO.N,Net-(C3-Pad1)*%
X9150000Y-5500000D03*
%TD*%
%TO.P,C1,2*%
%TO.N,+5V*%
%TA.AperFunction,SMDPad,CuDef*%
G36*
G01*
X8860000Y-3850000D02*
X8860000Y-4050000D01*
G75*
G02*
X8760000Y-4150000I-100000J0D01*
G01*
X8500000Y-4150000D01*
G75*
G02*
X8400000Y-4050000I0J100000D01*
G01*
X8400000Y-3850000D01*
G75*
G02*
X8500000Y-3750000I100000J0D01*
G01*
X8760000Y-3750000D01*
G75*
G02*
X8860000Y-3850000I0J-100000D01*
G01*
G37*
%TD.AperFunction*%
%TO.P,C1,1*%
%TO.N,GND*%
%TA.AperFunction,SMDPad,CuDef*%
G36*
G01*
X9500000Y-3850000D02*
X9500000Y-4050000D01*
G75*
G02*
X9400000Y-4150000I-100000J0D01*
G01*
X9140000Y-4150000D01*
G75*
G02*
X9040000Y-4050000I0J100000D01*
G01*
X9040000Y-3850000D01*
G75*
G02*
X9140000Y-3750000I100000J0D01*
G01*
X9400000Y-3750000D01*
G75*
G02*
X9500000Y-3850000I0J-100000D01*
G01*
G37*
%TD.AperFunction*%
%TD*%
%TO.P,U1,32*%
%TO.N,Net-(C3-Pad1)*%
%TA.AperFunction,SMDPad,CuDef*%
G36*
G01*
X6675000Y-5062500D02*
X6675000Y-5812500D01*
G75*
G02*
X6612500Y-5875000I-62500J0D01*
G01*
X6487500Y-5875000D01*
G75*
G02*
X6425000Y-5812500I0J62500D01*
G01*
X6425000Y-5062500D01*
G75*
G02*
X6487500Y-5000000I62500J0D01*
G01*
X6612500Y-5000000D01*
G75*
G02*
X6675000Y-5062500I0J-62500D01*
G01*
G37*
%TD.AperFunction*%
%TO.P,U1,31*%
%TO.N,Net-(C4-Pad2)*%
%TA.AperFunction,SMDPad,CuDef*%
G36*
G01*
X6175000Y-5062500D02*
X6175000Y-5812500D01*
G75*
G02*
X6112500Y-5875000I-62500J0D01*
G01*
X5987500Y-5875000D01*
G75*
G02*
X5925000Y-5812500I0J62500D01*
G01*
X5925000Y-5062500D01*
G75*
G02*
X5987500Y-5000000I62500J0D01*
G01*
X6112500Y-5000000D01*
G75*
G02*
X6175000Y-5062500I0J-62500D01*
G01*
G37*
%TD.AperFunction*%
%TO.P,U1,30*%
%TO.N,GND*%
%TA.AperFunction,SMDPad,CuDef*%
G36*
G01*
X5675000Y-5062500D02*
X5675000Y-5812500D01*
G75*
G02*
X5612500Y-5875000I-62500J0D01*
G01*
X5487500Y-5875000D01*
G75*
G02*
X5425000Y-5812500I0J62500D01*
G01*
X5425000Y-5062500D01*
G75*
G02*
X5487500Y-5000000I62500J0D01*
G01*
X5612500Y-5000000D01*
G75*
G02*
X5675000Y-5062500I0J-62500D01*
G01*
G37*
%TD.AperFunction*%
%TO.P,U1,29*%
%TO.N,Net-(C5-Pad2)*%
%TA.AperFunction,SMDPad,CuDef*%
G36*
G01*
X5175000Y-5062500D02*
X5175000Y-5812500D01*
G75*
G02*
X5112500Y-5875000I-62500J0D01*
G01*
X4987500Y-5875000D01*
G75*
G02*
X4925000Y-5812500I0J62500D01*
G01*
X4925000Y-5062500D01*
G75*
G02*
X4987500Y-5000000I62500J0D01*
G01*
X5112500Y-5000000D01*
G75*
G02*
X5175000Y-5062500I0J-62500D01*
G01*
G37*
%TD.AperFunction*%
%TO.P,U1,28*%
%TO.N,Net-(C6-Pad2)*%
%TA.AperFunction,SMDPad,CuDef*%
G36*
G01*
X4675000Y-5062500D02*
X4675000Y-5812500D01*
G75*
G02*
X4612500Y-5875000I-62500J0D01*
G01*
X4487500Y-5875000D01*
G75*
G02*
X4425000Y-5812500I0J62500D01*
G01*
X4425000Y-5062500D01*
G75*
G02*
X4487500Y-5000000I62500J0D01*
G01*
X4612500Y-5000000D01*
G75*
G02*
X4675000Y-5062500I0J-62500D01*
G01*
G37*
%TD.AperFunction*%
%TO.P,U1,27*%
%TO.N,+3V3*%
%TA.AperFunction,SMDPad,CuDef*%
G36*
G01*
X4175000Y-5062500D02*
X4175000Y-5812500D01*
G75*
G02*
X4112500Y-5875000I-62500J0D01*
G01*
X3987500Y-5875000D01*
G75*
G02*
X3925000Y-5812500I0J62500D01*
G01*
X3925000Y-5062500D01*
G75*
G02*
X3987500Y-5000000I62500J0D01*
G01*
X4112500Y-5000000D01*
G75*
G02*
X4175000Y-5062500I0J-62500D01*
G01*
G37*
%TD.AperFunction*%
%TO.P,U1,26*%
%TO.N,GND*%
%TA.AperFunction,SMDPad,CuDef*%
G36*
G01*
X3675000Y-5062500D02*
X3675000Y-5812500D01*
G75*
G02*
X3612500Y-5875000I-62500J0D01*
G01*
X3487500Y-5875000D01*
G75*
G02*
X3425000Y-5812500I0J62500D01*
G01*
X3425000Y-5062500D01*
G75*
G02*
X3487500Y-5000000I62500J0D01*
G01*
X3612500Y-5000000D01*
G75*
G02*
X3675000Y-5062500I0J-62500D01*
G01*
G37*
%TD.AperFunction*%
%TO.P,U1,25*%
%TO.N,Net-(R5-Pad2)*%
%TA.AperFunction,SMDPad,CuDef*%
G36*
G01*
X3175000Y-5062500D02*
X3175000Y-5812500D01*
G75*
G02*
X3112500Y-5875000I-62500J0D01*
G01*
X2987500Y-5875000D01*
G75*
G02*
X2925000Y-5812500I0J62500D01*
G01*
X2925000Y-5062500D01*
G75*
G02*
X2987500Y-5000000I62500J0D01*
G01*
X3112500Y-5000000D01*
G75*
G02*
X3175000Y-5062500I0J-62500D01*
G01*
G37*
%TD.AperFunction*%
%TO.P,U1,24*%
%TO.N,+3V3*%
%TA.AperFunction,SMDPad,CuDef*%
G36*
G01*
X2800000Y-4687500D02*
X2800000Y-4812500D01*
G75*
G02*
X2737500Y-4875000I-62500J0D01*
G01*
X1987500Y-4875000D01*
G75*
G02*
X1925000Y-4812500I0J62500D01*
G01*
X1925000Y-4687500D01*
G75*
G02*
X1987500Y-4625000I62500J0D01*
G01*
X2737500Y-4625000D01*
G75*
G02*
X2800000Y-4687500I0J-62500D01*
G01*
G37*
%TD.AperFunction*%
%TO.P,U1,23*%
%TO.N,GND*%
%TA.AperFunction,SMDPad,CuDef*%
G36*
G01*
X2800000Y-4187500D02*
X2800000Y-4312500D01*
G75*
G02*
X2737500Y-4375000I-62500J0D01*
G01*
X1987500Y-4375000D01*
G75*
G02*
X1925000Y-4312500I0J62500D01*
G01*
X1925000Y-4187500D01*
G75*
G02*
X1987500Y-4125000I62500J0D01*
G01*
X2737500Y-4125000D01*
G75*
G02*
X2800000Y-4187500I0J-62500D01*
G01*
G37*
%TD.AperFunction*%
%TO.P,U1,22*%
%TO.N,Net-(L1-Pad1)*%
%TA.AperFunction,SMDPad,CuDef*%
G36*
G01*
X2800000Y-3687500D02*
X2800000Y-3812500D01*
G75*
G02*
X2737500Y-3875000I-62500J0D01*
G01*
X1987500Y-3875000D01*
G75*
G02*
X1925000Y-3812500I0J62500D01*
G01*
X1925000Y-3687500D01*
G75*
G02*
X1987500Y-3625000I62500J0D01*
G01*
X2737500Y-3625000D01*
G75*
G02*
X2800000Y-3687500I0J-62500D01*
G01*
G37*
%TD.AperFunction*%
%TO.P,U1,21*%
%TO.N,Net-(L1-Pad2)*%
%TA.AperFunction,SMDPad,CuDef*%
G36*
G01*
X2800000Y-3187500D02*
X2800000Y-3312500D01*
G75*
G02*
X2737500Y-3375000I-62500J0D01*
G01*
X1987500Y-3375000D01*
G75*
G02*
X1925000Y-3312500I0J62500D01*
G01*
X1925000Y-3187500D01*
G75*
G02*
X1987500Y-3125000I62500J0D01*
G01*
X2737500Y-3125000D01*
G75*
G02*
X2800000Y-3187500I0J-62500D01*
G01*
G37*
%TD.AperFunction*%
%TO.P,U1,20*%
%TO.N,Net-(C8-Pad1)*%
%TA.AperFunction,SMDPad,CuDef*%
G36*
G01*
X2800000Y-2687500D02*
X2800000Y-2812500D01*
G75*
G02*
X2737500Y-2875000I-62500J0D01*
G01*
X1987500Y-2875000D01*
G75*
G02*
X1925000Y-2812500I0J62500D01*
G01*
X1925000Y-2687500D01*
G75*
G02*
X1987500Y-2625000I62500J0D01*
G01*
X2737500Y-2625000D01*
G75*
G02*
X2800000Y-2687500I0J-62500D01*
G01*
G37*
%TD.AperFunction*%
%TO.P,U1,19*%
%TO.N,+3V3*%
%TA.AperFunction,SMDPad,CuDef*%
G36*
G01*
X2800000Y-2187500D02*
X2800000Y-2312500D01*
G75*
G02*
X2737500Y-2375000I-62500J0D01*
G01*
X1987500Y-2375000D01*
G75*
G02*
X1925000Y-2312500I0J62500D01*
G01*
X1925000Y-2187500D01*
G75*
G02*
X1987500Y-2125000I62500J0D01*
G01*
X2737500Y-2125000D01*
G75*
G02*
X2800000Y-2187500I0J-62500D01*
G01*
G37*
%TD.AperFunction*%
%TO.P,U1,18*%
%TO.N,GND*%
%TA.AperFunction,SMDPad,CuDef*%
G36*
G01*
X2800000Y-1687500D02*
X2800000Y-1812500D01*
G75*
G02*
X2737500Y-1875000I-62500J0D01*
G01*
X1987500Y-1875000D01*
G75*
G02*
X1925000Y-1812500I0J62500D01*
G01*
X1925000Y-1687500D01*
G75*
G02*
X1987500Y-1625000I62500J0D01*
G01*
X2737500Y-1625000D01*
G75*
G02*
X2800000Y-1687500I0J-62500D01*
G01*
G37*
%TD.AperFunction*%
%TO.P,U1,17*%
%TA.AperFunction,SMDPad,CuDef*%
G36*
G01*
X2800000Y-1187500D02*
X2800000Y-1312500D01*
G75*
G02*
X2737500Y-1375000I-62500J0D01*
G01*
X1987500Y-1375000D01*
G75*
G02*
X1925000Y-1312500I0J62500D01*
G01*
X1925000Y-1187500D01*
G75*
G02*
X1987500Y-1125000I62500J0D01*
G01*
X2737500Y-1125000D01*
G75*
G02*
X2800000Y-1187500I0J-62500D01*
G01*
G37*
%TD.AperFunction*%
%TO.P,U1,16*%
%TO.N,Net-(D1-Pad1)*%
%TA.AperFunction,SMDPad,CuDef*%
G36*
G01*
X3175000Y-187500D02*
X3175000Y-937500D01*
G75*
G02*
X3112500Y-1000000I-62500J0D01*
G01*
X2987500Y-1000000D01*
G75*
G02*
X2925000Y-937500I0J62500D01*
G01*
X2925000Y-187500D01*
G75*
G02*
X2987500Y-125000I62500J0D01*
G01*
X3112500Y-125000D01*
G75*
G02*
X3175000Y-187500I0J-62500D01*
G01*
G37*
%TD.AperFunction*%
%TO.P,U1,15*%
%TO.N,N/C*%
%TA.AperFunction,SMDPad,CuDef*%
G36*
G01*
X3675000Y-187500D02*
X3675000Y-937500D01*
G75*
G02*
X3612500Y-1000000I-62500J0D01*
G01*
X3487500Y-1000000D01*
G75*
G02*
X3425000Y-937500I0J62500D01*
G01*
X3425000Y-187500D01*
G75*
G02*
X3487500Y-125000I62500J0D01*
G01*
X3612500Y-125000D01*
G75*
G02*
X3675000Y-187500I0J-62500D01*
G01*
G37*
%TD.AperFunction*%
%TO.P,U1,14*%
%TA.AperFunction,SMDPad,CuDef*%
G36*
G01*
X4175000Y-187500D02*
X4175000Y-937500D01*
G75*
G02*
X4112500Y-1000000I-62500J0D01*
G01*
X3987500Y-1000000D01*
G75*
G02*
X3925000Y-937500I0J62500D01*
G01*
X3925000Y-187500D01*
G75*
G02*
X3987500Y-125000I62500J0D01*
G01*
X4112500Y-125000D01*
G75*
G02*
X4175000Y-187500I0J-62500D01*
G01*
G37*
%TD.AperFunction*%
%TO.P,U1,13*%
%TA.AperFunction,SMDPad,CuDef*%
G36*
G01*
X4675000Y-187500D02*
X4675000Y-937500D01*
G75*
G02*
X4612500Y-1000000I-62500J0D01*
G01*
X4487500Y-1000000D01*
G75*
G02*
X4425000Y-937500I0J62500D01*
G01*
X4425000Y-187500D01*
G75*
G02*
X4487500Y-125000I62500J0D01*
G01*
X4612500Y-125000D01*
G75*
G02*
X4675000Y-187500I0J-62500D01*
G01*
G37*
%TD.AperFunction*%
%TO.P,U1,12*%
%TO.N,GND*%
%TA.AperFunction,SMDPad,CuDef*%
G36*
G01*
X5175000Y-187500D02*
X5175000Y-937500D01*
G75*
G02*
X5112500Y-1000000I-62500J0D01*
G01*
X4987500Y-1000000D01*
G75*
G02*
X4925000Y-937500I0J62500D01*
G01*
X4925000Y-187500D01*
G75*
G02*
X4987500Y-125000I62500J0D01*
G01*
X5112500Y-125000D01*
G75*
G02*
X5175000Y-187500I0J-62500D01*
G01*
G37*
%TD.AperFunction*%
%TO.P,U1,11*%
%TO.N,N/C*%
%TA.AperFunction,SMDPad,CuDef*%
G36*
G01*
X5675000Y-187500D02*
X5675000Y-937500D01*
G75*
G02*
X5612500Y-1000000I-62500J0D01*
G01*
X5487500Y-1000000D01*
G75*
G02*
X5425000Y-937500I0J62500D01*
G01*
X5425000Y-187500D01*
G75*
G02*
X5487500Y-125000I62500J0D01*
G01*
X5612500Y-125000D01*
G75*
G02*
X5675000Y-187500I0J-62500D01*
G01*
G37*
%TD.AperFunction*%
%TO.P,U1,10*%
%TA.AperFunction,SMDPad,CuDef*%
G36*
G01*
X6175000Y-187500D02*
X6175000Y-937500D01*
G75*
G02*
X6112500Y-1000000I-62500J0D01*
G01*
X5987500Y-1000000D01*
G75*
G02*
X5925000Y-937500I0J62500D01*
G01*
X5925000Y-187500D01*
G75*
G02*
X5987500Y-125000I62500J0D01*
G01*
X6112500Y-125000D01*
G75*
G02*
X6175000Y-187500I0J-62500D01*
G01*
G37*
%TD.AperFunction*%
%TO.P,U1,9*%
%TO.N,+3V3*%
%TA.AperFunction,SMDPad,CuDef*%
G36*
G01*
X6675000Y-187500D02*
X6675000Y-937500D01*
G75*
G02*
X6612500Y-1000000I-62500J0D01*
G01*
X6487500Y-1000000D01*
G75*
G02*
X6425000Y-937500I0J62500D01*
G01*
X6425000Y-187500D01*
G75*
G02*
X6487500Y-125000I62500J0D01*
G01*
X6612500Y-125000D01*
G75*
G02*
X6675000Y-187500I0J-62500D01*
G01*
G37*
%TD.AperFunction*%
%TO.P,U1,8*%
%TO.N,Net-(R4-Pad1)*%
%TA.AperFunction,SMDPad,CuDef*%
G36*
G01*
X7675000Y-1187500D02*
X7675000Y-1312500D01*
G75*
G02*
X7612500Y-1375000I-62500J0D01*
G01*
X6862500Y-1375000D01*
G75*
G02*
X6800000Y-1312500I0J62500D01*
G01*
X6800000Y-1187500D01*
G75*
G02*
X6862500Y-1125000I62500J0D01*
G01*
X7612500Y-1125000D01*
G75*
G02*
X7675000Y-1187500I0J-62500D01*
G01*
G37*
%TD.AperFunction*%
%TO.P,U1,7*%
%TO.N,Net-(R3-Pad1)*%
%TA.AperFunction,SMDPad,CuDef*%
G36*
G01*
X7675000Y-1687500D02*
X7675000Y-1812500D01*
G75*
G02*
X7612500Y-1875000I-62500J0D01*
G01*
X6862500Y-1875000D01*
G75*
G02*
X6800000Y-1812500I0J62500D01*
G01*
X6800000Y-1687500D01*
G75*
G02*
X6862500Y-1625000I62500J0D01*
G01*
X7612500Y-1625000D01*
G75*
G02*
X7675000Y-1687500I0J-62500D01*
G01*
G37*
%TD.AperFunction*%
%TO.P,U1,6*%
%TO.N,GND*%
%TA.AperFunction,SMDPad,CuDef*%
G36*
G01*
X7675000Y-2187500D02*
X7675000Y-2312500D01*
G75*
G02*
X7612500Y-2375000I-62500J0D01*
G01*
X6862500Y-2375000D01*
G75*
G02*
X6800000Y-2312500I0J62500D01*
G01*
X6800000Y-2187500D01*
G75*
G02*
X6862500Y-2125000I62500J0D01*
G01*
X7612500Y-2125000D01*
G75*
G02*
X7675000Y-2187500I0J-62500D01*
G01*
G37*
%TD.AperFunction*%
%TO.P,U1,5*%
%TO.N,/U_D-*%
%TA.AperFunction,SMDPad,CuDef*%
G36*
G01*
X7675000Y-2687500D02*
X7675000Y-2812500D01*
G75*
G02*
X7612500Y-2875000I-62500J0D01*
G01*
X6862500Y-2875000D01*
G75*
G02*
X6800000Y-2812500I0J62500D01*
G01*
X6800000Y-2687500D01*
G75*
G02*
X6862500Y-2625000I62500J0D01*
G01*
X7612500Y-2625000D01*
G75*
G02*
X7675000Y-2687500I0J-62500D01*
G01*
G37*
%TD.AperFunction*%
%TO.P,U1,4*%
%TO.N,/U_D+*%
%TA.AperFunction,SMDPad,CuDef*%
G36*
G01*
X7675000Y-3187500D02*
X7675000Y-3312500D01*
G75*
G02*
X7612500Y-3375000I-62500J0D01*
G01*
X6862500Y-3375000D01*
G75*
G02*
X6800000Y-3312500I0J62500D01*
G01*
X6800000Y-3187500D01*
G75*
G02*
X6862500Y-3125000I62500J0D01*
G01*
X7612500Y-3125000D01*
G75*
G02*
X7675000Y-3187500I0J-62500D01*
G01*
G37*
%TD.AperFunction*%
%TO.P,U1,3*%
%TO.N,+3V3*%
%TA.AperFunction,SMDPad,CuDef*%
G36*
G01*
X7675000Y-3687500D02*
X7675000Y-3812500D01*
G75*
G02*
X7612500Y-3875000I-62500J0D01*
G01*
X6862500Y-3875000D01*
G75*
G02*
X6800000Y-3812500I0J62500D01*
G01*
X6800000Y-3687500D01*
G75*
G02*
X6862500Y-3625000I62500J0D01*
G01*
X7612500Y-3625000D01*
G75*
G02*
X7675000Y-3687500I0J-62500D01*
G01*
G37*
%TD.AperFunction*%
%TO.P,U1,2*%
%TO.N,+5V*%
%TA.AperFunction,SMDPad,CuDef*%
G36*
G01*
X7675000Y-4187500D02*
X7675000Y-4312500D01*
G75*
G02*
X7612500Y-4375000I-62500J0D01*
G01*
X6862500Y-4375000D01*
G75*
G02*
X6800000Y-4312500I0J62500D01*
G01*
X6800000Y-4187500D01*
G75*
G02*
X6862500Y-4125000I62500J0D01*
G01*
X7612500Y-4125000D01*
G75*
G02*
X7675000Y-4187500I0J-62500D01*
G01*
G37*
%TD.AperFunction*%
%TO.P,U1,1*%
%TO.N,+3V3*%
%TA.AperFunction,SMDPad,CuDef*%
G36*
G01*
X7675000Y-4687500D02*
X7675000Y-4812500D01*
G75*
G02*
X7612500Y-4875000I-62500J0D01*
G01*
X6862500Y-4875000D01*
G75*
G02*
X6800000Y-4812500I0J62500D01*
G01*
X6800000Y-4687500D01*
G75*
G02*
X6862500Y-4625000I62500J0D01*
G01*
X7612500Y-4625000D01*
G75*
G02*
X7675000Y-4687500I0J-62500D01*
G01*
G37*
%TD.AperFunction*%
%TO.P,U1,33*%
%TO.N,GND*%
%TA.AperFunction,SMDPad,CuDef*%
G36*
G01*
X6300000Y-1743000D02*
X6300000Y-4257000D01*
G75*
G02*
X6057000Y-4500000I-243000J0D01*
G01*
X3543000Y-4500000D01*
G75*
G02*
X3300000Y-4257000I0J243000D01*
G01*
X3300000Y-1743000D01*
G75*
G02*
X3543000Y-1500000I243000J0D01*
G01*
X6057000Y-1500000D01*
G75*
G02*
X6300000Y-1743000I0J-243000D01*
G01*
G37*
%TD.AperFunction*%
%TD*%
%TO.P,R5,2*%
%TO.N,Net-(R5-Pad2)*%
%TA.AperFunction,SMDPad,CuDef*%
G36*
G01*
X3150000Y-6560000D02*
X2950000Y-6560000D01*
G75*
G02*
X2850000Y-6460000I0J100000D01*
G01*
X2850000Y-6200000D01*
G75*
G02*
X2950000Y-6100000I100000J0D01*
G01*
X3150000Y-6100000D01*
G75*
G02*
X3250000Y-6200000I0J-100000D01*
G01*
X3250000Y-6460000D01*
G75*
G02*
X3150000Y-6560000I-100000J0D01*
G01*
G37*
%TD.AperFunction*%
%TO.P,R5,1*%
%TO.N,GND*%
%TA.AperFunction,SMDPad,CuDef*%
G36*
G01*
X3150000Y-7200000D02*
X2950000Y-7200000D01*
G75*
G02*
X2850000Y-7100000I0J100000D01*
G01*
X2850000Y-6840000D01*
G75*
G02*
X2950000Y-6740000I100000J0D01*
G01*
X3150000Y-6740000D01*
G75*
G02*
X3250000Y-6840000I0J-100000D01*
G01*
X3250000Y-7100000D01*
G75*
G02*
X3150000Y-7200000I-100000J0D01*
G01*
G37*
%TD.AperFunction*%
%TD*%
%TO.P,R4,2*%
%TO.N,+3V3*%
%TA.AperFunction,SMDPad,CuDef*%
G36*
G01*
X8540000Y-1325000D02*
X8540000Y-1125000D01*
G75*
G02*
X8640000Y-1025000I100000J0D01*
G01*
X8900000Y-1025000D01*
G75*
G02*
X9000000Y-1125000I0J-100000D01*
G01*
X9000000Y-1325000D01*
G75*
G02*
X8900000Y-1425000I-100000J0D01*
G01*
X8640000Y-1425000D01*
G75*
G02*
X8540000Y-1325000I0J100000D01*
G01*
G37*
%TD.AperFunction*%
%TO.P,R4,1*%
%TO.N,Net-(R4-Pad1)*%
%TA.AperFunction,SMDPad,CuDef*%
G36*
G01*
X7900000Y-1325000D02*
X7900000Y-1125000D01*
G75*
G02*
X8000000Y-1025000I100000J0D01*
G01*
X8260000Y-1025000D01*
G75*
G02*
X8360000Y-1125000I0J-100000D01*
G01*
X8360000Y-1325000D01*
G75*
G02*
X8260000Y-1425000I-100000J0D01*
G01*
X8000000Y-1425000D01*
G75*
G02*
X7900000Y-1325000I0J100000D01*
G01*
G37*
%TD.AperFunction*%
%TD*%
%TO.P,R3,2*%
%TO.N,GND*%
%TA.AperFunction,SMDPad,CuDef*%
G36*
G01*
X8540000Y-1925000D02*
X8540000Y-1725000D01*
G75*
G02*
X8640000Y-1625000I100000J0D01*
G01*
X8900000Y-1625000D01*
G75*
G02*
X9000000Y-1725000I0J-100000D01*
G01*
X9000000Y-1925000D01*
G75*
G02*
X8900000Y-2025000I-100000J0D01*
G01*
X8640000Y-2025000D01*
G75*
G02*
X8540000Y-1925000I0J100000D01*
G01*
G37*
%TD.AperFunction*%
%TO.P,R3,1*%
%TO.N,Net-(R3-Pad1)*%
%TA.AperFunction,SMDPad,CuDef*%
G36*
G01*
X7900000Y-1925000D02*
X7900000Y-1725000D01*
G75*
G02*
X8000000Y-1625000I100000J0D01*
G01*
X8260000Y-1625000D01*
G75*
G02*
X8360000Y-1725000I0J-100000D01*
G01*
X8360000Y-1925000D01*
G75*
G02*
X8260000Y-2025000I-100000J0D01*
G01*
X8000000Y-2025000D01*
G75*
G02*
X7900000Y-1925000I0J100000D01*
G01*
G37*
%TD.AperFunction*%
%TD*%
%TO.P,R2,2*%
%TO.N,/P_D-*%
%TA.AperFunction,SMDPad,CuDef*%
G36*
G01*
X8540000Y-2800000D02*
X8540000Y-2600000D01*
G75*
G02*
X8640000Y-2500000I100000J0D01*
G01*
X8900000Y-2500000D01*
G75*
G02*
X9000000Y-2600000I0J-100000D01*
G01*
X9000000Y-2800000D01*
G75*
G02*
X8900000Y-2900000I-100000J0D01*
G01*
X8640000Y-2900000D01*
G75*
G02*
X8540000Y-2800000I0J100000D01*
G01*
G37*
%TD.AperFunction*%
%TO.P,R2,1*%
%TO.N,/U_D-*%
%TA.AperFunction,SMDPad,CuDef*%
G36*
G01*
X7900000Y-2800000D02*
X7900000Y-2600000D01*
G75*
G02*
X8000000Y-2500000I100000J0D01*
G01*
X8260000Y-2500000D01*
G75*
G02*
X8360000Y-2600000I0J-100000D01*
G01*
X8360000Y-2800000D01*
G75*
G02*
X8260000Y-2900000I-100000J0D01*
G01*
X8000000Y-2900000D01*
G75*
G02*
X7900000Y-2800000I0J100000D01*
G01*
G37*
%TD.AperFunction*%
%TD*%
%TO.P,R1,2*%
%TO.N,/P_D+*%
%TA.AperFunction,SMDPad,CuDef*%
G36*
G01*
X8540000Y-3400000D02*
X8540000Y-3200000D01*
G75*
G02*
X8640000Y-3100000I100000J0D01*
G01*
X8900000Y-3100000D01*
G75*
G02*
X9000000Y-3200000I0J-100000D01*
G01*
X9000000Y-3400000D01*
G75*
G02*
X8900000Y-3500000I-100000J0D01*
G01*
X8640000Y-3500000D01*
G75*
G02*
X8540000Y-3400000I0J100000D01*
G01*
G37*
%TD.AperFunction*%
%TO.P,R1,1*%
%TO.N,/U_D+*%
%TA.AperFunction,SMDPad,CuDef*%
G36*
G01*
X7900000Y-3400000D02*
X7900000Y-3200000D01*
G75*
G02*
X8000000Y-3100000I100000J0D01*
G01*
X8260000Y-3100000D01*
G75*
G02*
X8360000Y-3200000I0J-100000D01*
G01*
X8360000Y-3400000D01*
G75*
G02*
X8260000Y-3500000I-100000J0D01*
G01*
X8000000Y-3500000D01*
G75*
G02*
X7900000Y-3400000I0J100000D01*
G01*
G37*
%TD.AperFunction*%
%TD*%
%TO.P,L3,2*%
%TO.N,Net-(C8-Pad1)*%
%TA.AperFunction,SMDPad,CuDef*%
G36*
G01*
X1150000Y-1410000D02*
X950000Y-1410000D01*
G75*
G02*
X850000Y-1310000I0J100000D01*
G01*
X850000Y-1050000D01*
G75*
G02*
X950000Y-950000I100000J0D01*
G01*
X1150000Y-950000D01*
G75*
G02*
X1250000Y-1050000I0J-100000D01*
G01*
X1250000Y-1310000D01*
G75*
G02*
X1150000Y-1410000I-100000J0D01*
G01*
G37*
%TD.AperFunction*%
%TO.P,L3,1*%
%TO.N,Net-(L1-Pad2)*%
%TA.AperFunction,SMDPad,CuDef*%
G36*
G01*
X1150000Y-2050000D02*
X950000Y-2050000D01*
G75*
G02*
X850000Y-1950000I0J100000D01*
G01*
X850000Y-1690000D01*
G75*
G02*
X950000Y-1590000I100000J0D01*
G01*
X1150000Y-1590000D01*
G75*
G02*
X1250000Y-1690000I0J-100000D01*
G01*
X1250000Y-1950000D01*
G75*
G02*
X1150000Y-2050000I-100000J0D01*
G01*
G37*
%TD.AperFunction*%
%TD*%
%TO.P,L2,2*%
%TO.N,Net-(C9-Pad2)*%
%TA.AperFunction,SMDPad,CuDef*%
G36*
G01*
X950000Y-4190000D02*
X1150000Y-4190000D01*
G75*
G02*
X1250000Y-4290000I0J-100000D01*
G01*
X1250000Y-4550000D01*
G75*
G02*
X1150000Y-4650000I-100000J0D01*
G01*
X950000Y-4650000D01*
G75*
G02*
X850000Y-4550000I0J100000D01*
G01*
X850000Y-4290000D01*
G75*
G02*
X950000Y-4190000I100000J0D01*
G01*
G37*
%TD.AperFunction*%
%TO.P,L2,1*%
%TO.N,Net-(L1-Pad1)*%
%TA.AperFunction,SMDPad,CuDef*%
G36*
G01*
X950000Y-3550000D02*
X1150000Y-3550000D01*
G75*
G02*
X1250000Y-3650000I0J-100000D01*
G01*
X1250000Y-3910000D01*
G75*
G02*
X1150000Y-4010000I-100000J0D01*
G01*
X950000Y-4010000D01*
G75*
G02*
X850000Y-3910000I0J100000D01*
G01*
X850000Y-3650000D01*
G75*
G02*
X950000Y-3550000I100000J0D01*
G01*
G37*
%TD.AperFunction*%
%TD*%
%TO.P,L1,2*%
%TO.N,Net-(L1-Pad2)*%
%TA.AperFunction,SMDPad,CuDef*%
G36*
G01*
X1150000Y-2710000D02*
X950000Y-2710000D01*
G75*
G02*
X850000Y-2610000I0J100000D01*
G01*
X850000Y-2350000D01*
G75*
G02*
X950000Y-2250000I100000J0D01*
G01*
X1150000Y-2250000D01*
G75*
G02*
X1250000Y-2350000I0J-100000D01*
G01*
X1250000Y-2610000D01*
G75*
G02*
X1150000Y-2710000I-100000J0D01*
G01*
G37*
%TD.AperFunction*%
%TO.P,L1,1*%
%TO.N,Net-(L1-Pad1)*%
%TA.AperFunction,SMDPad,CuDef*%
G36*
G01*
X1150000Y-3350000D02*
X950000Y-3350000D01*
G75*
G02*
X850000Y-3250000I0J100000D01*
G01*
X850000Y-2990000D01*
G75*
G02*
X950000Y-2890000I100000J0D01*
G01*
X1150000Y-2890000D01*
G75*
G02*
X1250000Y-2990000I0J-100000D01*
G01*
X1250000Y-3250000D01*
G75*
G02*
X1150000Y-3350000I-100000J0D01*
G01*
G37*
%TD.AperFunction*%
%TD*%
%TO.P,C12,2*%
%TO.N,GND*%
%TA.AperFunction,SMDPad,CuDef*%
G36*
G01*
X2090000Y-7100000D02*
X2090000Y-6900000D01*
G75*
G02*
X2190000Y-6800000I100000J0D01*
G01*
X2450000Y-6800000D01*
G75*
G02*
X2550000Y-6900000I0J-100000D01*
G01*
X2550000Y-7100000D01*
G75*
G02*
X2450000Y-7200000I-100000J0D01*
G01*
X2190000Y-7200000D01*
G75*
G02*
X2090000Y-7100000I0J100000D01*
G01*
G37*
%TD.AperFunction*%
%TO.P,C12,1*%
%TO.N,Net-(AE1-Pad1)*%
%TA.AperFunction,SMDPad,CuDef*%
G36*
G01*
X1450000Y-7100000D02*
X1450000Y-6900000D01*
G75*
G02*
X1550000Y-6800000I100000J0D01*
G01*
X1810000Y-6800000D01*
G75*
G02*
X1910000Y-6900000I0J-100000D01*
G01*
X1910000Y-7100000D01*
G75*
G02*
X1810000Y-7200000I-100000J0D01*
G01*
X1550000Y-7200000D01*
G75*
G02*
X1450000Y-7100000I0J100000D01*
G01*
G37*
%TD.AperFunction*%
%TD*%
%TO.P,C11,2*%
%TO.N,Net-(C10-Pad1)*%
%TA.AperFunction,SMDPad,CuDef*%
G36*
G01*
X1150000Y-6610000D02*
X950000Y-6610000D01*
G75*
G02*
X850000Y-6510000I0J100000D01*
G01*
X850000Y-6250000D01*
G75*
G02*
X950000Y-6150000I100000J0D01*
G01*
X1150000Y-6150000D01*
G75*
G02*
X1250000Y-6250000I0J-100000D01*
G01*
X1250000Y-6510000D01*
G75*
G02*
X1150000Y-6610000I-100000J0D01*
G01*
G37*
%TD.AperFunction*%
%TO.P,C11,1*%
%TO.N,Net-(AE1-Pad1)*%
%TA.AperFunction,SMDPad,CuDef*%
G36*
G01*
X1150000Y-7250000D02*
X950000Y-7250000D01*
G75*
G02*
X850000Y-7150000I0J100000D01*
G01*
X850000Y-6890000D01*
G75*
G02*
X950000Y-6790000I100000J0D01*
G01*
X1150000Y-6790000D01*
G75*
G02*
X1250000Y-6890000I0J-100000D01*
G01*
X1250000Y-7150000D01*
G75*
G02*
X1150000Y-7250000I-100000J0D01*
G01*
G37*
%TD.AperFunction*%
%TD*%
%TO.P,C10,2*%
%TO.N,GND*%
%TA.AperFunction,SMDPad,CuDef*%
G36*
G01*
X2090000Y-6500000D02*
X2090000Y-6300000D01*
G75*
G02*
X2190000Y-6200000I100000J0D01*
G01*
X2450000Y-6200000D01*
G75*
G02*
X2550000Y-6300000I0J-100000D01*
G01*
X2550000Y-6500000D01*
G75*
G02*
X2450000Y-6600000I-100000J0D01*
G01*
X2190000Y-6600000D01*
G75*
G02*
X2090000Y-6500000I0J100000D01*
G01*
G37*
%TD.AperFunction*%
%TO.P,C10,1*%
%TO.N,Net-(C10-Pad1)*%
%TA.AperFunction,SMDPad,CuDef*%
G36*
G01*
X1450000Y-6500000D02*
X1450000Y-6300000D01*
G75*
G02*
X1550000Y-6200000I100000J0D01*
G01*
X1810000Y-6200000D01*
G75*
G02*
X1910000Y-6300000I0J-100000D01*
G01*
X1910000Y-6500000D01*
G75*
G02*
X1810000Y-6600000I-100000J0D01*
G01*
X1550000Y-6600000D01*
G75*
G02*
X1450000Y-6500000I0J100000D01*
G01*
G37*
%TD.AperFunction*%
%TD*%
%TO.P,C9,2*%
%TO.N,Net-(C9-Pad2)*%
%TA.AperFunction,SMDPad,CuDef*%
G36*
G01*
X1150000Y-5310000D02*
X950000Y-5310000D01*
G75*
G02*
X850000Y-5210000I0J100000D01*
G01*
X850000Y-4950000D01*
G75*
G02*
X950000Y-4850000I100000J0D01*
G01*
X1150000Y-4850000D01*
G75*
G02*
X1250000Y-4950000I0J-100000D01*
G01*
X1250000Y-5210000D01*
G75*
G02*
X1150000Y-5310000I-100000J0D01*
G01*
G37*
%TD.AperFunction*%
%TO.P,C9,1*%
%TO.N,Net-(C10-Pad1)*%
%TA.AperFunction,SMDPad,CuDef*%
G36*
G01*
X1150000Y-5950000D02*
X950000Y-5950000D01*
G75*
G02*
X850000Y-5850000I0J100000D01*
G01*
X850000Y-5590000D01*
G75*
G02*
X950000Y-5490000I100000J0D01*
G01*
X1150000Y-5490000D01*
G75*
G02*
X1250000Y-5590000I0J-100000D01*
G01*
X1250000Y-5850000D01*
G75*
G02*
X1150000Y-5950000I-100000J0D01*
G01*
G37*
%TD.AperFunction*%
%TD*%
%TO.P,C8,2*%
%TO.N,GND*%
%TA.AperFunction,SMDPad,CuDef*%
G36*
G01*
X1490000Y-650000D02*
X1490000Y-450000D01*
G75*
G02*
X1590000Y-350000I100000J0D01*
G01*
X1850000Y-350000D01*
G75*
G02*
X1950000Y-450000I0J-100000D01*
G01*
X1950000Y-650000D01*
G75*
G02*
X1850000Y-750000I-100000J0D01*
G01*
X1590000Y-750000D01*
G75*
G02*
X1490000Y-650000I0J100000D01*
G01*
G37*
%TD.AperFunction*%
%TO.P,C8,1*%
%TO.N,Net-(C8-Pad1)*%
%TA.AperFunction,SMDPad,CuDef*%
G36*
G01*
X850000Y-650000D02*
X850000Y-450000D01*
G75*
G02*
X950000Y-350000I100000J0D01*
G01*
X1210000Y-350000D01*
G75*
G02*
X1310000Y-450000I0J-100000D01*
G01*
X1310000Y-650000D01*
G75*
G02*
X1210000Y-750000I-100000J0D01*
G01*
X950000Y-750000D01*
G75*
G02*
X850000Y-650000I0J100000D01*
G01*
G37*
%TD.AperFunction*%
%TD*%
%TO.P,C6,2*%
%TO.N,Net-(C6-Pad2)*%
%TA.AperFunction,SMDPad,CuDef*%
G36*
G01*
X4150000Y-6560000D02*
X3950000Y-6560000D01*
G75*
G02*
X3850000Y-6460000I0J100000D01*
G01*
X3850000Y-6200000D01*
G75*
G02*
X3950000Y-6100000I100000J0D01*
G01*
X4150000Y-6100000D01*
G75*
G02*
X4250000Y-6200000I0J-100000D01*
G01*
X4250000Y-6460000D01*
G75*
G02*
X4150000Y-6560000I-100000J0D01*
G01*
G37*
%TD.AperFunction*%
%TO.P,C6,1*%
%TO.N,GND*%
%TA.AperFunction,SMDPad,CuDef*%
G36*
G01*
X4150000Y-7200000D02*
X3950000Y-7200000D01*
G75*
G02*
X3850000Y-7100000I0J100000D01*
G01*
X3850000Y-6840000D01*
G75*
G02*
X3950000Y-6740000I100000J0D01*
G01*
X4150000Y-6740000D01*
G75*
G02*
X4250000Y-6840000I0J-100000D01*
G01*
X4250000Y-7100000D01*
G75*
G02*
X4150000Y-7200000I-100000J0D01*
G01*
G37*
%TD.AperFunction*%
%TD*%
%TO.P,C5,2*%
%TO.N,Net-(C5-Pad2)*%
%TA.AperFunction,SMDPad,CuDef*%
G36*
G01*
X5400000Y-6560000D02*
X5200000Y-6560000D01*
G75*
G02*
X5100000Y-6460000I0J100000D01*
G01*
X5100000Y-6200000D01*
G75*
G02*
X5200000Y-6100000I100000J0D01*
G01*
X5400000Y-6100000D01*
G75*
G02*
X5500000Y-6200000I0J-100000D01*
G01*
X5500000Y-6460000D01*
G75*
G02*
X5400000Y-6560000I-100000J0D01*
G01*
G37*
%TD.AperFunction*%
%TO.P,C5,1*%
%TO.N,GND*%
%TA.AperFunction,SMDPad,CuDef*%
G36*
G01*
X5400000Y-7200000D02*
X5200000Y-7200000D01*
G75*
G02*
X5100000Y-7100000I0J100000D01*
G01*
X5100000Y-6840000D01*
G75*
G02*
X5200000Y-6740000I100000J0D01*
G01*
X5400000Y-6740000D01*
G75*
G02*
X5500000Y-6840000I0J-100000D01*
G01*
X5500000Y-7100000D01*
G75*
G02*
X5400000Y-7200000I-100000J0D01*
G01*
G37*
%TD.AperFunction*%
%TD*%
%TO.P,C4,2*%
%TO.N,Net-(C4-Pad2)*%
%TA.AperFunction,SMDPad,CuDef*%
G36*
G01*
X6250000Y-6560000D02*
X6050000Y-6560000D01*
G75*
G02*
X5950000Y-6460000I0J100000D01*
G01*
X5950000Y-6200000D01*
G75*
G02*
X6050000Y-6100000I100000J0D01*
G01*
X6250000Y-6100000D01*
G75*
G02*
X6350000Y-6200000I0J-100000D01*
G01*
X6350000Y-6460000D01*
G75*
G02*
X6250000Y-6560000I-100000J0D01*
G01*
G37*
%TD.AperFunction*%
%TO.P,C4,1*%
%TO.N,GND*%
%TA.AperFunction,SMDPad,CuDef*%
G36*
G01*
X6250000Y-7200000D02*
X6050000Y-7200000D01*
G75*
G02*
X5950000Y-7100000I0J100000D01*
G01*
X5950000Y-6840000D01*
G75*
G02*
X6050000Y-6740000I100000J0D01*
G01*
X6250000Y-6740000D01*
G75*
G02*
X6350000Y-6840000I0J-100000D01*
G01*
X6350000Y-7100000D01*
G75*
G02*
X6250000Y-7200000I-100000J0D01*
G01*
G37*
%TD.AperFunction*%
%TD*%
%TO.P,C3,2*%
%TO.N,GND*%
%TA.AperFunction,SMDPad,CuDef*%
G36*
G01*
X9040000Y-4700000D02*
X9040000Y-4500000D01*
G75*
G02*
X9140000Y-4400000I100000J0D01*
G01*
X9400000Y-4400000D01*
G75*
G02*
X9500000Y-4500000I0J-100000D01*
G01*
X9500000Y-4700000D01*
G75*
G02*
X9400000Y-4800000I-100000J0D01*
G01*
X9140000Y-4800000D01*
G75*
G02*
X9040000Y-4700000I0J100000D01*
G01*
G37*
%TD.AperFunction*%
%TO.P,C3,1*%
%TO.N,Net-(C3-Pad1)*%
%TA.AperFunction,SMDPad,CuDef*%
G36*
G01*
X8400000Y-4700000D02*
X8400000Y-4500000D01*
G75*
G02*
X8500000Y-4400000I100000J0D01*
G01*
X8760000Y-4400000D01*
G75*
G02*
X8860000Y-4500000I0J-100000D01*
G01*
X8860000Y-4700000D01*
G75*
G02*
X8760000Y-4800000I-100000J0D01*
G01*
X8500000Y-4800000D01*
G75*
G02*
X8400000Y-4700000I0J100000D01*
G01*
G37*
%TD.AperFunction*%
%TD*%
%TO.P,C2,2*%
%TO.N,+3V3*%
%TA.AperFunction,SMDPad,CuDef*%
G36*
G01*
X1910000Y-5700000D02*
X1910000Y-5900000D01*
G75*
G02*
X1810000Y-6000000I-100000J0D01*
G01*
X1550000Y-6000000D01*
G75*
G02*
X1450000Y-5900000I0J100000D01*
G01*
X1450000Y-5700000D01*
G75*
G02*
X1550000Y-5600000I100000J0D01*
G01*
X1810000Y-5600000D01*
G75*
G02*
X1910000Y-5700000I0J-100000D01*
G01*
G37*
%TD.AperFunction*%
%TO.P,C2,1*%
%TO.N,GND*%
%TA.AperFunction,SMDPad,CuDef*%
G36*
G01*
X2550000Y-5700000D02*
X2550000Y-5900000D01*
G75*
G02*
X2450000Y-6000000I-100000J0D01*
G01*
X2190000Y-6000000D01*
G75*
G02*
X2090000Y-5900000I0J100000D01*
G01*
X2090000Y-5700000D01*
G75*
G02*
X2190000Y-5600000I100000J0D01*
G01*
X2450000Y-5600000D01*
G75*
G02*
X2550000Y-5700000I0J-100000D01*
G01*
G37*
%TD.AperFunction*%
%TD*%
D12*
%TO.N,+5V*%
X8000000Y-4000000D03*
%TO.N,GND*%
X1600000Y-4250000D03*
X4850000Y-1300000D03*
X9275000Y-4275000D03*
X2300000Y-5250000D03*
X400000Y-400000D03*
X400000Y-900000D03*
X400000Y-1400000D03*
X400000Y-1900000D03*
X400000Y-2400000D03*
X400000Y-2900000D03*
X400000Y-3400000D03*
X400000Y-3900000D03*
X400000Y-4400000D03*
X400000Y-4900000D03*
X400000Y-5400000D03*
X400000Y-5900000D03*
X400000Y-6400000D03*
X400000Y-6900000D03*
X400000Y-7400000D03*
X2700000Y-7430000D03*
X2200000Y-7430000D03*
X3200000Y-7430000D03*
X3700000Y-7430000D03*
X4200000Y-7430000D03*
X4700000Y-7430000D03*
X5200000Y-7430000D03*
X5700000Y-7430000D03*
X6200000Y-7430000D03*
X6700000Y-7430000D03*
X7200000Y-7430000D03*
X7700000Y-7430000D03*
X8200000Y-7430000D03*
X8700000Y-7430000D03*
X2350000Y-800000D03*
X2575000Y-6700000D03*
X9250000Y-1800000D03*
X9200000Y-7430000D03*
X7050000Y-5250000D03*
%TO.N,/P_D+*%
X9250000Y-3300000D03*
X4710000Y-6850000D03*
%TO.N,/P_D-*%
X9250000Y-2700000D03*
X4710000Y-6300000D03*
%TO.N,Net-(D1-Pad1)*%
X2750000Y-340000D03*
X9250000Y-500000D03*
%TD*%
D13*
%TO.N,Net-(AE1-Pad1)*%
X1070000Y-7000000D02*
X1050000Y-7020000D01*
X1680000Y-7000000D02*
X1070000Y-7000000D01*
X1050000Y-7750000D02*
X1050000Y-7020000D01*
X350000Y-9700000D02*
X350000Y-8450000D01*
X350000Y-8450000D02*
X1050000Y-7750000D01*
D14*
%TO.N,+5V*%
X7750000Y-4250000D02*
X8000000Y-4000000D01*
X7237500Y-4250000D02*
X7750000Y-4250000D01*
X8050000Y-3950000D02*
X8000000Y-4000000D01*
X8630000Y-3950000D02*
X8050000Y-3950000D01*
%TO.N,GND*%
X3550000Y-1750000D02*
X4800000Y-3000000D01*
X2362500Y-1750000D02*
X3550000Y-1750000D01*
X5050000Y-2750000D02*
X4800000Y-3000000D01*
X5050000Y-562500D02*
X5050000Y-2750000D01*
X2362500Y-4250000D02*
X1600000Y-4250000D01*
X3050000Y-1250000D02*
X4800000Y-3000000D01*
X9270000Y-4280000D02*
X9275000Y-4275000D01*
X9270000Y-4280000D02*
X9270000Y-4600000D01*
X9270000Y-3950000D02*
X9270000Y-4280000D01*
X2320000Y-5800000D02*
X2320000Y-5270000D01*
X2320000Y-5270000D02*
X2300000Y-5250000D01*
X4850000Y-1300000D02*
X4850000Y-3000000D01*
D13*
X6150000Y-7380000D02*
X6200000Y-7430000D01*
X6150000Y-6970000D02*
X6150000Y-7380000D01*
X5300000Y-7330000D02*
X5200000Y-7430000D01*
X5300000Y-6970000D02*
X5300000Y-7330000D01*
X4050000Y-7280000D02*
X4200000Y-7430000D01*
X4050000Y-6970000D02*
X4050000Y-7280000D01*
X3050000Y-7280000D02*
X3200000Y-7430000D01*
X3050000Y-6970000D02*
X3050000Y-7280000D01*
X2320000Y-7310000D02*
X2200000Y-7430000D01*
X2320000Y-7000000D02*
X2320000Y-7310000D01*
D14*
X3550000Y-7280000D02*
X3700000Y-7430000D01*
X3550000Y-5437500D02*
X3550000Y-7280000D01*
X5550000Y-5884526D02*
X5725000Y-6059526D01*
X5550000Y-5437500D02*
X5550000Y-5884526D01*
X5725000Y-7405000D02*
X5700000Y-7430000D01*
X5725000Y-6059526D02*
X5725000Y-7405000D01*
D15*
X400000Y-400000D02*
X400000Y-7400000D01*
D16*
X7500000Y-5250000D02*
X7750000Y-5500000D01*
D14*
X7237500Y-2250000D02*
X9125000Y-2250000D01*
X1720000Y-550000D02*
X2100000Y-550000D01*
X2100000Y-550000D02*
X2350000Y-800000D01*
X2362500Y-812500D02*
X2350000Y-800000D01*
X2362500Y-1250000D02*
X2362500Y-812500D01*
X2320000Y-6695000D02*
X2570000Y-6695000D01*
X2320000Y-6695000D02*
X2320000Y-7000000D01*
X2570000Y-6695000D02*
X2575000Y-6700000D01*
X2320000Y-5800000D02*
X2320000Y-6695000D01*
D17*
X8770000Y-1825000D02*
X9225000Y-1825000D01*
X9225000Y-1825000D02*
X9250000Y-1800000D01*
D14*
X9250000Y-2125000D02*
X9125000Y-2250000D01*
X9250000Y-1800000D02*
X9250000Y-2125000D01*
D16*
X9150000Y-7380000D02*
X9200000Y-7430000D01*
D15*
X9200000Y-7430000D02*
X2200000Y-7430000D01*
D16*
X7050000Y-5250000D02*
X7500000Y-5250000D01*
X9150000Y-6600000D02*
X9150000Y-7380000D01*
D14*
X2362500Y-1250000D02*
X3050000Y-1250000D01*
%TO.N,+3V3*%
X6550000Y-4750000D02*
X7237500Y-4750000D01*
X7237500Y-3750000D02*
X6550000Y-3750000D01*
X6550000Y-562500D02*
X6550000Y-3750000D01*
X6550000Y-3750000D02*
X6550000Y-4750000D01*
X2800000Y-2250000D02*
X3050000Y-2500000D01*
X2362500Y-2250000D02*
X2800000Y-2250000D01*
X2362500Y-4750000D02*
X3050000Y-4750000D01*
X3050000Y-2500000D02*
X3050000Y-4750000D01*
X4050000Y-5437500D02*
X4050000Y-4750000D01*
X3050000Y-4750000D02*
X4050000Y-4750000D01*
X4050000Y-4750000D02*
X6550000Y-4750000D01*
X2362500Y-4750000D02*
X1900000Y-4750000D01*
X1680000Y-4970000D02*
X1680000Y-5800000D01*
X1900000Y-4750000D02*
X1680000Y-4970000D01*
D17*
X7815000Y-500000D02*
X8009782Y-500000D01*
X8734782Y-1225000D02*
X8770000Y-1225000D01*
X8009782Y-500000D02*
X8734782Y-1225000D01*
X6612500Y-500000D02*
X6550000Y-562500D01*
X7815000Y-500000D02*
X6612500Y-500000D01*
D16*
%TO.N,Net-(C3-Pad1)*%
X8630000Y-4600000D02*
X8630000Y-4980000D01*
X8630000Y-4980000D02*
X9150000Y-5500000D01*
X8614999Y-6035001D02*
X9150000Y-5500000D01*
X6550000Y-5437500D02*
X7147501Y-6035001D01*
X7147501Y-6035001D02*
X8614999Y-6035001D01*
%TO.N,Net-(C4-Pad2)*%
X6050000Y-6230000D02*
X6150000Y-6330000D01*
X6050000Y-5437500D02*
X6050000Y-6230000D01*
X7480000Y-6330000D02*
X7750000Y-6600000D01*
X6150000Y-6330000D02*
X7480000Y-6330000D01*
D14*
%TO.N,Net-(C5-Pad2)*%
X5300000Y-6125000D02*
X5300000Y-6330000D01*
X5050000Y-5437500D02*
X5050000Y-5875000D01*
X5050000Y-5875000D02*
X5300000Y-6125000D01*
%TO.N,Net-(C6-Pad2)*%
X4550000Y-5830000D02*
X4050000Y-6330000D01*
X4550000Y-5437500D02*
X4550000Y-5830000D01*
D13*
%TO.N,Net-(C9-Pad2)*%
X1050000Y-4420000D02*
X1050000Y-5080000D01*
%TO.N,Net-(C10-Pad1)*%
X1050000Y-5720000D02*
X1050000Y-6380000D01*
X1070000Y-6400000D02*
X1050000Y-6380000D01*
X1680000Y-6400000D02*
X1070000Y-6400000D01*
D17*
%TO.N,/P_D+*%
X8770000Y-3300000D02*
X9250000Y-3300000D01*
%TO.N,/P_D-*%
X8770000Y-2700000D02*
X9250000Y-2700000D01*
D13*
%TO.N,Net-(L1-Pad2)*%
X1050000Y-2480000D02*
X1050000Y-1820000D01*
D14*
X1155000Y-2480000D02*
X1050000Y-2480000D01*
X2362500Y-3250000D02*
X1925000Y-3250000D01*
X1925000Y-3250000D02*
X1155000Y-2480000D01*
D13*
%TO.N,Net-(L1-Pad1)*%
X1050000Y-3780000D02*
X1050000Y-3120000D01*
D14*
X2362500Y-3750000D02*
X1080000Y-3750000D01*
X1080000Y-3750000D02*
X1050000Y-3780000D01*
D17*
%TO.N,/U_D+*%
X8080000Y-3250000D02*
X8130000Y-3300000D01*
X7237500Y-3250000D02*
X8080000Y-3250000D01*
%TO.N,/U_D-*%
X8080000Y-2750000D02*
X8130000Y-2700000D01*
X7237500Y-2750000D02*
X8080000Y-2750000D01*
%TO.N,Net-(R3-Pad1)*%
X8055000Y-1750000D02*
X8130000Y-1825000D01*
X7237500Y-1750000D02*
X8055000Y-1750000D01*
%TO.N,Net-(R4-Pad1)*%
X8105000Y-1250000D02*
X8130000Y-1225000D01*
X7237500Y-1250000D02*
X8105000Y-1250000D01*
%TO.N,Net-(R5-Pad2)*%
X3050000Y-5437500D02*
X3050000Y-6330000D01*
D14*
%TO.N,Net-(C8-Pad1)*%
X1250000Y-1180000D02*
X1050000Y-1180000D01*
X1465010Y-1395010D02*
X1250000Y-1180000D01*
X1465010Y-2290010D02*
X1465010Y-1395010D01*
X2362500Y-2750000D02*
X1925000Y-2750000D01*
X1925000Y-2750000D02*
X1465010Y-2290010D01*
D13*
X1050000Y-580000D02*
X1080000Y-550000D01*
X1050000Y-1180000D02*
X1050000Y-580000D01*
D17*
%TO.N,Net-(D1-Pad1)*%
X8785000Y-500000D02*
X9250000Y-500000D01*
X2972500Y-562500D02*
X2750000Y-340000D01*
X3050000Y-562500D02*
X2972500Y-562500D01*
%TD*%
D18*
%TO.N,GND*%
G36*
X636500Y-7205000D02*
G01*
X637720Y-7217388D01*
X641334Y-7229300D01*
X647202Y-7240279D01*
X655099Y-7249901D01*
X659501Y-7253514D01*
X659500Y-7588250D01*
X651250Y-7596500D01*
X215500Y-7596500D01*
X215500Y-215500D01*
X636500Y-215500D01*
X636500Y-7205000D01*
G37*
X636500Y-7205000D02*
X637720Y-7217388D01*
X641334Y-7229300D01*
X647202Y-7240279D01*
X655099Y-7249901D01*
X659501Y-7253514D01*
X659500Y-7588250D01*
X651250Y-7596500D01*
X215500Y-7596500D01*
X215500Y-215500D01*
X636500Y-215500D01*
X636500Y-7205000D01*
G36*
X2320500Y-7342875D02*
G01*
X2368125Y-7390500D01*
X2550000Y-7391422D01*
X2587345Y-7387744D01*
X2623254Y-7376851D01*
X2656348Y-7359162D01*
X2685356Y-7335356D01*
X2700000Y-7317512D01*
X2714644Y-7335356D01*
X2743652Y-7359162D01*
X2776746Y-7376851D01*
X2812655Y-7387744D01*
X2850000Y-7391422D01*
X3001875Y-7390500D01*
X3049500Y-7342875D01*
X3049500Y-7268500D01*
X3050500Y-7268500D01*
X3050500Y-7342875D01*
X3098125Y-7390500D01*
X3250000Y-7391422D01*
X3287345Y-7387744D01*
X3323254Y-7376851D01*
X3356348Y-7359162D01*
X3385356Y-7335356D01*
X3409162Y-7306348D01*
X3426851Y-7273254D01*
X3428293Y-7268500D01*
X3671707Y-7268500D01*
X3673149Y-7273254D01*
X3690838Y-7306348D01*
X3714644Y-7335356D01*
X3743652Y-7359162D01*
X3776746Y-7376851D01*
X3812655Y-7387744D01*
X3850000Y-7391422D01*
X4001875Y-7390500D01*
X4049500Y-7342875D01*
X4049500Y-7268500D01*
X4050500Y-7268500D01*
X4050500Y-7342875D01*
X4098125Y-7390500D01*
X4250000Y-7391422D01*
X4287345Y-7387744D01*
X4323254Y-7376851D01*
X4356348Y-7359162D01*
X4385356Y-7335356D01*
X4409162Y-7306348D01*
X4426851Y-7273254D01*
X4428293Y-7268500D01*
X4921707Y-7268500D01*
X4923149Y-7273254D01*
X4940838Y-7306348D01*
X4964644Y-7335356D01*
X4993652Y-7359162D01*
X5026746Y-7376851D01*
X5062655Y-7387744D01*
X5100000Y-7391422D01*
X5251875Y-7390500D01*
X5299500Y-7342875D01*
X5299500Y-7268500D01*
X5300500Y-7268500D01*
X5300500Y-7342875D01*
X5348125Y-7390500D01*
X5500000Y-7391422D01*
X5537345Y-7387744D01*
X5573254Y-7376851D01*
X5606348Y-7359162D01*
X5635356Y-7335356D01*
X5659162Y-7306348D01*
X5676851Y-7273254D01*
X5678293Y-7268500D01*
X5771707Y-7268500D01*
X5773149Y-7273254D01*
X5790838Y-7306348D01*
X5814644Y-7335356D01*
X5843652Y-7359162D01*
X5876746Y-7376851D01*
X5912655Y-7387744D01*
X5950000Y-7391422D01*
X6101875Y-7390500D01*
X6149500Y-7342875D01*
X6149500Y-7268500D01*
X6150500Y-7268500D01*
X6150500Y-7342875D01*
X6198125Y-7390500D01*
X6350000Y-7391422D01*
X6387345Y-7387744D01*
X6423254Y-7376851D01*
X6456348Y-7359162D01*
X6485356Y-7335356D01*
X6509162Y-7306348D01*
X6526851Y-7273254D01*
X6528293Y-7268500D01*
X9484501Y-7268500D01*
X9484501Y-7596500D01*
X1440500Y-7596500D01*
X1440500Y-7390500D01*
X1540650Y-7390500D01*
X1550000Y-7391421D01*
X1810000Y-7391421D01*
X1866853Y-7385821D01*
X1921522Y-7369238D01*
X1966582Y-7345153D01*
X1983652Y-7359162D01*
X2016746Y-7376851D01*
X2052655Y-7387744D01*
X2090000Y-7391422D01*
X2271875Y-7390500D01*
X2319500Y-7342875D01*
X2319500Y-7268500D01*
X2320500Y-7268500D01*
X2320500Y-7342875D01*
G37*
X2320500Y-7342875D02*
X2368125Y-7390500D01*
X2550000Y-7391422D01*
X2587345Y-7387744D01*
X2623254Y-7376851D01*
X2656348Y-7359162D01*
X2685356Y-7335356D01*
X2700000Y-7317512D01*
X2714644Y-7335356D01*
X2743652Y-7359162D01*
X2776746Y-7376851D01*
X2812655Y-7387744D01*
X2850000Y-7391422D01*
X3001875Y-7390500D01*
X3049500Y-7342875D01*
X3049500Y-7268500D01*
X3050500Y-7268500D01*
X3050500Y-7342875D01*
X3098125Y-7390500D01*
X3250000Y-7391422D01*
X3287345Y-7387744D01*
X3323254Y-7376851D01*
X3356348Y-7359162D01*
X3385356Y-7335356D01*
X3409162Y-7306348D01*
X3426851Y-7273254D01*
X3428293Y-7268500D01*
X3671707Y-7268500D01*
X3673149Y-7273254D01*
X3690838Y-7306348D01*
X3714644Y-7335356D01*
X3743652Y-7359162D01*
X3776746Y-7376851D01*
X3812655Y-7387744D01*
X3850000Y-7391422D01*
X4001875Y-7390500D01*
X4049500Y-7342875D01*
X4049500Y-7268500D01*
X4050500Y-7268500D01*
X4050500Y-7342875D01*
X4098125Y-7390500D01*
X4250000Y-7391422D01*
X4287345Y-7387744D01*
X4323254Y-7376851D01*
X4356348Y-7359162D01*
X4385356Y-7335356D01*
X4409162Y-7306348D01*
X4426851Y-7273254D01*
X4428293Y-7268500D01*
X4921707Y-7268500D01*
X4923149Y-7273254D01*
X4940838Y-7306348D01*
X4964644Y-7335356D01*
X4993652Y-7359162D01*
X5026746Y-7376851D01*
X5062655Y-7387744D01*
X5100000Y-7391422D01*
X5251875Y-7390500D01*
X5299500Y-7342875D01*
X5299500Y-7268500D01*
X5300500Y-7268500D01*
X5300500Y-7342875D01*
X5348125Y-7390500D01*
X5500000Y-7391422D01*
X5537345Y-7387744D01*
X5573254Y-7376851D01*
X5606348Y-7359162D01*
X5635356Y-7335356D01*
X5659162Y-7306348D01*
X5676851Y-7273254D01*
X5678293Y-7268500D01*
X5771707Y-7268500D01*
X5773149Y-7273254D01*
X5790838Y-7306348D01*
X5814644Y-7335356D01*
X5843652Y-7359162D01*
X5876746Y-7376851D01*
X5912655Y-7387744D01*
X5950000Y-7391422D01*
X6101875Y-7390500D01*
X6149500Y-7342875D01*
X6149500Y-7268500D01*
X6150500Y-7268500D01*
X6150500Y-7342875D01*
X6198125Y-7390500D01*
X6350000Y-7391422D01*
X6387345Y-7387744D01*
X6423254Y-7376851D01*
X6456348Y-7359162D01*
X6485356Y-7335356D01*
X6509162Y-7306348D01*
X6526851Y-7273254D01*
X6528293Y-7268500D01*
X9484501Y-7268500D01*
X9484501Y-7596500D01*
X1440500Y-7596500D01*
X1440500Y-7390500D01*
X1540650Y-7390500D01*
X1550000Y-7391421D01*
X1810000Y-7391421D01*
X1866853Y-7385821D01*
X1921522Y-7369238D01*
X1966582Y-7345153D01*
X1983652Y-7359162D01*
X2016746Y-7376851D01*
X2052655Y-7387744D01*
X2090000Y-7391422D01*
X2271875Y-7390500D01*
X2319500Y-7342875D01*
X2319500Y-7268500D01*
X2320500Y-7268500D01*
X2320500Y-7342875D01*
%TD*%
M02*
