%TF.GenerationSoftware,KiCad,Pcbnew,(5.1.6)-1*%
%TF.CreationDate,2021-03-15T09:06:00+08:00*%
%TF.ProjectId,unify0,756e6966-7930-42e6-9b69-6361645f7063,rev?*%
%TF.SameCoordinates,Original*%
%TF.FileFunction,Paste,Top*%
%TF.FilePolarity,Positive*%
%FSLAX46Y46*%
G04 Gerber Fmt 4.6, Leading zero omitted, Abs format (unit mm)*
G04 Created by KiCad (PCBNEW (5.1.6)-1) date 2021-03-15 09:06:00*
%MOMM*%
%LPD*%
G01*
G04 APERTURE LIST*
%ADD10R,1.000000X2.000000*%
%ADD11R,0.900000X0.800000*%
G04 APERTURE END LIST*
%TO.C,D1*%
G36*
G01*
X8110000Y-327500D02*
X8110000Y-672500D01*
G75*
G02*
X7962500Y-820000I-147500J0D01*
G01*
X7667500Y-820000D01*
G75*
G02*
X7520000Y-672500I0J147500D01*
G01*
X7520000Y-327500D01*
G75*
G02*
X7667500Y-180000I147500J0D01*
G01*
X7962500Y-180000D01*
G75*
G02*
X8110000Y-327500I0J-147500D01*
G01*
G37*
G36*
G01*
X9080000Y-327500D02*
X9080000Y-672500D01*
G75*
G02*
X8932500Y-820000I-147500J0D01*
G01*
X8637500Y-820000D01*
G75*
G02*
X8490000Y-672500I0J147500D01*
G01*
X8490000Y-327500D01*
G75*
G02*
X8637500Y-180000I147500J0D01*
G01*
X8932500Y-180000D01*
G75*
G02*
X9080000Y-327500I0J-147500D01*
G01*
G37*
%TD*%
D10*
%TO.C,AE1*%
X9200000Y-9700000D03*
X500000Y-9700000D03*
%TD*%
D11*
%TO.C,Y1*%
X9150000Y-6600000D03*
X7750000Y-6600000D03*
X7750000Y-5500000D03*
X9150000Y-5500000D03*
%TD*%
%TO.C,C1*%
G36*
G01*
X8764000Y-3849500D02*
X8764000Y-4050500D01*
G75*
G02*
X8684500Y-4130000I-79500J0D01*
G01*
X8525500Y-4130000D01*
G75*
G02*
X8446000Y-4050500I0J79500D01*
G01*
X8446000Y-3849500D01*
G75*
G02*
X8525500Y-3770000I79500J0D01*
G01*
X8684500Y-3770000D01*
G75*
G02*
X8764000Y-3849500I0J-79500D01*
G01*
G37*
G36*
G01*
X9454000Y-3849500D02*
X9454000Y-4050500D01*
G75*
G02*
X9374500Y-4130000I-79500J0D01*
G01*
X9215500Y-4130000D01*
G75*
G02*
X9136000Y-4050500I0J79500D01*
G01*
X9136000Y-3849500D01*
G75*
G02*
X9215500Y-3770000I79500J0D01*
G01*
X9374500Y-3770000D01*
G75*
G02*
X9454000Y-3849500I0J-79500D01*
G01*
G37*
%TD*%
%TO.C,U1*%
G36*
G01*
X6675000Y-5062500D02*
X6675000Y-5812500D01*
G75*
G02*
X6612500Y-5875000I-62500J0D01*
G01*
X6487500Y-5875000D01*
G75*
G02*
X6425000Y-5812500I0J62500D01*
G01*
X6425000Y-5062500D01*
G75*
G02*
X6487500Y-5000000I62500J0D01*
G01*
X6612500Y-5000000D01*
G75*
G02*
X6675000Y-5062500I0J-62500D01*
G01*
G37*
G36*
G01*
X6175000Y-5062500D02*
X6175000Y-5812500D01*
G75*
G02*
X6112500Y-5875000I-62500J0D01*
G01*
X5987500Y-5875000D01*
G75*
G02*
X5925000Y-5812500I0J62500D01*
G01*
X5925000Y-5062500D01*
G75*
G02*
X5987500Y-5000000I62500J0D01*
G01*
X6112500Y-5000000D01*
G75*
G02*
X6175000Y-5062500I0J-62500D01*
G01*
G37*
G36*
G01*
X5675000Y-5062500D02*
X5675000Y-5812500D01*
G75*
G02*
X5612500Y-5875000I-62500J0D01*
G01*
X5487500Y-5875000D01*
G75*
G02*
X5425000Y-5812500I0J62500D01*
G01*
X5425000Y-5062500D01*
G75*
G02*
X5487500Y-5000000I62500J0D01*
G01*
X5612500Y-5000000D01*
G75*
G02*
X5675000Y-5062500I0J-62500D01*
G01*
G37*
G36*
G01*
X5175000Y-5062500D02*
X5175000Y-5812500D01*
G75*
G02*
X5112500Y-5875000I-62500J0D01*
G01*
X4987500Y-5875000D01*
G75*
G02*
X4925000Y-5812500I0J62500D01*
G01*
X4925000Y-5062500D01*
G75*
G02*
X4987500Y-5000000I62500J0D01*
G01*
X5112500Y-5000000D01*
G75*
G02*
X5175000Y-5062500I0J-62500D01*
G01*
G37*
G36*
G01*
X4675000Y-5062500D02*
X4675000Y-5812500D01*
G75*
G02*
X4612500Y-5875000I-62500J0D01*
G01*
X4487500Y-5875000D01*
G75*
G02*
X4425000Y-5812500I0J62500D01*
G01*
X4425000Y-5062500D01*
G75*
G02*
X4487500Y-5000000I62500J0D01*
G01*
X4612500Y-5000000D01*
G75*
G02*
X4675000Y-5062500I0J-62500D01*
G01*
G37*
G36*
G01*
X4175000Y-5062500D02*
X4175000Y-5812500D01*
G75*
G02*
X4112500Y-5875000I-62500J0D01*
G01*
X3987500Y-5875000D01*
G75*
G02*
X3925000Y-5812500I0J62500D01*
G01*
X3925000Y-5062500D01*
G75*
G02*
X3987500Y-5000000I62500J0D01*
G01*
X4112500Y-5000000D01*
G75*
G02*
X4175000Y-5062500I0J-62500D01*
G01*
G37*
G36*
G01*
X3675000Y-5062500D02*
X3675000Y-5812500D01*
G75*
G02*
X3612500Y-5875000I-62500J0D01*
G01*
X3487500Y-5875000D01*
G75*
G02*
X3425000Y-5812500I0J62500D01*
G01*
X3425000Y-5062500D01*
G75*
G02*
X3487500Y-5000000I62500J0D01*
G01*
X3612500Y-5000000D01*
G75*
G02*
X3675000Y-5062500I0J-62500D01*
G01*
G37*
G36*
G01*
X3175000Y-5062500D02*
X3175000Y-5812500D01*
G75*
G02*
X3112500Y-5875000I-62500J0D01*
G01*
X2987500Y-5875000D01*
G75*
G02*
X2925000Y-5812500I0J62500D01*
G01*
X2925000Y-5062500D01*
G75*
G02*
X2987500Y-5000000I62500J0D01*
G01*
X3112500Y-5000000D01*
G75*
G02*
X3175000Y-5062500I0J-62500D01*
G01*
G37*
G36*
G01*
X2800000Y-4687500D02*
X2800000Y-4812500D01*
G75*
G02*
X2737500Y-4875000I-62500J0D01*
G01*
X1987500Y-4875000D01*
G75*
G02*
X1925000Y-4812500I0J62500D01*
G01*
X1925000Y-4687500D01*
G75*
G02*
X1987500Y-4625000I62500J0D01*
G01*
X2737500Y-4625000D01*
G75*
G02*
X2800000Y-4687500I0J-62500D01*
G01*
G37*
G36*
G01*
X2800000Y-4187500D02*
X2800000Y-4312500D01*
G75*
G02*
X2737500Y-4375000I-62500J0D01*
G01*
X1987500Y-4375000D01*
G75*
G02*
X1925000Y-4312500I0J62500D01*
G01*
X1925000Y-4187500D01*
G75*
G02*
X1987500Y-4125000I62500J0D01*
G01*
X2737500Y-4125000D01*
G75*
G02*
X2800000Y-4187500I0J-62500D01*
G01*
G37*
G36*
G01*
X2800000Y-3687500D02*
X2800000Y-3812500D01*
G75*
G02*
X2737500Y-3875000I-62500J0D01*
G01*
X1987500Y-3875000D01*
G75*
G02*
X1925000Y-3812500I0J62500D01*
G01*
X1925000Y-3687500D01*
G75*
G02*
X1987500Y-3625000I62500J0D01*
G01*
X2737500Y-3625000D01*
G75*
G02*
X2800000Y-3687500I0J-62500D01*
G01*
G37*
G36*
G01*
X2800000Y-3187500D02*
X2800000Y-3312500D01*
G75*
G02*
X2737500Y-3375000I-62500J0D01*
G01*
X1987500Y-3375000D01*
G75*
G02*
X1925000Y-3312500I0J62500D01*
G01*
X1925000Y-3187500D01*
G75*
G02*
X1987500Y-3125000I62500J0D01*
G01*
X2737500Y-3125000D01*
G75*
G02*
X2800000Y-3187500I0J-62500D01*
G01*
G37*
G36*
G01*
X2800000Y-2687500D02*
X2800000Y-2812500D01*
G75*
G02*
X2737500Y-2875000I-62500J0D01*
G01*
X1987500Y-2875000D01*
G75*
G02*
X1925000Y-2812500I0J62500D01*
G01*
X1925000Y-2687500D01*
G75*
G02*
X1987500Y-2625000I62500J0D01*
G01*
X2737500Y-2625000D01*
G75*
G02*
X2800000Y-2687500I0J-62500D01*
G01*
G37*
G36*
G01*
X2800000Y-2187500D02*
X2800000Y-2312500D01*
G75*
G02*
X2737500Y-2375000I-62500J0D01*
G01*
X1987500Y-2375000D01*
G75*
G02*
X1925000Y-2312500I0J62500D01*
G01*
X1925000Y-2187500D01*
G75*
G02*
X1987500Y-2125000I62500J0D01*
G01*
X2737500Y-2125000D01*
G75*
G02*
X2800000Y-2187500I0J-62500D01*
G01*
G37*
G36*
G01*
X2800000Y-1687500D02*
X2800000Y-1812500D01*
G75*
G02*
X2737500Y-1875000I-62500J0D01*
G01*
X1987500Y-1875000D01*
G75*
G02*
X1925000Y-1812500I0J62500D01*
G01*
X1925000Y-1687500D01*
G75*
G02*
X1987500Y-1625000I62500J0D01*
G01*
X2737500Y-1625000D01*
G75*
G02*
X2800000Y-1687500I0J-62500D01*
G01*
G37*
G36*
G01*
X2800000Y-1187500D02*
X2800000Y-1312500D01*
G75*
G02*
X2737500Y-1375000I-62500J0D01*
G01*
X1987500Y-1375000D01*
G75*
G02*
X1925000Y-1312500I0J62500D01*
G01*
X1925000Y-1187500D01*
G75*
G02*
X1987500Y-1125000I62500J0D01*
G01*
X2737500Y-1125000D01*
G75*
G02*
X2800000Y-1187500I0J-62500D01*
G01*
G37*
G36*
G01*
X3175000Y-187500D02*
X3175000Y-937500D01*
G75*
G02*
X3112500Y-1000000I-62500J0D01*
G01*
X2987500Y-1000000D01*
G75*
G02*
X2925000Y-937500I0J62500D01*
G01*
X2925000Y-187500D01*
G75*
G02*
X2987500Y-125000I62500J0D01*
G01*
X3112500Y-125000D01*
G75*
G02*
X3175000Y-187500I0J-62500D01*
G01*
G37*
G36*
G01*
X3675000Y-187500D02*
X3675000Y-937500D01*
G75*
G02*
X3612500Y-1000000I-62500J0D01*
G01*
X3487500Y-1000000D01*
G75*
G02*
X3425000Y-937500I0J62500D01*
G01*
X3425000Y-187500D01*
G75*
G02*
X3487500Y-125000I62500J0D01*
G01*
X3612500Y-125000D01*
G75*
G02*
X3675000Y-187500I0J-62500D01*
G01*
G37*
G36*
G01*
X4175000Y-187500D02*
X4175000Y-937500D01*
G75*
G02*
X4112500Y-1000000I-62500J0D01*
G01*
X3987500Y-1000000D01*
G75*
G02*
X3925000Y-937500I0J62500D01*
G01*
X3925000Y-187500D01*
G75*
G02*
X3987500Y-125000I62500J0D01*
G01*
X4112500Y-125000D01*
G75*
G02*
X4175000Y-187500I0J-62500D01*
G01*
G37*
G36*
G01*
X4675000Y-187500D02*
X4675000Y-937500D01*
G75*
G02*
X4612500Y-1000000I-62500J0D01*
G01*
X4487500Y-1000000D01*
G75*
G02*
X4425000Y-937500I0J62500D01*
G01*
X4425000Y-187500D01*
G75*
G02*
X4487500Y-125000I62500J0D01*
G01*
X4612500Y-125000D01*
G75*
G02*
X4675000Y-187500I0J-62500D01*
G01*
G37*
G36*
G01*
X5175000Y-187500D02*
X5175000Y-937500D01*
G75*
G02*
X5112500Y-1000000I-62500J0D01*
G01*
X4987500Y-1000000D01*
G75*
G02*
X4925000Y-937500I0J62500D01*
G01*
X4925000Y-187500D01*
G75*
G02*
X4987500Y-125000I62500J0D01*
G01*
X5112500Y-125000D01*
G75*
G02*
X5175000Y-187500I0J-62500D01*
G01*
G37*
G36*
G01*
X5675000Y-187500D02*
X5675000Y-937500D01*
G75*
G02*
X5612500Y-1000000I-62500J0D01*
G01*
X5487500Y-1000000D01*
G75*
G02*
X5425000Y-937500I0J62500D01*
G01*
X5425000Y-187500D01*
G75*
G02*
X5487500Y-125000I62500J0D01*
G01*
X5612500Y-125000D01*
G75*
G02*
X5675000Y-187500I0J-62500D01*
G01*
G37*
G36*
G01*
X6175000Y-187500D02*
X6175000Y-937500D01*
G75*
G02*
X6112500Y-1000000I-62500J0D01*
G01*
X5987500Y-1000000D01*
G75*
G02*
X5925000Y-937500I0J62500D01*
G01*
X5925000Y-187500D01*
G75*
G02*
X5987500Y-125000I62500J0D01*
G01*
X6112500Y-125000D01*
G75*
G02*
X6175000Y-187500I0J-62500D01*
G01*
G37*
G36*
G01*
X6675000Y-187500D02*
X6675000Y-937500D01*
G75*
G02*
X6612500Y-1000000I-62500J0D01*
G01*
X6487500Y-1000000D01*
G75*
G02*
X6425000Y-937500I0J62500D01*
G01*
X6425000Y-187500D01*
G75*
G02*
X6487500Y-125000I62500J0D01*
G01*
X6612500Y-125000D01*
G75*
G02*
X6675000Y-187500I0J-62500D01*
G01*
G37*
G36*
G01*
X7675000Y-1187500D02*
X7675000Y-1312500D01*
G75*
G02*
X7612500Y-1375000I-62500J0D01*
G01*
X6862500Y-1375000D01*
G75*
G02*
X6800000Y-1312500I0J62500D01*
G01*
X6800000Y-1187500D01*
G75*
G02*
X6862500Y-1125000I62500J0D01*
G01*
X7612500Y-1125000D01*
G75*
G02*
X7675000Y-1187500I0J-62500D01*
G01*
G37*
G36*
G01*
X7675000Y-1687500D02*
X7675000Y-1812500D01*
G75*
G02*
X7612500Y-1875000I-62500J0D01*
G01*
X6862500Y-1875000D01*
G75*
G02*
X6800000Y-1812500I0J62500D01*
G01*
X6800000Y-1687500D01*
G75*
G02*
X6862500Y-1625000I62500J0D01*
G01*
X7612500Y-1625000D01*
G75*
G02*
X7675000Y-1687500I0J-62500D01*
G01*
G37*
G36*
G01*
X7675000Y-2187500D02*
X7675000Y-2312500D01*
G75*
G02*
X7612500Y-2375000I-62500J0D01*
G01*
X6862500Y-2375000D01*
G75*
G02*
X6800000Y-2312500I0J62500D01*
G01*
X6800000Y-2187500D01*
G75*
G02*
X6862500Y-2125000I62500J0D01*
G01*
X7612500Y-2125000D01*
G75*
G02*
X7675000Y-2187500I0J-62500D01*
G01*
G37*
G36*
G01*
X7675000Y-2687500D02*
X7675000Y-2812500D01*
G75*
G02*
X7612500Y-2875000I-62500J0D01*
G01*
X6862500Y-2875000D01*
G75*
G02*
X6800000Y-2812500I0J62500D01*
G01*
X6800000Y-2687500D01*
G75*
G02*
X6862500Y-2625000I62500J0D01*
G01*
X7612500Y-2625000D01*
G75*
G02*
X7675000Y-2687500I0J-62500D01*
G01*
G37*
G36*
G01*
X7675000Y-3187500D02*
X7675000Y-3312500D01*
G75*
G02*
X7612500Y-3375000I-62500J0D01*
G01*
X6862500Y-3375000D01*
G75*
G02*
X6800000Y-3312500I0J62500D01*
G01*
X6800000Y-3187500D01*
G75*
G02*
X6862500Y-3125000I62500J0D01*
G01*
X7612500Y-3125000D01*
G75*
G02*
X7675000Y-3187500I0J-62500D01*
G01*
G37*
G36*
G01*
X7675000Y-3687500D02*
X7675000Y-3812500D01*
G75*
G02*
X7612500Y-3875000I-62500J0D01*
G01*
X6862500Y-3875000D01*
G75*
G02*
X6800000Y-3812500I0J62500D01*
G01*
X6800000Y-3687500D01*
G75*
G02*
X6862500Y-3625000I62500J0D01*
G01*
X7612500Y-3625000D01*
G75*
G02*
X7675000Y-3687500I0J-62500D01*
G01*
G37*
G36*
G01*
X7675000Y-4187500D02*
X7675000Y-4312500D01*
G75*
G02*
X7612500Y-4375000I-62500J0D01*
G01*
X6862500Y-4375000D01*
G75*
G02*
X6800000Y-4312500I0J62500D01*
G01*
X6800000Y-4187500D01*
G75*
G02*
X6862500Y-4125000I62500J0D01*
G01*
X7612500Y-4125000D01*
G75*
G02*
X7675000Y-4187500I0J-62500D01*
G01*
G37*
G36*
G01*
X7675000Y-4687500D02*
X7675000Y-4812500D01*
G75*
G02*
X7612500Y-4875000I-62500J0D01*
G01*
X6862500Y-4875000D01*
G75*
G02*
X6800000Y-4812500I0J62500D01*
G01*
X6800000Y-4687500D01*
G75*
G02*
X6862500Y-4625000I62500J0D01*
G01*
X7612500Y-4625000D01*
G75*
G02*
X7675000Y-4687500I0J-62500D01*
G01*
G37*
G36*
G01*
X4185000Y-1762500D02*
X4185000Y-2177500D01*
G75*
G02*
X3977500Y-2385000I-207500J0D01*
G01*
X3562500Y-2385000D01*
G75*
G02*
X3355000Y-2177500I0J207500D01*
G01*
X3355000Y-1762500D01*
G75*
G02*
X3562500Y-1555000I207500J0D01*
G01*
X3977500Y-1555000D01*
G75*
G02*
X4185000Y-1762500I0J-207500D01*
G01*
G37*
G36*
G01*
X4185000Y-2792500D02*
X4185000Y-3207500D01*
G75*
G02*
X3977500Y-3415000I-207500J0D01*
G01*
X3562500Y-3415000D01*
G75*
G02*
X3355000Y-3207500I0J207500D01*
G01*
X3355000Y-2792500D01*
G75*
G02*
X3562500Y-2585000I207500J0D01*
G01*
X3977500Y-2585000D01*
G75*
G02*
X4185000Y-2792500I0J-207500D01*
G01*
G37*
G36*
G01*
X4185000Y-3822500D02*
X4185000Y-4237500D01*
G75*
G02*
X3977500Y-4445000I-207500J0D01*
G01*
X3562500Y-4445000D01*
G75*
G02*
X3355000Y-4237500I0J207500D01*
G01*
X3355000Y-3822500D01*
G75*
G02*
X3562500Y-3615000I207500J0D01*
G01*
X3977500Y-3615000D01*
G75*
G02*
X4185000Y-3822500I0J-207500D01*
G01*
G37*
G36*
G01*
X5215000Y-1762500D02*
X5215000Y-2177500D01*
G75*
G02*
X5007500Y-2385000I-207500J0D01*
G01*
X4592500Y-2385000D01*
G75*
G02*
X4385000Y-2177500I0J207500D01*
G01*
X4385000Y-1762500D01*
G75*
G02*
X4592500Y-1555000I207500J0D01*
G01*
X5007500Y-1555000D01*
G75*
G02*
X5215000Y-1762500I0J-207500D01*
G01*
G37*
G36*
G01*
X5215000Y-2792500D02*
X5215000Y-3207500D01*
G75*
G02*
X5007500Y-3415000I-207500J0D01*
G01*
X4592500Y-3415000D01*
G75*
G02*
X4385000Y-3207500I0J207500D01*
G01*
X4385000Y-2792500D01*
G75*
G02*
X4592500Y-2585000I207500J0D01*
G01*
X5007500Y-2585000D01*
G75*
G02*
X5215000Y-2792500I0J-207500D01*
G01*
G37*
G36*
G01*
X5215000Y-3822500D02*
X5215000Y-4237500D01*
G75*
G02*
X5007500Y-4445000I-207500J0D01*
G01*
X4592500Y-4445000D01*
G75*
G02*
X4385000Y-4237500I0J207500D01*
G01*
X4385000Y-3822500D01*
G75*
G02*
X4592500Y-3615000I207500J0D01*
G01*
X5007500Y-3615000D01*
G75*
G02*
X5215000Y-3822500I0J-207500D01*
G01*
G37*
G36*
G01*
X6245000Y-1762500D02*
X6245000Y-2177500D01*
G75*
G02*
X6037500Y-2385000I-207500J0D01*
G01*
X5622500Y-2385000D01*
G75*
G02*
X5415000Y-2177500I0J207500D01*
G01*
X5415000Y-1762500D01*
G75*
G02*
X5622500Y-1555000I207500J0D01*
G01*
X6037500Y-1555000D01*
G75*
G02*
X6245000Y-1762500I0J-207500D01*
G01*
G37*
G36*
G01*
X6245000Y-2792500D02*
X6245000Y-3207500D01*
G75*
G02*
X6037500Y-3415000I-207500J0D01*
G01*
X5622500Y-3415000D01*
G75*
G02*
X5415000Y-3207500I0J207500D01*
G01*
X5415000Y-2792500D01*
G75*
G02*
X5622500Y-2585000I207500J0D01*
G01*
X6037500Y-2585000D01*
G75*
G02*
X6245000Y-2792500I0J-207500D01*
G01*
G37*
G36*
G01*
X6245000Y-3822500D02*
X6245000Y-4237500D01*
G75*
G02*
X6037500Y-4445000I-207500J0D01*
G01*
X5622500Y-4445000D01*
G75*
G02*
X5415000Y-4237500I0J207500D01*
G01*
X5415000Y-3822500D01*
G75*
G02*
X5622500Y-3615000I207500J0D01*
G01*
X6037500Y-3615000D01*
G75*
G02*
X6245000Y-3822500I0J-207500D01*
G01*
G37*
%TD*%
%TO.C,R5*%
G36*
G01*
X3150500Y-6464000D02*
X2949500Y-6464000D01*
G75*
G02*
X2870000Y-6384500I0J79500D01*
G01*
X2870000Y-6225500D01*
G75*
G02*
X2949500Y-6146000I79500J0D01*
G01*
X3150500Y-6146000D01*
G75*
G02*
X3230000Y-6225500I0J-79500D01*
G01*
X3230000Y-6384500D01*
G75*
G02*
X3150500Y-6464000I-79500J0D01*
G01*
G37*
G36*
G01*
X3150500Y-7154000D02*
X2949500Y-7154000D01*
G75*
G02*
X2870000Y-7074500I0J79500D01*
G01*
X2870000Y-6915500D01*
G75*
G02*
X2949500Y-6836000I79500J0D01*
G01*
X3150500Y-6836000D01*
G75*
G02*
X3230000Y-6915500I0J-79500D01*
G01*
X3230000Y-7074500D01*
G75*
G02*
X3150500Y-7154000I-79500J0D01*
G01*
G37*
%TD*%
%TO.C,R4*%
G36*
G01*
X8636000Y-1325500D02*
X8636000Y-1124500D01*
G75*
G02*
X8715500Y-1045000I79500J0D01*
G01*
X8874500Y-1045000D01*
G75*
G02*
X8954000Y-1124500I0J-79500D01*
G01*
X8954000Y-1325500D01*
G75*
G02*
X8874500Y-1405000I-79500J0D01*
G01*
X8715500Y-1405000D01*
G75*
G02*
X8636000Y-1325500I0J79500D01*
G01*
G37*
G36*
G01*
X7946000Y-1325500D02*
X7946000Y-1124500D01*
G75*
G02*
X8025500Y-1045000I79500J0D01*
G01*
X8184500Y-1045000D01*
G75*
G02*
X8264000Y-1124500I0J-79500D01*
G01*
X8264000Y-1325500D01*
G75*
G02*
X8184500Y-1405000I-79500J0D01*
G01*
X8025500Y-1405000D01*
G75*
G02*
X7946000Y-1325500I0J79500D01*
G01*
G37*
%TD*%
%TO.C,R3*%
G36*
G01*
X8636000Y-1925500D02*
X8636000Y-1724500D01*
G75*
G02*
X8715500Y-1645000I79500J0D01*
G01*
X8874500Y-1645000D01*
G75*
G02*
X8954000Y-1724500I0J-79500D01*
G01*
X8954000Y-1925500D01*
G75*
G02*
X8874500Y-2005000I-79500J0D01*
G01*
X8715500Y-2005000D01*
G75*
G02*
X8636000Y-1925500I0J79500D01*
G01*
G37*
G36*
G01*
X7946000Y-1925500D02*
X7946000Y-1724500D01*
G75*
G02*
X8025500Y-1645000I79500J0D01*
G01*
X8184500Y-1645000D01*
G75*
G02*
X8264000Y-1724500I0J-79500D01*
G01*
X8264000Y-1925500D01*
G75*
G02*
X8184500Y-2005000I-79500J0D01*
G01*
X8025500Y-2005000D01*
G75*
G02*
X7946000Y-1925500I0J79500D01*
G01*
G37*
%TD*%
%TO.C,R2*%
G36*
G01*
X8636000Y-2800500D02*
X8636000Y-2599500D01*
G75*
G02*
X8715500Y-2520000I79500J0D01*
G01*
X8874500Y-2520000D01*
G75*
G02*
X8954000Y-2599500I0J-79500D01*
G01*
X8954000Y-2800500D01*
G75*
G02*
X8874500Y-2880000I-79500J0D01*
G01*
X8715500Y-2880000D01*
G75*
G02*
X8636000Y-2800500I0J79500D01*
G01*
G37*
G36*
G01*
X7946000Y-2800500D02*
X7946000Y-2599500D01*
G75*
G02*
X8025500Y-2520000I79500J0D01*
G01*
X8184500Y-2520000D01*
G75*
G02*
X8264000Y-2599500I0J-79500D01*
G01*
X8264000Y-2800500D01*
G75*
G02*
X8184500Y-2880000I-79500J0D01*
G01*
X8025500Y-2880000D01*
G75*
G02*
X7946000Y-2800500I0J79500D01*
G01*
G37*
%TD*%
%TO.C,R1*%
G36*
G01*
X8636000Y-3400500D02*
X8636000Y-3199500D01*
G75*
G02*
X8715500Y-3120000I79500J0D01*
G01*
X8874500Y-3120000D01*
G75*
G02*
X8954000Y-3199500I0J-79500D01*
G01*
X8954000Y-3400500D01*
G75*
G02*
X8874500Y-3480000I-79500J0D01*
G01*
X8715500Y-3480000D01*
G75*
G02*
X8636000Y-3400500I0J79500D01*
G01*
G37*
G36*
G01*
X7946000Y-3400500D02*
X7946000Y-3199500D01*
G75*
G02*
X8025500Y-3120000I79500J0D01*
G01*
X8184500Y-3120000D01*
G75*
G02*
X8264000Y-3199500I0J-79500D01*
G01*
X8264000Y-3400500D01*
G75*
G02*
X8184500Y-3480000I-79500J0D01*
G01*
X8025500Y-3480000D01*
G75*
G02*
X7946000Y-3400500I0J79500D01*
G01*
G37*
%TD*%
%TO.C,L3*%
G36*
G01*
X1150500Y-1314000D02*
X949500Y-1314000D01*
G75*
G02*
X870000Y-1234500I0J79500D01*
G01*
X870000Y-1075500D01*
G75*
G02*
X949500Y-996000I79500J0D01*
G01*
X1150500Y-996000D01*
G75*
G02*
X1230000Y-1075500I0J-79500D01*
G01*
X1230000Y-1234500D01*
G75*
G02*
X1150500Y-1314000I-79500J0D01*
G01*
G37*
G36*
G01*
X1150500Y-2004000D02*
X949500Y-2004000D01*
G75*
G02*
X870000Y-1924500I0J79500D01*
G01*
X870000Y-1765500D01*
G75*
G02*
X949500Y-1686000I79500J0D01*
G01*
X1150500Y-1686000D01*
G75*
G02*
X1230000Y-1765500I0J-79500D01*
G01*
X1230000Y-1924500D01*
G75*
G02*
X1150500Y-2004000I-79500J0D01*
G01*
G37*
%TD*%
%TO.C,L2*%
G36*
G01*
X949500Y-4286000D02*
X1150500Y-4286000D01*
G75*
G02*
X1230000Y-4365500I0J-79500D01*
G01*
X1230000Y-4524500D01*
G75*
G02*
X1150500Y-4604000I-79500J0D01*
G01*
X949500Y-4604000D01*
G75*
G02*
X870000Y-4524500I0J79500D01*
G01*
X870000Y-4365500D01*
G75*
G02*
X949500Y-4286000I79500J0D01*
G01*
G37*
G36*
G01*
X949500Y-3596000D02*
X1150500Y-3596000D01*
G75*
G02*
X1230000Y-3675500I0J-79500D01*
G01*
X1230000Y-3834500D01*
G75*
G02*
X1150500Y-3914000I-79500J0D01*
G01*
X949500Y-3914000D01*
G75*
G02*
X870000Y-3834500I0J79500D01*
G01*
X870000Y-3675500D01*
G75*
G02*
X949500Y-3596000I79500J0D01*
G01*
G37*
%TD*%
%TO.C,L1*%
G36*
G01*
X1150500Y-2614000D02*
X949500Y-2614000D01*
G75*
G02*
X870000Y-2534500I0J79500D01*
G01*
X870000Y-2375500D01*
G75*
G02*
X949500Y-2296000I79500J0D01*
G01*
X1150500Y-2296000D01*
G75*
G02*
X1230000Y-2375500I0J-79500D01*
G01*
X1230000Y-2534500D01*
G75*
G02*
X1150500Y-2614000I-79500J0D01*
G01*
G37*
G36*
G01*
X1150500Y-3304000D02*
X949500Y-3304000D01*
G75*
G02*
X870000Y-3224500I0J79500D01*
G01*
X870000Y-3065500D01*
G75*
G02*
X949500Y-2986000I79500J0D01*
G01*
X1150500Y-2986000D01*
G75*
G02*
X1230000Y-3065500I0J-79500D01*
G01*
X1230000Y-3224500D01*
G75*
G02*
X1150500Y-3304000I-79500J0D01*
G01*
G37*
%TD*%
%TO.C,C12*%
G36*
G01*
X2186000Y-7100500D02*
X2186000Y-6899500D01*
G75*
G02*
X2265500Y-6820000I79500J0D01*
G01*
X2424500Y-6820000D01*
G75*
G02*
X2504000Y-6899500I0J-79500D01*
G01*
X2504000Y-7100500D01*
G75*
G02*
X2424500Y-7180000I-79500J0D01*
G01*
X2265500Y-7180000D01*
G75*
G02*
X2186000Y-7100500I0J79500D01*
G01*
G37*
G36*
G01*
X1496000Y-7100500D02*
X1496000Y-6899500D01*
G75*
G02*
X1575500Y-6820000I79500J0D01*
G01*
X1734500Y-6820000D01*
G75*
G02*
X1814000Y-6899500I0J-79500D01*
G01*
X1814000Y-7100500D01*
G75*
G02*
X1734500Y-7180000I-79500J0D01*
G01*
X1575500Y-7180000D01*
G75*
G02*
X1496000Y-7100500I0J79500D01*
G01*
G37*
%TD*%
%TO.C,C11*%
G36*
G01*
X1150500Y-6514000D02*
X949500Y-6514000D01*
G75*
G02*
X870000Y-6434500I0J79500D01*
G01*
X870000Y-6275500D01*
G75*
G02*
X949500Y-6196000I79500J0D01*
G01*
X1150500Y-6196000D01*
G75*
G02*
X1230000Y-6275500I0J-79500D01*
G01*
X1230000Y-6434500D01*
G75*
G02*
X1150500Y-6514000I-79500J0D01*
G01*
G37*
G36*
G01*
X1150500Y-7204000D02*
X949500Y-7204000D01*
G75*
G02*
X870000Y-7124500I0J79500D01*
G01*
X870000Y-6965500D01*
G75*
G02*
X949500Y-6886000I79500J0D01*
G01*
X1150500Y-6886000D01*
G75*
G02*
X1230000Y-6965500I0J-79500D01*
G01*
X1230000Y-7124500D01*
G75*
G02*
X1150500Y-7204000I-79500J0D01*
G01*
G37*
%TD*%
%TO.C,C10*%
G36*
G01*
X2186000Y-6500500D02*
X2186000Y-6299500D01*
G75*
G02*
X2265500Y-6220000I79500J0D01*
G01*
X2424500Y-6220000D01*
G75*
G02*
X2504000Y-6299500I0J-79500D01*
G01*
X2504000Y-6500500D01*
G75*
G02*
X2424500Y-6580000I-79500J0D01*
G01*
X2265500Y-6580000D01*
G75*
G02*
X2186000Y-6500500I0J79500D01*
G01*
G37*
G36*
G01*
X1496000Y-6500500D02*
X1496000Y-6299500D01*
G75*
G02*
X1575500Y-6220000I79500J0D01*
G01*
X1734500Y-6220000D01*
G75*
G02*
X1814000Y-6299500I0J-79500D01*
G01*
X1814000Y-6500500D01*
G75*
G02*
X1734500Y-6580000I-79500J0D01*
G01*
X1575500Y-6580000D01*
G75*
G02*
X1496000Y-6500500I0J79500D01*
G01*
G37*
%TD*%
%TO.C,C9*%
G36*
G01*
X1150500Y-5214000D02*
X949500Y-5214000D01*
G75*
G02*
X870000Y-5134500I0J79500D01*
G01*
X870000Y-4975500D01*
G75*
G02*
X949500Y-4896000I79500J0D01*
G01*
X1150500Y-4896000D01*
G75*
G02*
X1230000Y-4975500I0J-79500D01*
G01*
X1230000Y-5134500D01*
G75*
G02*
X1150500Y-5214000I-79500J0D01*
G01*
G37*
G36*
G01*
X1150500Y-5904000D02*
X949500Y-5904000D01*
G75*
G02*
X870000Y-5824500I0J79500D01*
G01*
X870000Y-5665500D01*
G75*
G02*
X949500Y-5586000I79500J0D01*
G01*
X1150500Y-5586000D01*
G75*
G02*
X1230000Y-5665500I0J-79500D01*
G01*
X1230000Y-5824500D01*
G75*
G02*
X1150500Y-5904000I-79500J0D01*
G01*
G37*
%TD*%
%TO.C,C8*%
G36*
G01*
X1586000Y-650500D02*
X1586000Y-449500D01*
G75*
G02*
X1665500Y-370000I79500J0D01*
G01*
X1824500Y-370000D01*
G75*
G02*
X1904000Y-449500I0J-79500D01*
G01*
X1904000Y-650500D01*
G75*
G02*
X1824500Y-730000I-79500J0D01*
G01*
X1665500Y-730000D01*
G75*
G02*
X1586000Y-650500I0J79500D01*
G01*
G37*
G36*
G01*
X896000Y-650500D02*
X896000Y-449500D01*
G75*
G02*
X975500Y-370000I79500J0D01*
G01*
X1134500Y-370000D01*
G75*
G02*
X1214000Y-449500I0J-79500D01*
G01*
X1214000Y-650500D01*
G75*
G02*
X1134500Y-730000I-79500J0D01*
G01*
X975500Y-730000D01*
G75*
G02*
X896000Y-650500I0J79500D01*
G01*
G37*
%TD*%
%TO.C,C6*%
G36*
G01*
X4150500Y-6464000D02*
X3949500Y-6464000D01*
G75*
G02*
X3870000Y-6384500I0J79500D01*
G01*
X3870000Y-6225500D01*
G75*
G02*
X3949500Y-6146000I79500J0D01*
G01*
X4150500Y-6146000D01*
G75*
G02*
X4230000Y-6225500I0J-79500D01*
G01*
X4230000Y-6384500D01*
G75*
G02*
X4150500Y-6464000I-79500J0D01*
G01*
G37*
G36*
G01*
X4150500Y-7154000D02*
X3949500Y-7154000D01*
G75*
G02*
X3870000Y-7074500I0J79500D01*
G01*
X3870000Y-6915500D01*
G75*
G02*
X3949500Y-6836000I79500J0D01*
G01*
X4150500Y-6836000D01*
G75*
G02*
X4230000Y-6915500I0J-79500D01*
G01*
X4230000Y-7074500D01*
G75*
G02*
X4150500Y-7154000I-79500J0D01*
G01*
G37*
%TD*%
%TO.C,C5*%
G36*
G01*
X5400500Y-6464000D02*
X5199500Y-6464000D01*
G75*
G02*
X5120000Y-6384500I0J79500D01*
G01*
X5120000Y-6225500D01*
G75*
G02*
X5199500Y-6146000I79500J0D01*
G01*
X5400500Y-6146000D01*
G75*
G02*
X5480000Y-6225500I0J-79500D01*
G01*
X5480000Y-6384500D01*
G75*
G02*
X5400500Y-6464000I-79500J0D01*
G01*
G37*
G36*
G01*
X5400500Y-7154000D02*
X5199500Y-7154000D01*
G75*
G02*
X5120000Y-7074500I0J79500D01*
G01*
X5120000Y-6915500D01*
G75*
G02*
X5199500Y-6836000I79500J0D01*
G01*
X5400500Y-6836000D01*
G75*
G02*
X5480000Y-6915500I0J-79500D01*
G01*
X5480000Y-7074500D01*
G75*
G02*
X5400500Y-7154000I-79500J0D01*
G01*
G37*
%TD*%
%TO.C,C4*%
G36*
G01*
X6250500Y-6464000D02*
X6049500Y-6464000D01*
G75*
G02*
X5970000Y-6384500I0J79500D01*
G01*
X5970000Y-6225500D01*
G75*
G02*
X6049500Y-6146000I79500J0D01*
G01*
X6250500Y-6146000D01*
G75*
G02*
X6330000Y-6225500I0J-79500D01*
G01*
X6330000Y-6384500D01*
G75*
G02*
X6250500Y-6464000I-79500J0D01*
G01*
G37*
G36*
G01*
X6250500Y-7154000D02*
X6049500Y-7154000D01*
G75*
G02*
X5970000Y-7074500I0J79500D01*
G01*
X5970000Y-6915500D01*
G75*
G02*
X6049500Y-6836000I79500J0D01*
G01*
X6250500Y-6836000D01*
G75*
G02*
X6330000Y-6915500I0J-79500D01*
G01*
X6330000Y-7074500D01*
G75*
G02*
X6250500Y-7154000I-79500J0D01*
G01*
G37*
%TD*%
%TO.C,C3*%
G36*
G01*
X9136000Y-4700500D02*
X9136000Y-4499500D01*
G75*
G02*
X9215500Y-4420000I79500J0D01*
G01*
X9374500Y-4420000D01*
G75*
G02*
X9454000Y-4499500I0J-79500D01*
G01*
X9454000Y-4700500D01*
G75*
G02*
X9374500Y-4780000I-79500J0D01*
G01*
X9215500Y-4780000D01*
G75*
G02*
X9136000Y-4700500I0J79500D01*
G01*
G37*
G36*
G01*
X8446000Y-4700500D02*
X8446000Y-4499500D01*
G75*
G02*
X8525500Y-4420000I79500J0D01*
G01*
X8684500Y-4420000D01*
G75*
G02*
X8764000Y-4499500I0J-79500D01*
G01*
X8764000Y-4700500D01*
G75*
G02*
X8684500Y-4780000I-79500J0D01*
G01*
X8525500Y-4780000D01*
G75*
G02*
X8446000Y-4700500I0J79500D01*
G01*
G37*
%TD*%
%TO.C,C2*%
G36*
G01*
X1814000Y-5699500D02*
X1814000Y-5900500D01*
G75*
G02*
X1734500Y-5980000I-79500J0D01*
G01*
X1575500Y-5980000D01*
G75*
G02*
X1496000Y-5900500I0J79500D01*
G01*
X1496000Y-5699500D01*
G75*
G02*
X1575500Y-5620000I79500J0D01*
G01*
X1734500Y-5620000D01*
G75*
G02*
X1814000Y-5699500I0J-79500D01*
G01*
G37*
G36*
G01*
X2504000Y-5699500D02*
X2504000Y-5900500D01*
G75*
G02*
X2424500Y-5980000I-79500J0D01*
G01*
X2265500Y-5980000D01*
G75*
G02*
X2186000Y-5900500I0J79500D01*
G01*
X2186000Y-5699500D01*
G75*
G02*
X2265500Y-5620000I79500J0D01*
G01*
X2424500Y-5620000D01*
G75*
G02*
X2504000Y-5699500I0J-79500D01*
G01*
G37*
%TD*%
M02*
