%TF.GenerationSoftware,KiCad,Pcbnew,(5.1.6)-1*%
%TF.CreationDate,2021-03-15T09:06:00+08:00*%
%TF.ProjectId,unify0,756e6966-7930-42e6-9b69-6361645f7063,rev?*%
%TF.SameCoordinates,Original*%
%TF.FileFunction,Soldermask,Bot*%
%TF.FilePolarity,Negative*%
%FSLAX46Y46*%
G04 Gerber Fmt 4.6, Leading zero omitted, Abs format (unit mm)*
G04 Created by KiCad (PCBNEW (5.1.6)-1) date 2021-03-15 09:06:00*
%MOMM*%
%LPD*%
G01*
G04 APERTURE LIST*
%ADD10C,0.100000*%
%ADD11C,0.010000*%
%ADD12C,0.050000*%
%ADD13R,1.000000X5.900000*%
%ADD14R,1.000000X6.900000*%
G04 APERTURE END LIST*
D10*
X6338095Y-9995238D02*
X6385714Y-9971428D01*
X6480952Y-9971428D01*
X6528571Y-9995238D01*
X6576190Y-10042857D01*
X6600000Y-10090476D01*
X6600000Y-10185714D01*
X6576190Y-10233333D01*
X6528571Y-10280952D01*
X6480952Y-10304761D01*
X6385714Y-10304761D01*
X6338095Y-10280952D01*
X6433333Y-9804761D02*
X6552380Y-9828571D01*
X6671428Y-9900000D01*
X6742857Y-10019047D01*
X6766666Y-10138095D01*
X6742857Y-10257142D01*
X6671428Y-10376190D01*
X6552380Y-10447619D01*
X6433333Y-10471428D01*
X6314285Y-10447619D01*
X6195238Y-10376190D01*
X6123809Y-10257142D01*
X6100000Y-10138095D01*
X6123809Y-10019047D01*
X6195238Y-9900000D01*
X6314285Y-9828571D01*
X6433333Y-9804761D01*
X5909523Y-10352380D02*
X5838095Y-10376190D01*
X5719047Y-10376190D01*
X5671428Y-10352380D01*
X5647619Y-10328571D01*
X5623809Y-10280952D01*
X5623809Y-10233333D01*
X5647619Y-10185714D01*
X5671428Y-10161904D01*
X5719047Y-10138095D01*
X5814285Y-10114285D01*
X5861904Y-10090476D01*
X5885714Y-10066666D01*
X5909523Y-10019047D01*
X5909523Y-9971428D01*
X5885714Y-9923809D01*
X5861904Y-9900000D01*
X5814285Y-9876190D01*
X5695238Y-9876190D01*
X5623809Y-9900000D01*
X5480952Y-10042857D02*
X5290476Y-10042857D01*
X5409523Y-9876190D02*
X5409523Y-10304761D01*
X5385714Y-10352380D01*
X5338095Y-10376190D01*
X5290476Y-10376190D01*
X4909523Y-10376190D02*
X4909523Y-10114285D01*
X4933333Y-10066666D01*
X4980952Y-10042857D01*
X5076190Y-10042857D01*
X5123809Y-10066666D01*
X4909523Y-10352380D02*
X4957142Y-10376190D01*
X5076190Y-10376190D01*
X5123809Y-10352380D01*
X5147619Y-10304761D01*
X5147619Y-10257142D01*
X5123809Y-10209523D01*
X5076190Y-10185714D01*
X4957142Y-10185714D01*
X4909523Y-10161904D01*
X4671428Y-10042857D02*
X4671428Y-10376190D01*
X4671428Y-10090476D02*
X4647619Y-10066666D01*
X4600000Y-10042857D01*
X4528571Y-10042857D01*
X4480952Y-10066666D01*
X4457142Y-10114285D01*
X4457142Y-10376190D01*
X4147619Y-10376190D02*
X4195238Y-10352380D01*
X4219047Y-10304761D01*
X4219047Y-9876190D01*
X3742857Y-10376190D02*
X3742857Y-10114285D01*
X3766666Y-10066666D01*
X3814285Y-10042857D01*
X3909523Y-10042857D01*
X3957142Y-10066666D01*
X3742857Y-10352380D02*
X3790476Y-10376190D01*
X3909523Y-10376190D01*
X3957142Y-10352380D01*
X3980952Y-10304761D01*
X3980952Y-10257142D01*
X3957142Y-10209523D01*
X3909523Y-10185714D01*
X3790476Y-10185714D01*
X3742857Y-10161904D01*
X3552380Y-10042857D02*
X3290476Y-10042857D01*
X3552380Y-10376190D01*
X3290476Y-10376190D01*
X3147619Y-10042857D02*
X3028571Y-10376190D01*
X2909523Y-10042857D02*
X3028571Y-10376190D01*
X3076190Y-10495238D01*
X3100000Y-10519047D01*
X3147619Y-10542857D01*
X7040476Y-7876190D02*
X7040476Y-8280952D01*
X7016666Y-8328571D01*
X6992857Y-8352380D01*
X6945238Y-8376190D01*
X6850000Y-8376190D01*
X6802380Y-8352380D01*
X6778571Y-8328571D01*
X6754761Y-8280952D01*
X6754761Y-7876190D01*
X6516666Y-8042857D02*
X6516666Y-8376190D01*
X6516666Y-8090476D02*
X6492857Y-8066666D01*
X6445238Y-8042857D01*
X6373809Y-8042857D01*
X6326190Y-8066666D01*
X6302380Y-8114285D01*
X6302380Y-8376190D01*
X6064285Y-8376190D02*
X6064285Y-8042857D01*
X6064285Y-7876190D02*
X6088095Y-7900000D01*
X6064285Y-7923809D01*
X6040476Y-7900000D01*
X6064285Y-7876190D01*
X6064285Y-7923809D01*
X5897619Y-8042857D02*
X5707142Y-8042857D01*
X5826190Y-8376190D02*
X5826190Y-7947619D01*
X5802380Y-7900000D01*
X5754761Y-7876190D01*
X5707142Y-7876190D01*
X5588095Y-8042857D02*
X5469047Y-8376190D01*
X5350000Y-8042857D02*
X5469047Y-8376190D01*
X5516666Y-8495238D01*
X5540476Y-8519047D01*
X5588095Y-8542857D01*
X5064285Y-7876190D02*
X5016666Y-7876190D01*
X4969047Y-7900000D01*
X4945238Y-7923809D01*
X4921428Y-7971428D01*
X4897619Y-8066666D01*
X4897619Y-8185714D01*
X4921428Y-8280952D01*
X4945238Y-8328571D01*
X4969047Y-8352380D01*
X5016666Y-8376190D01*
X5064285Y-8376190D01*
X5111904Y-8352380D01*
X5135714Y-8328571D01*
X5159523Y-8280952D01*
X5183333Y-8185714D01*
X5183333Y-8066666D01*
X5159523Y-7971428D01*
X5135714Y-7923809D01*
X5111904Y-7900000D01*
X5064285Y-7876190D01*
X4373809Y-7876190D02*
X4207142Y-8376190D01*
X4040476Y-7876190D01*
X3778571Y-7876190D02*
X3730952Y-7876190D01*
X3683333Y-7900000D01*
X3659523Y-7923809D01*
X3635714Y-7971428D01*
X3611904Y-8066666D01*
X3611904Y-8185714D01*
X3635714Y-8280952D01*
X3659523Y-8328571D01*
X3683333Y-8352380D01*
X3730952Y-8376190D01*
X3778571Y-8376190D01*
X3826190Y-8352380D01*
X3849999Y-8328571D01*
X3873809Y-8280952D01*
X3897619Y-8185714D01*
X3897619Y-8066666D01*
X3873809Y-7971428D01*
X3849999Y-7923809D01*
X3826190Y-7900000D01*
X3778571Y-7876190D01*
X3111904Y-8376190D02*
X3278571Y-8138095D01*
X3397619Y-8376190D02*
X3397619Y-7876190D01*
X3207142Y-7876190D01*
X3159523Y-7900000D01*
X3135714Y-7923809D01*
X3111904Y-7971428D01*
X3111904Y-8042857D01*
X3135714Y-8090476D01*
X3159523Y-8114285D01*
X3207142Y-8138095D01*
X3397619Y-8138095D01*
X2635714Y-8376190D02*
X2921428Y-8376190D01*
X2778571Y-8376190D02*
X2778571Y-7876190D01*
X2826190Y-7947619D01*
X2873809Y-7995238D01*
X2921428Y-8019047D01*
D11*
%TO.C,G\u002A\u002A\u002A*%
G36*
X689990Y-8509682D02*
G01*
X673940Y-8513273D01*
X642571Y-8526367D01*
X615149Y-8545966D01*
X595840Y-8568353D01*
X588801Y-8589215D01*
X593802Y-8606878D01*
X607660Y-8611279D01*
X628650Y-8602376D01*
X644106Y-8590497D01*
X669010Y-8572475D01*
X694002Y-8565065D01*
X711257Y-8564200D01*
X745702Y-8569255D01*
X767219Y-8582760D01*
X775805Y-8602226D01*
X771458Y-8625163D01*
X754175Y-8649082D01*
X723953Y-8671494D01*
X711379Y-8678022D01*
X668553Y-8705526D01*
X637747Y-8740405D01*
X620310Y-8780090D01*
X617588Y-8822012D01*
X623204Y-8846117D01*
X641917Y-8879489D01*
X661503Y-8896089D01*
X697118Y-8910297D01*
X736808Y-8916204D01*
X773419Y-8913120D01*
X787767Y-8908258D01*
X810478Y-8894074D01*
X833948Y-8874206D01*
X837882Y-8870190D01*
X853137Y-8852078D01*
X857660Y-8838759D01*
X853455Y-8823871D01*
X852880Y-8822593D01*
X843153Y-8806555D01*
X832207Y-8803133D01*
X817060Y-8812789D01*
X799312Y-8830900D01*
X771489Y-8852802D01*
X742586Y-8861577D01*
X716000Y-8858054D01*
X695124Y-8843057D01*
X683355Y-8817413D01*
X681934Y-8802332D01*
X686403Y-8779067D01*
X701209Y-8757364D01*
X728449Y-8734882D01*
X760153Y-8715024D01*
X796263Y-8689325D01*
X817847Y-8661156D01*
X827285Y-8627064D01*
X828055Y-8616494D01*
X822554Y-8575017D01*
X803861Y-8542166D01*
X774112Y-8519373D01*
X735443Y-8508068D01*
X689990Y-8509682D01*
G37*
X689990Y-8509682D02*
X673940Y-8513273D01*
X642571Y-8526367D01*
X615149Y-8545966D01*
X595840Y-8568353D01*
X588801Y-8589215D01*
X593802Y-8606878D01*
X607660Y-8611279D01*
X628650Y-8602376D01*
X644106Y-8590497D01*
X669010Y-8572475D01*
X694002Y-8565065D01*
X711257Y-8564200D01*
X745702Y-8569255D01*
X767219Y-8582760D01*
X775805Y-8602226D01*
X771458Y-8625163D01*
X754175Y-8649082D01*
X723953Y-8671494D01*
X711379Y-8678022D01*
X668553Y-8705526D01*
X637747Y-8740405D01*
X620310Y-8780090D01*
X617588Y-8822012D01*
X623204Y-8846117D01*
X641917Y-8879489D01*
X661503Y-8896089D01*
X697118Y-8910297D01*
X736808Y-8916204D01*
X773419Y-8913120D01*
X787767Y-8908258D01*
X810478Y-8894074D01*
X833948Y-8874206D01*
X837882Y-8870190D01*
X853137Y-8852078D01*
X857660Y-8838759D01*
X853455Y-8823871D01*
X852880Y-8822593D01*
X843153Y-8806555D01*
X832207Y-8803133D01*
X817060Y-8812789D01*
X799312Y-8830900D01*
X771489Y-8852802D01*
X742586Y-8861577D01*
X716000Y-8858054D01*
X695124Y-8843057D01*
X683355Y-8817413D01*
X681934Y-8802332D01*
X686403Y-8779067D01*
X701209Y-8757364D01*
X728449Y-8734882D01*
X760153Y-8715024D01*
X796263Y-8689325D01*
X817847Y-8661156D01*
X827285Y-8627064D01*
X828055Y-8616494D01*
X822554Y-8575017D01*
X803861Y-8542166D01*
X774112Y-8519373D01*
X735443Y-8508068D01*
X689990Y-8509682D01*
G36*
X1407952Y-8604137D02*
G01*
X1386612Y-8617154D01*
X1376060Y-8625009D01*
X1340965Y-8656052D01*
X1322349Y-8683269D01*
X1320258Y-8706918D01*
X1334735Y-8727254D01*
X1365828Y-8744536D01*
X1398972Y-8755350D01*
X1434729Y-8765552D01*
X1469754Y-8776495D01*
X1492775Y-8784470D01*
X1528915Y-8798081D01*
X1500093Y-8831424D01*
X1483512Y-8849568D01*
X1469590Y-8859478D01*
X1452261Y-8863552D01*
X1425457Y-8864185D01*
X1417385Y-8864097D01*
X1378549Y-8861050D01*
X1347606Y-8853686D01*
X1338780Y-8849751D01*
X1315369Y-8841061D01*
X1298564Y-8844369D01*
X1284203Y-8857531D01*
X1284373Y-8872180D01*
X1296914Y-8886941D01*
X1319669Y-8900437D01*
X1350478Y-8911293D01*
X1387183Y-8918133D01*
X1416911Y-8919800D01*
X1467357Y-8914223D01*
X1503455Y-8900750D01*
X1530852Y-8882757D01*
X1554783Y-8860240D01*
X1561105Y-8852067D01*
X1572626Y-8831872D01*
X1577785Y-8811666D01*
X1577990Y-8784383D01*
X1577134Y-8771619D01*
X1569631Y-8728325D01*
X1519276Y-8728325D01*
X1511015Y-8733116D01*
X1489554Y-8729689D01*
X1456634Y-8719808D01*
X1427726Y-8710137D01*
X1402252Y-8701214D01*
X1393283Y-8697885D01*
X1372266Y-8689770D01*
X1404610Y-8670250D01*
X1437697Y-8656639D01*
X1466193Y-8659191D01*
X1491346Y-8678173D01*
X1501084Y-8690917D01*
X1515559Y-8714524D01*
X1519276Y-8728325D01*
X1569631Y-8728325D01*
X1569224Y-8725979D01*
X1553898Y-8682209D01*
X1533390Y-8645364D01*
X1510518Y-8620920D01*
X1487608Y-8609562D01*
X1458476Y-8601573D01*
X1450966Y-8600474D01*
X1426988Y-8599368D01*
X1407952Y-8604137D01*
G37*
X1407952Y-8604137D02*
X1386612Y-8617154D01*
X1376060Y-8625009D01*
X1340965Y-8656052D01*
X1322349Y-8683269D01*
X1320258Y-8706918D01*
X1334735Y-8727254D01*
X1365828Y-8744536D01*
X1398972Y-8755350D01*
X1434729Y-8765552D01*
X1469754Y-8776495D01*
X1492775Y-8784470D01*
X1528915Y-8798081D01*
X1500093Y-8831424D01*
X1483512Y-8849568D01*
X1469590Y-8859478D01*
X1452261Y-8863552D01*
X1425457Y-8864185D01*
X1417385Y-8864097D01*
X1378549Y-8861050D01*
X1347606Y-8853686D01*
X1338780Y-8849751D01*
X1315369Y-8841061D01*
X1298564Y-8844369D01*
X1284203Y-8857531D01*
X1284373Y-8872180D01*
X1296914Y-8886941D01*
X1319669Y-8900437D01*
X1350478Y-8911293D01*
X1387183Y-8918133D01*
X1416911Y-8919800D01*
X1467357Y-8914223D01*
X1503455Y-8900750D01*
X1530852Y-8882757D01*
X1554783Y-8860240D01*
X1561105Y-8852067D01*
X1572626Y-8831872D01*
X1577785Y-8811666D01*
X1577990Y-8784383D01*
X1577134Y-8771619D01*
X1569631Y-8728325D01*
X1519276Y-8728325D01*
X1511015Y-8733116D01*
X1489554Y-8729689D01*
X1456634Y-8719808D01*
X1427726Y-8710137D01*
X1402252Y-8701214D01*
X1393283Y-8697885D01*
X1372266Y-8689770D01*
X1404610Y-8670250D01*
X1437697Y-8656639D01*
X1466193Y-8659191D01*
X1491346Y-8678173D01*
X1501084Y-8690917D01*
X1515559Y-8714524D01*
X1519276Y-8728325D01*
X1569631Y-8728325D01*
X1569224Y-8725979D01*
X1553898Y-8682209D01*
X1533390Y-8645364D01*
X1510518Y-8620920D01*
X1487608Y-8609562D01*
X1458476Y-8601573D01*
X1450966Y-8600474D01*
X1426988Y-8599368D01*
X1407952Y-8604137D01*
G36*
X1071976Y-8339651D02*
G01*
X1064885Y-8343383D01*
X1060191Y-8351244D01*
X1057390Y-8366280D01*
X1055976Y-8391540D01*
X1055444Y-8430071D01*
X1055399Y-8439681D01*
X1054425Y-8484521D01*
X1052096Y-8529094D01*
X1048805Y-8567115D01*
X1046330Y-8585367D01*
X1039951Y-8632631D01*
X1037527Y-8679915D01*
X1039280Y-8730599D01*
X1045427Y-8788062D01*
X1056190Y-8855685D01*
X1067936Y-8917684D01*
X1077258Y-8931451D01*
X1093469Y-8937244D01*
X1109294Y-8933889D01*
X1116239Y-8925484D01*
X1117272Y-8911030D01*
X1115047Y-8886918D01*
X1112702Y-8872567D01*
X1102823Y-8812361D01*
X1097153Y-8756003D01*
X1095518Y-8698215D01*
X1097744Y-8633714D01*
X1102650Y-8568433D01*
X1107805Y-8497755D01*
X1109911Y-8438457D01*
X1109003Y-8391787D01*
X1105118Y-8358994D01*
X1098289Y-8341325D01*
X1096132Y-8339420D01*
X1082205Y-8337638D01*
X1071976Y-8339651D01*
G37*
X1071976Y-8339651D02*
X1064885Y-8343383D01*
X1060191Y-8351244D01*
X1057390Y-8366280D01*
X1055976Y-8391540D01*
X1055444Y-8430071D01*
X1055399Y-8439681D01*
X1054425Y-8484521D01*
X1052096Y-8529094D01*
X1048805Y-8567115D01*
X1046330Y-8585367D01*
X1039951Y-8632631D01*
X1037527Y-8679915D01*
X1039280Y-8730599D01*
X1045427Y-8788062D01*
X1056190Y-8855685D01*
X1067936Y-8917684D01*
X1077258Y-8931451D01*
X1093469Y-8937244D01*
X1109294Y-8933889D01*
X1116239Y-8925484D01*
X1117272Y-8911030D01*
X1115047Y-8886918D01*
X1112702Y-8872567D01*
X1102823Y-8812361D01*
X1097153Y-8756003D01*
X1095518Y-8698215D01*
X1097744Y-8633714D01*
X1102650Y-8568433D01*
X1107805Y-8497755D01*
X1109911Y-8438457D01*
X1109003Y-8391787D01*
X1105118Y-8358994D01*
X1098289Y-8341325D01*
X1096132Y-8339420D01*
X1082205Y-8337638D01*
X1071976Y-8339651D01*
G36*
X1815724Y-8611474D02*
G01*
X1780845Y-8632652D01*
X1755048Y-8664079D01*
X1741525Y-8702589D01*
X1740267Y-8718964D01*
X1748164Y-8749389D01*
X1772001Y-8775444D01*
X1812001Y-8797333D01*
X1835254Y-8805853D01*
X1868478Y-8817469D01*
X1887649Y-8827164D01*
X1895080Y-8837357D01*
X1893085Y-8850467D01*
X1888123Y-8861134D01*
X1865986Y-8888838D01*
X1836480Y-8901609D01*
X1800469Y-8899311D01*
X1758819Y-8881807D01*
X1758453Y-8881598D01*
X1725533Y-8865612D01*
X1701969Y-8861399D01*
X1685244Y-8868656D01*
X1681700Y-8872390D01*
X1678485Y-8881496D01*
X1685120Y-8892918D01*
X1703630Y-8909799D01*
X1708180Y-8913500D01*
X1752163Y-8943219D01*
X1793505Y-8958086D01*
X1835779Y-8959003D01*
X1864290Y-8952884D01*
X1899477Y-8934132D01*
X1927214Y-8901119D01*
X1946928Y-8855058D01*
X1958043Y-8797164D01*
X1960400Y-8749778D01*
X1959166Y-8737346D01*
X1909601Y-8737346D01*
X1908310Y-8755350D01*
X1902501Y-8764694D01*
X1889266Y-8765864D01*
X1865697Y-8759350D01*
X1838387Y-8749292D01*
X1813269Y-8738495D01*
X1796109Y-8728855D01*
X1791067Y-8723471D01*
X1796051Y-8706429D01*
X1807899Y-8684685D01*
X1821951Y-8665949D01*
X1829974Y-8659083D01*
X1854562Y-8653324D01*
X1877306Y-8661984D01*
X1895662Y-8682564D01*
X1907088Y-8712563D01*
X1909601Y-8737346D01*
X1959166Y-8737346D01*
X1955072Y-8696143D01*
X1939634Y-8653662D01*
X1914912Y-8623493D01*
X1881729Y-8606794D01*
X1856492Y-8603711D01*
X1815724Y-8611474D01*
G37*
X1815724Y-8611474D02*
X1780845Y-8632652D01*
X1755048Y-8664079D01*
X1741525Y-8702589D01*
X1740267Y-8718964D01*
X1748164Y-8749389D01*
X1772001Y-8775444D01*
X1812001Y-8797333D01*
X1835254Y-8805853D01*
X1868478Y-8817469D01*
X1887649Y-8827164D01*
X1895080Y-8837357D01*
X1893085Y-8850467D01*
X1888123Y-8861134D01*
X1865986Y-8888838D01*
X1836480Y-8901609D01*
X1800469Y-8899311D01*
X1758819Y-8881807D01*
X1758453Y-8881598D01*
X1725533Y-8865612D01*
X1701969Y-8861399D01*
X1685244Y-8868656D01*
X1681700Y-8872390D01*
X1678485Y-8881496D01*
X1685120Y-8892918D01*
X1703630Y-8909799D01*
X1708180Y-8913500D01*
X1752163Y-8943219D01*
X1793505Y-8958086D01*
X1835779Y-8959003D01*
X1864290Y-8952884D01*
X1899477Y-8934132D01*
X1927214Y-8901119D01*
X1946928Y-8855058D01*
X1958043Y-8797164D01*
X1960400Y-8749778D01*
X1959166Y-8737346D01*
X1909601Y-8737346D01*
X1908310Y-8755350D01*
X1902501Y-8764694D01*
X1889266Y-8765864D01*
X1865697Y-8759350D01*
X1838387Y-8749292D01*
X1813269Y-8738495D01*
X1796109Y-8728855D01*
X1791067Y-8723471D01*
X1796051Y-8706429D01*
X1807899Y-8684685D01*
X1821951Y-8665949D01*
X1829974Y-8659083D01*
X1854562Y-8653324D01*
X1877306Y-8661984D01*
X1895662Y-8682564D01*
X1907088Y-8712563D01*
X1909601Y-8737346D01*
X1959166Y-8737346D01*
X1955072Y-8696143D01*
X1939634Y-8653662D01*
X1914912Y-8623493D01*
X1881729Y-8606794D01*
X1856492Y-8603711D01*
X1815724Y-8611474D01*
G36*
X2093452Y-8365734D02*
G01*
X2065413Y-8377062D01*
X2064456Y-8377635D01*
X2039510Y-8397623D01*
X2018446Y-8423156D01*
X2002532Y-8450989D01*
X1993039Y-8477877D01*
X1991234Y-8500579D01*
X1998388Y-8515848D01*
X2008641Y-8520281D01*
X2023004Y-8518107D01*
X2035677Y-8504758D01*
X2044253Y-8489596D01*
X2061850Y-8462329D01*
X2083817Y-8438156D01*
X2106202Y-8420636D01*
X2125052Y-8413328D01*
X2128746Y-8413513D01*
X2141944Y-8423378D01*
X2156998Y-8446292D01*
X2172341Y-8478718D01*
X2186403Y-8517122D01*
X2197617Y-8557969D01*
X2201566Y-8577630D01*
X2206502Y-8609604D01*
X2209279Y-8635014D01*
X2209441Y-8649382D01*
X2209022Y-8650720D01*
X2199205Y-8653831D01*
X2176830Y-8656155D01*
X2146271Y-8657285D01*
X2138200Y-8657334D01*
X2100307Y-8658334D01*
X2076890Y-8662075D01*
X2065571Y-8669667D01*
X2063973Y-8682217D01*
X2066152Y-8690941D01*
X2070884Y-8699289D01*
X2081007Y-8704571D01*
X2100103Y-8707696D01*
X2131758Y-8709577D01*
X2140781Y-8709915D01*
X2210167Y-8712367D01*
X2212499Y-8845717D01*
X2214830Y-8979067D01*
X2235282Y-8979067D01*
X2252641Y-8976598D01*
X2259872Y-8972373D01*
X2261732Y-8961937D01*
X2264049Y-8937771D01*
X2266573Y-8903064D01*
X2269055Y-8861004D01*
X2269991Y-8842623D01*
X2275974Y-8719568D01*
X2309147Y-8728423D01*
X2331985Y-8733086D01*
X2344481Y-8730866D01*
X2349988Y-8724872D01*
X2352088Y-8707430D01*
X2340540Y-8689339D01*
X2318090Y-8674189D01*
X2308203Y-8670259D01*
X2292061Y-8663856D01*
X2280597Y-8655294D01*
X2272177Y-8641323D01*
X2265168Y-8618695D01*
X2257935Y-8584162D01*
X2253874Y-8562236D01*
X2237162Y-8490148D01*
X2216168Y-8434236D01*
X2190730Y-8394253D01*
X2160687Y-8369951D01*
X2125876Y-8361082D01*
X2122734Y-8361032D01*
X2093452Y-8365734D01*
G37*
X2093452Y-8365734D02*
X2065413Y-8377062D01*
X2064456Y-8377635D01*
X2039510Y-8397623D01*
X2018446Y-8423156D01*
X2002532Y-8450989D01*
X1993039Y-8477877D01*
X1991234Y-8500579D01*
X1998388Y-8515848D01*
X2008641Y-8520281D01*
X2023004Y-8518107D01*
X2035677Y-8504758D01*
X2044253Y-8489596D01*
X2061850Y-8462329D01*
X2083817Y-8438156D01*
X2106202Y-8420636D01*
X2125052Y-8413328D01*
X2128746Y-8413513D01*
X2141944Y-8423378D01*
X2156998Y-8446292D01*
X2172341Y-8478718D01*
X2186403Y-8517122D01*
X2197617Y-8557969D01*
X2201566Y-8577630D01*
X2206502Y-8609604D01*
X2209279Y-8635014D01*
X2209441Y-8649382D01*
X2209022Y-8650720D01*
X2199205Y-8653831D01*
X2176830Y-8656155D01*
X2146271Y-8657285D01*
X2138200Y-8657334D01*
X2100307Y-8658334D01*
X2076890Y-8662075D01*
X2065571Y-8669667D01*
X2063973Y-8682217D01*
X2066152Y-8690941D01*
X2070884Y-8699289D01*
X2081007Y-8704571D01*
X2100103Y-8707696D01*
X2131758Y-8709577D01*
X2140781Y-8709915D01*
X2210167Y-8712367D01*
X2212499Y-8845717D01*
X2214830Y-8979067D01*
X2235282Y-8979067D01*
X2252641Y-8976598D01*
X2259872Y-8972373D01*
X2261732Y-8961937D01*
X2264049Y-8937771D01*
X2266573Y-8903064D01*
X2269055Y-8861004D01*
X2269991Y-8842623D01*
X2275974Y-8719568D01*
X2309147Y-8728423D01*
X2331985Y-8733086D01*
X2344481Y-8730866D01*
X2349988Y-8724872D01*
X2352088Y-8707430D01*
X2340540Y-8689339D01*
X2318090Y-8674189D01*
X2308203Y-8670259D01*
X2292061Y-8663856D01*
X2280597Y-8655294D01*
X2272177Y-8641323D01*
X2265168Y-8618695D01*
X2257935Y-8584162D01*
X2253874Y-8562236D01*
X2237162Y-8490148D01*
X2216168Y-8434236D01*
X2190730Y-8394253D01*
X2160687Y-8369951D01*
X2125876Y-8361082D01*
X2122734Y-8361032D01*
X2093452Y-8365734D01*
G36*
X1171710Y-9120474D02*
G01*
X1151011Y-9128705D01*
X1130390Y-9145001D01*
X1119460Y-9155623D01*
X1099934Y-9176209D01*
X1089354Y-9192689D01*
X1084988Y-9211875D01*
X1084103Y-9240578D01*
X1084100Y-9243775D01*
X1088722Y-9295719D01*
X1103423Y-9335531D01*
X1129458Y-9365527D01*
X1160286Y-9384494D01*
X1193109Y-9396521D01*
X1230722Y-9404838D01*
X1267892Y-9408861D01*
X1299386Y-9408006D01*
X1319149Y-9402226D01*
X1337104Y-9383755D01*
X1354018Y-9353987D01*
X1367522Y-9318504D01*
X1375243Y-9282891D01*
X1375643Y-9276606D01*
X1325401Y-9276606D01*
X1320456Y-9315350D01*
X1305342Y-9341110D01*
X1288864Y-9351723D01*
X1275096Y-9355639D01*
X1258346Y-9355773D01*
X1234293Y-9351688D01*
X1198618Y-9342951D01*
X1196594Y-9342422D01*
X1166090Y-9327411D01*
X1145611Y-9303380D01*
X1134868Y-9273823D01*
X1133572Y-9242237D01*
X1141434Y-9212117D01*
X1158166Y-9186961D01*
X1183478Y-9170264D01*
X1211223Y-9165333D01*
X1247349Y-9172932D01*
X1280596Y-9193179D01*
X1307038Y-9222248D01*
X1322750Y-9256316D01*
X1325401Y-9276606D01*
X1375643Y-9276606D01*
X1376201Y-9267873D01*
X1368265Y-9224510D01*
X1346450Y-9185195D01*
X1313745Y-9152490D01*
X1273139Y-9128958D01*
X1227621Y-9117162D01*
X1199893Y-9116727D01*
X1171710Y-9120474D01*
G37*
X1171710Y-9120474D02*
X1151011Y-9128705D01*
X1130390Y-9145001D01*
X1119460Y-9155623D01*
X1099934Y-9176209D01*
X1089354Y-9192689D01*
X1084988Y-9211875D01*
X1084103Y-9240578D01*
X1084100Y-9243775D01*
X1088722Y-9295719D01*
X1103423Y-9335531D01*
X1129458Y-9365527D01*
X1160286Y-9384494D01*
X1193109Y-9396521D01*
X1230722Y-9404838D01*
X1267892Y-9408861D01*
X1299386Y-9408006D01*
X1319149Y-9402226D01*
X1337104Y-9383755D01*
X1354018Y-9353987D01*
X1367522Y-9318504D01*
X1375243Y-9282891D01*
X1375643Y-9276606D01*
X1325401Y-9276606D01*
X1320456Y-9315350D01*
X1305342Y-9341110D01*
X1288864Y-9351723D01*
X1275096Y-9355639D01*
X1258346Y-9355773D01*
X1234293Y-9351688D01*
X1198618Y-9342951D01*
X1196594Y-9342422D01*
X1166090Y-9327411D01*
X1145611Y-9303380D01*
X1134868Y-9273823D01*
X1133572Y-9242237D01*
X1141434Y-9212117D01*
X1158166Y-9186961D01*
X1183478Y-9170264D01*
X1211223Y-9165333D01*
X1247349Y-9172932D01*
X1280596Y-9193179D01*
X1307038Y-9222248D01*
X1322750Y-9256316D01*
X1325401Y-9276606D01*
X1375643Y-9276606D01*
X1376201Y-9267873D01*
X1368265Y-9224510D01*
X1346450Y-9185195D01*
X1313745Y-9152490D01*
X1273139Y-9128958D01*
X1227621Y-9117162D01*
X1199893Y-9116727D01*
X1171710Y-9120474D01*
G36*
X1547255Y-9158349D02*
G01*
X1545641Y-9159195D01*
X1511323Y-9185622D01*
X1488323Y-9220428D01*
X1477619Y-9259798D01*
X1480189Y-9299919D01*
X1497011Y-9336979D01*
X1499254Y-9340029D01*
X1532038Y-9372027D01*
X1574447Y-9398147D01*
X1619247Y-9414108D01*
X1626943Y-9415562D01*
X1650844Y-9417635D01*
X1668416Y-9412549D01*
X1688029Y-9397672D01*
X1690345Y-9395616D01*
X1704792Y-9381699D01*
X1713532Y-9368562D01*
X1718251Y-9351246D01*
X1720637Y-9324789D01*
X1721546Y-9304862D01*
X1673136Y-9304862D01*
X1672039Y-9311974D01*
X1661576Y-9343842D01*
X1644429Y-9360422D01*
X1620270Y-9361792D01*
X1588769Y-9348030D01*
X1570934Y-9336066D01*
X1547365Y-9317683D01*
X1534713Y-9303052D01*
X1529620Y-9286810D01*
X1528730Y-9268665D01*
X1536370Y-9238729D01*
X1556856Y-9212902D01*
X1586116Y-9195970D01*
X1592108Y-9194208D01*
X1619555Y-9194975D01*
X1643482Y-9209519D01*
X1661789Y-9234746D01*
X1672374Y-9267559D01*
X1673136Y-9304862D01*
X1721546Y-9304862D01*
X1721600Y-9303699D01*
X1720383Y-9252648D01*
X1711081Y-9213673D01*
X1692314Y-9183300D01*
X1664071Y-9158983D01*
X1628271Y-9142949D01*
X1589896Y-9142737D01*
X1547255Y-9158349D01*
G37*
X1547255Y-9158349D02*
X1545641Y-9159195D01*
X1511323Y-9185622D01*
X1488323Y-9220428D01*
X1477619Y-9259798D01*
X1480189Y-9299919D01*
X1497011Y-9336979D01*
X1499254Y-9340029D01*
X1532038Y-9372027D01*
X1574447Y-9398147D01*
X1619247Y-9414108D01*
X1626943Y-9415562D01*
X1650844Y-9417635D01*
X1668416Y-9412549D01*
X1688029Y-9397672D01*
X1690345Y-9395616D01*
X1704792Y-9381699D01*
X1713532Y-9368562D01*
X1718251Y-9351246D01*
X1720637Y-9324789D01*
X1721546Y-9304862D01*
X1673136Y-9304862D01*
X1672039Y-9311974D01*
X1661576Y-9343842D01*
X1644429Y-9360422D01*
X1620270Y-9361792D01*
X1588769Y-9348030D01*
X1570934Y-9336066D01*
X1547365Y-9317683D01*
X1534713Y-9303052D01*
X1529620Y-9286810D01*
X1528730Y-9268665D01*
X1536370Y-9238729D01*
X1556856Y-9212902D01*
X1586116Y-9195970D01*
X1592108Y-9194208D01*
X1619555Y-9194975D01*
X1643482Y-9209519D01*
X1661789Y-9234746D01*
X1672374Y-9267559D01*
X1673136Y-9304862D01*
X1721546Y-9304862D01*
X1721600Y-9303699D01*
X1720383Y-9252648D01*
X1711081Y-9213673D01*
X1692314Y-9183300D01*
X1664071Y-9158983D01*
X1628271Y-9142949D01*
X1589896Y-9142737D01*
X1547255Y-9158349D01*
G36*
X711365Y-8983972D02*
G01*
X704179Y-8993908D01*
X698585Y-9012293D01*
X694031Y-9041121D01*
X689961Y-9082387D01*
X685822Y-9138085D01*
X684731Y-9154208D01*
X678963Y-9233790D01*
X673173Y-9298508D01*
X667027Y-9350426D01*
X660191Y-9391610D01*
X652329Y-9424125D01*
X643108Y-9450037D01*
X633810Y-9468658D01*
X621683Y-9490883D01*
X617701Y-9504171D01*
X621205Y-9514043D01*
X627480Y-9521574D01*
X640617Y-9533850D01*
X648114Y-9537867D01*
X655387Y-9531254D01*
X668171Y-9514128D01*
X680093Y-9495896D01*
X706184Y-9453924D01*
X732894Y-9467249D01*
X765031Y-9476895D01*
X806446Y-9480464D01*
X850542Y-9477767D01*
X881350Y-9471532D01*
X913140Y-9457824D01*
X944565Y-9436403D01*
X971018Y-9411223D01*
X987890Y-9386239D01*
X990849Y-9377538D01*
X990834Y-9347033D01*
X935934Y-9347033D01*
X928196Y-9375356D01*
X907434Y-9399419D01*
X877327Y-9417750D01*
X841553Y-9428878D01*
X803790Y-9431332D01*
X767716Y-9423640D01*
X756861Y-9418652D01*
X743915Y-9403132D01*
X736520Y-9376895D01*
X734856Y-9345288D01*
X739103Y-9313652D01*
X749443Y-9287331D01*
X752289Y-9283133D01*
X778106Y-9261176D01*
X810206Y-9251623D01*
X844903Y-9253189D01*
X878509Y-9264593D01*
X907336Y-9284551D01*
X927699Y-9311780D01*
X935908Y-9344997D01*
X935934Y-9347033D01*
X990834Y-9347033D01*
X990831Y-9341668D01*
X978036Y-9302759D01*
X955129Y-9264721D01*
X924774Y-9231464D01*
X889636Y-9206900D01*
X868774Y-9198372D01*
X845334Y-9193084D01*
X822924Y-9193253D01*
X794220Y-9199194D01*
X783579Y-9202068D01*
X756671Y-9209422D01*
X737170Y-9214513D01*
X729910Y-9216133D01*
X729349Y-9208591D01*
X731186Y-9189194D01*
X733604Y-9171683D01*
X737199Y-9141171D01*
X740442Y-9101609D01*
X742704Y-9060877D01*
X742906Y-9055542D01*
X743639Y-9019502D01*
X742454Y-8997215D01*
X738924Y-8985569D01*
X732734Y-8981469D01*
X720699Y-8980490D01*
X711365Y-8983972D01*
G37*
X711365Y-8983972D02*
X704179Y-8993908D01*
X698585Y-9012293D01*
X694031Y-9041121D01*
X689961Y-9082387D01*
X685822Y-9138085D01*
X684731Y-9154208D01*
X678963Y-9233790D01*
X673173Y-9298508D01*
X667027Y-9350426D01*
X660191Y-9391610D01*
X652329Y-9424125D01*
X643108Y-9450037D01*
X633810Y-9468658D01*
X621683Y-9490883D01*
X617701Y-9504171D01*
X621205Y-9514043D01*
X627480Y-9521574D01*
X640617Y-9533850D01*
X648114Y-9537867D01*
X655387Y-9531254D01*
X668171Y-9514128D01*
X680093Y-9495896D01*
X706184Y-9453924D01*
X732894Y-9467249D01*
X765031Y-9476895D01*
X806446Y-9480464D01*
X850542Y-9477767D01*
X881350Y-9471532D01*
X913140Y-9457824D01*
X944565Y-9436403D01*
X971018Y-9411223D01*
X987890Y-9386239D01*
X990849Y-9377538D01*
X990834Y-9347033D01*
X935934Y-9347033D01*
X928196Y-9375356D01*
X907434Y-9399419D01*
X877327Y-9417750D01*
X841553Y-9428878D01*
X803790Y-9431332D01*
X767716Y-9423640D01*
X756861Y-9418652D01*
X743915Y-9403132D01*
X736520Y-9376895D01*
X734856Y-9345288D01*
X739103Y-9313652D01*
X749443Y-9287331D01*
X752289Y-9283133D01*
X778106Y-9261176D01*
X810206Y-9251623D01*
X844903Y-9253189D01*
X878509Y-9264593D01*
X907336Y-9284551D01*
X927699Y-9311780D01*
X935908Y-9344997D01*
X935934Y-9347033D01*
X990834Y-9347033D01*
X990831Y-9341668D01*
X978036Y-9302759D01*
X955129Y-9264721D01*
X924774Y-9231464D01*
X889636Y-9206900D01*
X868774Y-9198372D01*
X845334Y-9193084D01*
X822924Y-9193253D01*
X794220Y-9199194D01*
X783579Y-9202068D01*
X756671Y-9209422D01*
X737170Y-9214513D01*
X729910Y-9216133D01*
X729349Y-9208591D01*
X731186Y-9189194D01*
X733604Y-9171683D01*
X737199Y-9141171D01*
X740442Y-9101609D01*
X742704Y-9060877D01*
X742906Y-9055542D01*
X743639Y-9019502D01*
X742454Y-8997215D01*
X738924Y-8985569D01*
X732734Y-8981469D01*
X720699Y-8980490D01*
X711365Y-8983972D01*
G36*
X1885226Y-9062924D02*
G01*
X1884641Y-9063290D01*
X1879634Y-9070062D01*
X1875865Y-9084662D01*
X1873086Y-9109339D01*
X1871049Y-9146343D01*
X1869504Y-9197924D01*
X1869440Y-9200736D01*
X1867591Y-9252464D01*
X1864562Y-9304334D01*
X1860732Y-9351148D01*
X1856479Y-9387712D01*
X1855237Y-9395564D01*
X1850712Y-9423066D01*
X1847924Y-9446349D01*
X1847138Y-9468592D01*
X1848623Y-9492972D01*
X1852646Y-9522668D01*
X1859474Y-9560857D01*
X1869375Y-9610720D01*
X1876110Y-9643700D01*
X1888408Y-9700562D01*
X1899611Y-9742791D01*
X1911072Y-9772511D01*
X1924142Y-9791845D01*
X1940174Y-9802916D01*
X1960520Y-9807848D01*
X1981255Y-9808800D01*
X2002455Y-9807559D01*
X2018681Y-9801853D01*
X2035216Y-9788707D01*
X2055860Y-9766800D01*
X2089706Y-9724802D01*
X2110852Y-9686335D01*
X2121235Y-9646411D01*
X2122791Y-9600043D01*
X2122544Y-9595017D01*
X2117707Y-9576885D01*
X2105371Y-9571734D01*
X2085424Y-9578560D01*
X2074517Y-9599309D01*
X2072136Y-9620844D01*
X2065687Y-9650709D01*
X2049483Y-9685587D01*
X2026713Y-9719571D01*
X2007392Y-9740784D01*
X1991422Y-9753176D01*
X1978364Y-9756176D01*
X1967169Y-9748347D01*
X1956784Y-9728251D01*
X1946160Y-9694449D01*
X1934244Y-9645505D01*
X1932685Y-9638578D01*
X1922611Y-9590028D01*
X1914084Y-9542178D01*
X1907448Y-9497845D01*
X1903050Y-9459844D01*
X1901234Y-9430991D01*
X1902347Y-9414099D01*
X1904738Y-9410867D01*
X1915845Y-9412776D01*
X1937039Y-9417591D01*
X1947613Y-9420195D01*
X1982862Y-9424660D01*
X2023074Y-9423072D01*
X2062883Y-9416353D01*
X2096920Y-9405427D01*
X2119818Y-9391218D01*
X2120570Y-9390443D01*
X2143935Y-9353983D01*
X2154527Y-9310827D01*
X2153320Y-9275517D01*
X2103074Y-9275517D01*
X2099877Y-9314383D01*
X2092683Y-9332639D01*
X2082443Y-9348338D01*
X2068802Y-9358316D01*
X2047858Y-9363973D01*
X2015710Y-9366712D01*
X1995952Y-9367380D01*
X1969654Y-9367453D01*
X1954755Y-9364006D01*
X1945732Y-9354151D01*
X1937908Y-9337033D01*
X1927775Y-9296223D01*
X1928696Y-9253696D01*
X1939957Y-9215143D01*
X1956347Y-9190546D01*
X1980559Y-9170992D01*
X2004256Y-9166470D01*
X2032685Y-9176092D01*
X2034904Y-9177229D01*
X2069147Y-9203067D01*
X2092351Y-9237121D01*
X2103074Y-9275517D01*
X2153320Y-9275517D01*
X2152949Y-9264664D01*
X2139807Y-9219179D01*
X2115704Y-9178060D01*
X2081245Y-9144992D01*
X2080226Y-9144280D01*
X2057978Y-9130254D01*
X2038280Y-9122792D01*
X2014263Y-9120144D01*
X1986337Y-9120340D01*
X1929255Y-9121913D01*
X1921544Y-9091349D01*
X1912636Y-9066865D01*
X1901158Y-9057867D01*
X1885226Y-9062924D01*
G37*
X1885226Y-9062924D02*
X1884641Y-9063290D01*
X1879634Y-9070062D01*
X1875865Y-9084662D01*
X1873086Y-9109339D01*
X1871049Y-9146343D01*
X1869504Y-9197924D01*
X1869440Y-9200736D01*
X1867591Y-9252464D01*
X1864562Y-9304334D01*
X1860732Y-9351148D01*
X1856479Y-9387712D01*
X1855237Y-9395564D01*
X1850712Y-9423066D01*
X1847924Y-9446349D01*
X1847138Y-9468592D01*
X1848623Y-9492972D01*
X1852646Y-9522668D01*
X1859474Y-9560857D01*
X1869375Y-9610720D01*
X1876110Y-9643700D01*
X1888408Y-9700562D01*
X1899611Y-9742791D01*
X1911072Y-9772511D01*
X1924142Y-9791845D01*
X1940174Y-9802916D01*
X1960520Y-9807848D01*
X1981255Y-9808800D01*
X2002455Y-9807559D01*
X2018681Y-9801853D01*
X2035216Y-9788707D01*
X2055860Y-9766800D01*
X2089706Y-9724802D01*
X2110852Y-9686335D01*
X2121235Y-9646411D01*
X2122791Y-9600043D01*
X2122544Y-9595017D01*
X2117707Y-9576885D01*
X2105371Y-9571734D01*
X2085424Y-9578560D01*
X2074517Y-9599309D01*
X2072136Y-9620844D01*
X2065687Y-9650709D01*
X2049483Y-9685587D01*
X2026713Y-9719571D01*
X2007392Y-9740784D01*
X1991422Y-9753176D01*
X1978364Y-9756176D01*
X1967169Y-9748347D01*
X1956784Y-9728251D01*
X1946160Y-9694449D01*
X1934244Y-9645505D01*
X1932685Y-9638578D01*
X1922611Y-9590028D01*
X1914084Y-9542178D01*
X1907448Y-9497845D01*
X1903050Y-9459844D01*
X1901234Y-9430991D01*
X1902347Y-9414099D01*
X1904738Y-9410867D01*
X1915845Y-9412776D01*
X1937039Y-9417591D01*
X1947613Y-9420195D01*
X1982862Y-9424660D01*
X2023074Y-9423072D01*
X2062883Y-9416353D01*
X2096920Y-9405427D01*
X2119818Y-9391218D01*
X2120570Y-9390443D01*
X2143935Y-9353983D01*
X2154527Y-9310827D01*
X2153320Y-9275517D01*
X2103074Y-9275517D01*
X2099877Y-9314383D01*
X2092683Y-9332639D01*
X2082443Y-9348338D01*
X2068802Y-9358316D01*
X2047858Y-9363973D01*
X2015710Y-9366712D01*
X1995952Y-9367380D01*
X1969654Y-9367453D01*
X1954755Y-9364006D01*
X1945732Y-9354151D01*
X1937908Y-9337033D01*
X1927775Y-9296223D01*
X1928696Y-9253696D01*
X1939957Y-9215143D01*
X1956347Y-9190546D01*
X1980559Y-9170992D01*
X2004256Y-9166470D01*
X2032685Y-9176092D01*
X2034904Y-9177229D01*
X2069147Y-9203067D01*
X2092351Y-9237121D01*
X2103074Y-9275517D01*
X2153320Y-9275517D01*
X2152949Y-9264664D01*
X2139807Y-9219179D01*
X2115704Y-9178060D01*
X2081245Y-9144992D01*
X2080226Y-9144280D01*
X2057978Y-9130254D01*
X2038280Y-9122792D01*
X2014263Y-9120144D01*
X1986337Y-9120340D01*
X1929255Y-9121913D01*
X1921544Y-9091349D01*
X1912636Y-9066865D01*
X1901158Y-9057867D01*
X1885226Y-9062924D01*
G36*
X846600Y-9766423D02*
G01*
X803242Y-9785030D01*
X767204Y-9815047D01*
X745783Y-9847359D01*
X739691Y-9866347D01*
X733017Y-9896963D01*
X726299Y-9935230D01*
X720076Y-9977169D01*
X714887Y-10018803D01*
X711269Y-10056153D01*
X709761Y-10085243D01*
X710902Y-10102093D01*
X711187Y-10102962D01*
X721898Y-10111408D01*
X734585Y-10113728D01*
X754911Y-10116669D01*
X781198Y-10123806D01*
X787767Y-10126056D01*
X828183Y-10135439D01*
X872659Y-10137712D01*
X913699Y-10132843D01*
X933178Y-10126646D01*
X964639Y-10104583D01*
X983296Y-10071638D01*
X988808Y-10035271D01*
X987986Y-10029373D01*
X935934Y-10029373D01*
X931920Y-10057523D01*
X917884Y-10073988D01*
X893600Y-10082003D01*
X856379Y-10086519D01*
X829485Y-10083335D01*
X807791Y-10071674D01*
X803762Y-10068373D01*
X786302Y-10044533D01*
X780449Y-10016622D01*
X786850Y-9990589D01*
X794191Y-9980782D01*
X810202Y-9972149D01*
X835832Y-9965293D01*
X851020Y-9963137D01*
X890097Y-9964890D01*
X917422Y-9978588D01*
X932652Y-10003961D01*
X935934Y-10029373D01*
X987986Y-10029373D01*
X982421Y-9989487D01*
X963005Y-9952962D01*
X932449Y-9926936D01*
X892640Y-9912653D01*
X845467Y-9911354D01*
X810995Y-9918276D01*
X792431Y-9922565D01*
X784953Y-9918657D01*
X783536Y-9903575D01*
X783534Y-9901994D01*
X790850Y-9877165D01*
X809852Y-9851773D01*
X836123Y-9830484D01*
X862403Y-9818672D01*
X897539Y-9816479D01*
X931270Y-9829995D01*
X954696Y-9848747D01*
X977691Y-9870683D01*
X986918Y-9846417D01*
X990770Y-9817644D01*
X978509Y-9793702D01*
X950041Y-9774438D01*
X939195Y-9769879D01*
X893258Y-9760836D01*
X846600Y-9766423D01*
G37*
X846600Y-9766423D02*
X803242Y-9785030D01*
X767204Y-9815047D01*
X745783Y-9847359D01*
X739691Y-9866347D01*
X733017Y-9896963D01*
X726299Y-9935230D01*
X720076Y-9977169D01*
X714887Y-10018803D01*
X711269Y-10056153D01*
X709761Y-10085243D01*
X710902Y-10102093D01*
X711187Y-10102962D01*
X721898Y-10111408D01*
X734585Y-10113728D01*
X754911Y-10116669D01*
X781198Y-10123806D01*
X787767Y-10126056D01*
X828183Y-10135439D01*
X872659Y-10137712D01*
X913699Y-10132843D01*
X933178Y-10126646D01*
X964639Y-10104583D01*
X983296Y-10071638D01*
X988808Y-10035271D01*
X987986Y-10029373D01*
X935934Y-10029373D01*
X931920Y-10057523D01*
X917884Y-10073988D01*
X893600Y-10082003D01*
X856379Y-10086519D01*
X829485Y-10083335D01*
X807791Y-10071674D01*
X803762Y-10068373D01*
X786302Y-10044533D01*
X780449Y-10016622D01*
X786850Y-9990589D01*
X794191Y-9980782D01*
X810202Y-9972149D01*
X835832Y-9965293D01*
X851020Y-9963137D01*
X890097Y-9964890D01*
X917422Y-9978588D01*
X932652Y-10003961D01*
X935934Y-10029373D01*
X987986Y-10029373D01*
X982421Y-9989487D01*
X963005Y-9952962D01*
X932449Y-9926936D01*
X892640Y-9912653D01*
X845467Y-9911354D01*
X810995Y-9918276D01*
X792431Y-9922565D01*
X784953Y-9918657D01*
X783536Y-9903575D01*
X783534Y-9901994D01*
X790850Y-9877165D01*
X809852Y-9851773D01*
X836123Y-9830484D01*
X862403Y-9818672D01*
X897539Y-9816479D01*
X931270Y-9829995D01*
X954696Y-9848747D01*
X977691Y-9870683D01*
X986918Y-9846417D01*
X990770Y-9817644D01*
X978509Y-9793702D01*
X950041Y-9774438D01*
X939195Y-9769879D01*
X893258Y-9760836D01*
X846600Y-9766423D01*
G36*
X321893Y-9765705D02*
G01*
X291414Y-9788698D01*
X267986Y-9826801D01*
X251691Y-9879833D01*
X242610Y-9947613D01*
X240657Y-10019741D01*
X241860Y-10069568D01*
X244536Y-10104830D01*
X249347Y-10127874D01*
X256951Y-10141050D01*
X268010Y-10146706D01*
X276571Y-10147467D01*
X284059Y-10145965D01*
X288751Y-10139357D01*
X291285Y-10124489D01*
X292300Y-10098208D01*
X292450Y-10069150D01*
X294167Y-10019515D01*
X298909Y-9968354D01*
X306035Y-9919398D01*
X314902Y-9876377D01*
X324866Y-9843019D01*
X334751Y-9823692D01*
X349806Y-9805100D01*
X398474Y-9820441D01*
X428474Y-9832299D01*
X454246Y-9846607D01*
X465948Y-9856074D01*
X479902Y-9881232D01*
X488611Y-9917799D01*
X492081Y-9961086D01*
X490320Y-10006406D01*
X483335Y-10049069D01*
X471135Y-10084387D01*
X465565Y-10094252D01*
X455557Y-10117859D01*
X454389Y-10140482D01*
X461956Y-10156346D01*
X466726Y-10159261D01*
X479471Y-10163344D01*
X487860Y-10160722D01*
X497183Y-10148293D01*
X503775Y-10137556D01*
X518962Y-10106158D01*
X534858Y-10062347D01*
X550243Y-10010534D01*
X563897Y-9955130D01*
X574601Y-9900544D01*
X580090Y-9861621D01*
X583619Y-9824582D01*
X585521Y-9793663D01*
X585612Y-9772825D01*
X584508Y-9766371D01*
X571287Y-9758394D01*
X553657Y-9760931D01*
X539311Y-9772649D01*
X538298Y-9774377D01*
X531880Y-9794825D01*
X529534Y-9817118D01*
X529534Y-9843482D01*
X499162Y-9813985D01*
X459058Y-9785132D01*
X410512Y-9765502D01*
X360792Y-9758007D01*
X359342Y-9758000D01*
X321893Y-9765705D01*
G37*
X321893Y-9765705D02*
X291414Y-9788698D01*
X267986Y-9826801D01*
X251691Y-9879833D01*
X242610Y-9947613D01*
X240657Y-10019741D01*
X241860Y-10069568D01*
X244536Y-10104830D01*
X249347Y-10127874D01*
X256951Y-10141050D01*
X268010Y-10146706D01*
X276571Y-10147467D01*
X284059Y-10145965D01*
X288751Y-10139357D01*
X291285Y-10124489D01*
X292300Y-10098208D01*
X292450Y-10069150D01*
X294167Y-10019515D01*
X298909Y-9968354D01*
X306035Y-9919398D01*
X314902Y-9876377D01*
X324866Y-9843019D01*
X334751Y-9823692D01*
X349806Y-9805100D01*
X398474Y-9820441D01*
X428474Y-9832299D01*
X454246Y-9846607D01*
X465948Y-9856074D01*
X479902Y-9881232D01*
X488611Y-9917799D01*
X492081Y-9961086D01*
X490320Y-10006406D01*
X483335Y-10049069D01*
X471135Y-10084387D01*
X465565Y-10094252D01*
X455557Y-10117859D01*
X454389Y-10140482D01*
X461956Y-10156346D01*
X466726Y-10159261D01*
X479471Y-10163344D01*
X487860Y-10160722D01*
X497183Y-10148293D01*
X503775Y-10137556D01*
X518962Y-10106158D01*
X534858Y-10062347D01*
X550243Y-10010534D01*
X563897Y-9955130D01*
X574601Y-9900544D01*
X580090Y-9861621D01*
X583619Y-9824582D01*
X585521Y-9793663D01*
X585612Y-9772825D01*
X584508Y-9766371D01*
X571287Y-9758394D01*
X553657Y-9760931D01*
X539311Y-9772649D01*
X538298Y-9774377D01*
X531880Y-9794825D01*
X529534Y-9817118D01*
X529534Y-9843482D01*
X499162Y-9813985D01*
X459058Y-9785132D01*
X410512Y-9765502D01*
X360792Y-9758007D01*
X359342Y-9758000D01*
X321893Y-9765705D01*
G36*
X1675268Y-9788678D02*
G01*
X1667664Y-9802019D01*
X1658012Y-9820705D01*
X1652262Y-9831292D01*
X1651830Y-9831955D01*
X1644104Y-9829686D01*
X1626485Y-9821643D01*
X1616923Y-9816851D01*
X1585564Y-9805081D01*
X1554647Y-9804558D01*
X1549767Y-9805280D01*
X1509050Y-9815635D01*
X1480197Y-9833188D01*
X1458592Y-9861246D01*
X1451001Y-9876033D01*
X1439299Y-9899293D01*
X1430013Y-9914748D01*
X1426319Y-9918520D01*
X1419101Y-9912413D01*
X1405653Y-9896298D01*
X1393981Y-9880680D01*
X1360545Y-9843642D01*
X1324641Y-9822788D01*
X1291117Y-9817267D01*
X1248594Y-9825197D01*
X1211997Y-9848762D01*
X1181633Y-9887620D01*
X1157811Y-9941432D01*
X1148048Y-9975464D01*
X1139371Y-10014349D01*
X1131113Y-10057227D01*
X1124207Y-10098617D01*
X1119586Y-10133041D01*
X1118189Y-10150730D01*
X1125022Y-10159524D01*
X1140602Y-10166059D01*
X1156750Y-10167539D01*
X1162139Y-10165741D01*
X1167107Y-10155487D01*
X1173459Y-10132313D01*
X1180239Y-10100067D01*
X1184514Y-10075500D01*
X1191336Y-10035460D01*
X1198400Y-9998083D01*
X1204627Y-9968926D01*
X1207238Y-9958632D01*
X1222601Y-9924653D01*
X1246043Y-9895452D01*
X1273168Y-9875945D01*
X1284890Y-9871758D01*
X1302023Y-9870731D01*
X1317600Y-9878780D01*
X1333933Y-9894739D01*
X1354439Y-9919377D01*
X1376442Y-9949193D01*
X1385333Y-9962418D01*
X1410679Y-10001736D01*
X1397042Y-10061690D01*
X1389741Y-10098000D01*
X1388220Y-10121018D01*
X1393095Y-10133576D01*
X1404985Y-10138508D01*
X1413881Y-10139000D01*
X1426393Y-10135564D01*
X1437500Y-10123977D01*
X1448027Y-10102319D01*
X1458799Y-10068671D01*
X1470643Y-10021114D01*
X1477139Y-9991914D01*
X1485672Y-9954745D01*
X1493929Y-9922603D01*
X1500727Y-9899921D01*
X1503651Y-9892625D01*
X1524077Y-9871188D01*
X1554148Y-9860351D01*
X1565107Y-9859600D01*
X1580698Y-9861217D01*
X1592144Y-9867538D01*
X1600067Y-9880770D01*
X1605089Y-9903121D01*
X1607832Y-9936799D01*
X1608918Y-9984010D01*
X1609034Y-10015512D01*
X1609034Y-10143233D01*
X1632322Y-10145913D01*
X1655611Y-10148593D01*
X1653879Y-10082413D01*
X1653815Y-10052757D01*
X1655887Y-10025963D01*
X1660937Y-9997656D01*
X1669806Y-9963464D01*
X1683337Y-9919013D01*
X1688356Y-9903255D01*
X1701197Y-9862455D01*
X1711637Y-9827864D01*
X1718819Y-9802437D01*
X1721884Y-9789131D01*
X1721833Y-9787890D01*
X1712535Y-9783818D01*
X1700491Y-9779788D01*
X1686335Y-9778803D01*
X1675268Y-9788678D01*
G37*
X1675268Y-9788678D02*
X1667664Y-9802019D01*
X1658012Y-9820705D01*
X1652262Y-9831292D01*
X1651830Y-9831955D01*
X1644104Y-9829686D01*
X1626485Y-9821643D01*
X1616923Y-9816851D01*
X1585564Y-9805081D01*
X1554647Y-9804558D01*
X1549767Y-9805280D01*
X1509050Y-9815635D01*
X1480197Y-9833188D01*
X1458592Y-9861246D01*
X1451001Y-9876033D01*
X1439299Y-9899293D01*
X1430013Y-9914748D01*
X1426319Y-9918520D01*
X1419101Y-9912413D01*
X1405653Y-9896298D01*
X1393981Y-9880680D01*
X1360545Y-9843642D01*
X1324641Y-9822788D01*
X1291117Y-9817267D01*
X1248594Y-9825197D01*
X1211997Y-9848762D01*
X1181633Y-9887620D01*
X1157811Y-9941432D01*
X1148048Y-9975464D01*
X1139371Y-10014349D01*
X1131113Y-10057227D01*
X1124207Y-10098617D01*
X1119586Y-10133041D01*
X1118189Y-10150730D01*
X1125022Y-10159524D01*
X1140602Y-10166059D01*
X1156750Y-10167539D01*
X1162139Y-10165741D01*
X1167107Y-10155487D01*
X1173459Y-10132313D01*
X1180239Y-10100067D01*
X1184514Y-10075500D01*
X1191336Y-10035460D01*
X1198400Y-9998083D01*
X1204627Y-9968926D01*
X1207238Y-9958632D01*
X1222601Y-9924653D01*
X1246043Y-9895452D01*
X1273168Y-9875945D01*
X1284890Y-9871758D01*
X1302023Y-9870731D01*
X1317600Y-9878780D01*
X1333933Y-9894739D01*
X1354439Y-9919377D01*
X1376442Y-9949193D01*
X1385333Y-9962418D01*
X1410679Y-10001736D01*
X1397042Y-10061690D01*
X1389741Y-10098000D01*
X1388220Y-10121018D01*
X1393095Y-10133576D01*
X1404985Y-10138508D01*
X1413881Y-10139000D01*
X1426393Y-10135564D01*
X1437500Y-10123977D01*
X1448027Y-10102319D01*
X1458799Y-10068671D01*
X1470643Y-10021114D01*
X1477139Y-9991914D01*
X1485672Y-9954745D01*
X1493929Y-9922603D01*
X1500727Y-9899921D01*
X1503651Y-9892625D01*
X1524077Y-9871188D01*
X1554148Y-9860351D01*
X1565107Y-9859600D01*
X1580698Y-9861217D01*
X1592144Y-9867538D01*
X1600067Y-9880770D01*
X1605089Y-9903121D01*
X1607832Y-9936799D01*
X1608918Y-9984010D01*
X1609034Y-10015512D01*
X1609034Y-10143233D01*
X1632322Y-10145913D01*
X1655611Y-10148593D01*
X1653879Y-10082413D01*
X1653815Y-10052757D01*
X1655887Y-10025963D01*
X1660937Y-9997656D01*
X1669806Y-9963464D01*
X1683337Y-9919013D01*
X1688356Y-9903255D01*
X1701197Y-9862455D01*
X1711637Y-9827864D01*
X1718819Y-9802437D01*
X1721884Y-9789131D01*
X1721833Y-9787890D01*
X1712535Y-9783818D01*
X1700491Y-9779788D01*
X1686335Y-9778803D01*
X1675268Y-9788678D01*
D12*
%TO.C,REF\u002A\u002A*%
X8665203Y-9249999D02*
X8449999Y-9034796D01*
X8602172Y-9097827D02*
X8297827Y-9097827D01*
X8082623Y-9617376D02*
X8450000Y-8730451D01*
X7930451Y-9250000D02*
X8817376Y-9617376D01*
X7490000Y-8571177D02*
X7771177Y-8571177D01*
X9128822Y-8290000D02*
X9128822Y-8571177D01*
X8449999Y-9097827D02*
X8397677Y-9107060D01*
X8397677Y-9107060D02*
X8353203Y-9132575D01*
X8353203Y-9132575D02*
X8319857Y-9171092D01*
X8319857Y-9171092D02*
X8300918Y-9219331D01*
X8300918Y-9219331D02*
X8297827Y-9249999D01*
X8602172Y-9402172D02*
X8602172Y-9097827D01*
X8082623Y-9617376D02*
X8969548Y-9250000D01*
X8297827Y-9402172D02*
X8602172Y-9402172D01*
X8817376Y-9617376D02*
X8450000Y-8730451D01*
X8297827Y-9097827D02*
X8297827Y-9402172D01*
X8449999Y-9034796D02*
X8234796Y-9250000D01*
X8450000Y-9769548D02*
X8817376Y-8882623D01*
X8449999Y-9402172D02*
X8502321Y-9392938D01*
X8502321Y-9392938D02*
X8546795Y-9367423D01*
X8546795Y-9367423D02*
X8580141Y-9328906D01*
X8580141Y-9328906D02*
X8599080Y-9280667D01*
X8599080Y-9280667D02*
X8602172Y-9249999D01*
X8234796Y-9250000D02*
X8449999Y-9465203D01*
X8449999Y-9465203D02*
X8665203Y-9249999D01*
X9410000Y-8571177D02*
X9128822Y-8571177D01*
X8969548Y-9250000D02*
X8082623Y-8882623D01*
X8082623Y-8882623D02*
X8450000Y-9769548D01*
X8817376Y-8882623D02*
X7930451Y-9250000D01*
X8297827Y-9249999D02*
X8307060Y-9302321D01*
X8307060Y-9302321D02*
X8332575Y-9346795D01*
X8332575Y-9346795D02*
X8371092Y-9380141D01*
X8371092Y-9380141D02*
X8419331Y-9399080D01*
X8419331Y-9399080D02*
X8449999Y-9402172D01*
X8602172Y-9249999D02*
X8592938Y-9197677D01*
X8592938Y-9197677D02*
X8567423Y-9153203D01*
X8567423Y-9153203D02*
X8528906Y-9119857D01*
X8528906Y-9119857D02*
X8480667Y-9100918D01*
X8480667Y-9100918D02*
X8449999Y-9097827D01*
X7489999Y-9250000D02*
X8450000Y-10209999D01*
X9410000Y-9250000D02*
X8449999Y-8290000D01*
X8930000Y-8770000D02*
X8878444Y-8723400D01*
X8878444Y-8723400D02*
X8823511Y-8683015D01*
X8823511Y-8683015D02*
X8765682Y-8648842D01*
X8765682Y-8648842D02*
X8705441Y-8620882D01*
X8705441Y-8620882D02*
X8643269Y-8599136D01*
X8643269Y-8599136D02*
X8579650Y-8583603D01*
X8579650Y-8583603D02*
X8515066Y-8574283D01*
X8515066Y-8574283D02*
X8449999Y-8571177D01*
X8449999Y-8571177D02*
X8384932Y-8574283D01*
X8384932Y-8574283D02*
X8320348Y-8583603D01*
X8320348Y-8583603D02*
X8256729Y-8599136D01*
X8256729Y-8599136D02*
X8194558Y-8620882D01*
X8194558Y-8620882D02*
X8134316Y-8648842D01*
X8134316Y-8648842D02*
X8076488Y-8683015D01*
X8076488Y-8683015D02*
X8021555Y-8723400D01*
X8021555Y-8723400D02*
X7970000Y-8770000D01*
X7490000Y-10210000D02*
X9410000Y-10210000D01*
X7490000Y-8290000D02*
X7490000Y-10210000D01*
X9410000Y-8290000D02*
X7490000Y-8290000D01*
X7822849Y-9509774D02*
X8709774Y-9877150D01*
X7970000Y-8770000D02*
X7923400Y-8821555D01*
X7923400Y-8821555D02*
X7883015Y-8876488D01*
X7883015Y-8876488D02*
X7848842Y-8934316D01*
X7848842Y-8934316D02*
X7820882Y-8994558D01*
X7820882Y-8994558D02*
X7799136Y-9056729D01*
X7799136Y-9056729D02*
X7783603Y-9120348D01*
X7783603Y-9120348D02*
X7774283Y-9184932D01*
X7774283Y-9184932D02*
X7771177Y-9249999D01*
X7771177Y-9249999D02*
X7774283Y-9315066D01*
X7774283Y-9315066D02*
X7783603Y-9379650D01*
X7783603Y-9379650D02*
X7799136Y-9443269D01*
X7799136Y-9443269D02*
X7820882Y-9505441D01*
X7820882Y-9505441D02*
X7848842Y-9565682D01*
X7848842Y-9565682D02*
X7883015Y-9623511D01*
X7883015Y-9623511D02*
X7923400Y-9678444D01*
X7923400Y-9678444D02*
X7970000Y-9730000D01*
X8450000Y-10210000D02*
X8548154Y-10205043D01*
X8548154Y-10205043D02*
X8643473Y-10190496D01*
X8643473Y-10190496D02*
X8735474Y-10166840D01*
X8735474Y-10166840D02*
X8823675Y-10134558D01*
X8823675Y-10134558D02*
X8907592Y-10094133D01*
X8907592Y-10094133D02*
X8986744Y-10046046D01*
X8986744Y-10046046D02*
X9060648Y-9990782D01*
X9060648Y-9990782D02*
X9128822Y-9928822D01*
X9128822Y-9928822D02*
X9190782Y-9860648D01*
X9190782Y-9860648D02*
X9246046Y-9786744D01*
X9246046Y-9786744D02*
X9294133Y-9707592D01*
X9294133Y-9707592D02*
X9334558Y-9623675D01*
X9334558Y-9623675D02*
X9366840Y-9535474D01*
X9366840Y-9535474D02*
X9390496Y-9443473D01*
X9390496Y-9443473D02*
X9405043Y-9348154D01*
X9405043Y-9348154D02*
X9410000Y-9250000D01*
X9128822Y-9928822D02*
X9128822Y-8571177D01*
X7771177Y-9928822D02*
X9128822Y-9928822D01*
X7771177Y-8571177D02*
X7771177Y-9928822D01*
X8930000Y-9730000D02*
X8976598Y-9678444D01*
X8976598Y-9678444D02*
X9016984Y-9623511D01*
X9016984Y-9623511D02*
X9051157Y-9565682D01*
X9051157Y-9565682D02*
X9079116Y-9505441D01*
X9079116Y-9505441D02*
X9100862Y-9443269D01*
X9100862Y-9443269D02*
X9116395Y-9379650D01*
X9116395Y-9379650D02*
X9125715Y-9315066D01*
X9125715Y-9315066D02*
X9128822Y-9249999D01*
X9128822Y-9249999D02*
X9125715Y-9184932D01*
X9125715Y-9184932D02*
X9116395Y-9120348D01*
X9116395Y-9120348D02*
X9100862Y-9056729D01*
X9100862Y-9056729D02*
X9079116Y-8994558D01*
X9079116Y-8994558D02*
X9051157Y-8934316D01*
X9051157Y-8934316D02*
X9016984Y-8876488D01*
X9016984Y-8876488D02*
X8976598Y-8821555D01*
X8976598Y-8821555D02*
X8930000Y-8770000D01*
X8450000Y-10209999D02*
X9410000Y-9250000D01*
X9128822Y-8571177D02*
X7771177Y-8571177D01*
X8449999Y-8290000D02*
X7489999Y-9250000D01*
X9077150Y-9509774D02*
X8709774Y-8622849D01*
X9410000Y-9250000D02*
X9405043Y-9151845D01*
X9405043Y-9151845D02*
X9390496Y-9056526D01*
X9390496Y-9056526D02*
X9366840Y-8964525D01*
X9366840Y-8964525D02*
X9334558Y-8876324D01*
X9334558Y-8876324D02*
X9294133Y-8792406D01*
X9294133Y-8792406D02*
X9246046Y-8713254D01*
X9246046Y-8713254D02*
X9190782Y-8639350D01*
X9190782Y-8639350D02*
X9128822Y-8571177D01*
X9128822Y-8571177D02*
X9060648Y-8509217D01*
X9060648Y-8509217D02*
X8986744Y-8453952D01*
X8986744Y-8453952D02*
X8907592Y-8405866D01*
X8907592Y-8405866D02*
X8823675Y-8365441D01*
X8823675Y-8365441D02*
X8735474Y-8333159D01*
X8735474Y-8333159D02*
X8643473Y-8309503D01*
X8643473Y-8309503D02*
X8548154Y-8294956D01*
X8548154Y-8294956D02*
X8450000Y-8290000D01*
X9410000Y-10210000D02*
X9410000Y-8290000D01*
X7822849Y-8990225D02*
X8190225Y-9877150D01*
X7771177Y-8290000D02*
X7771177Y-8571177D01*
X7490000Y-9928822D02*
X7771177Y-9928822D01*
X7970000Y-9730000D02*
X8021555Y-9776598D01*
X8021555Y-9776598D02*
X8076488Y-9816984D01*
X8076488Y-9816984D02*
X8134316Y-9851157D01*
X8134316Y-9851157D02*
X8194558Y-9879116D01*
X8194558Y-9879116D02*
X8256729Y-9900862D01*
X8256729Y-9900862D02*
X8320348Y-9916395D01*
X8320348Y-9916395D02*
X8384932Y-9925715D01*
X8384932Y-9925715D02*
X8449999Y-9928822D01*
X8449999Y-9928822D02*
X8515066Y-9925715D01*
X8515066Y-9925715D02*
X8579650Y-9916395D01*
X8579650Y-9916395D02*
X8643269Y-9900862D01*
X8643269Y-9900862D02*
X8705441Y-9879116D01*
X8705441Y-9879116D02*
X8765682Y-9851157D01*
X8765682Y-9851157D02*
X8823511Y-9816984D01*
X8823511Y-9816984D02*
X8878444Y-9776598D01*
X8878444Y-9776598D02*
X8930000Y-9730000D01*
X7771177Y-10210000D02*
X7771177Y-9928822D01*
X9410000Y-9928822D02*
X9128822Y-9928822D01*
X9128822Y-9928822D02*
X9128822Y-10210000D01*
X8709774Y-9877150D02*
X9077150Y-8990225D01*
X9077150Y-8990225D02*
X8190225Y-8622849D01*
X8190225Y-8622849D02*
X7822849Y-9509774D01*
X7490000Y-9250000D02*
X7494956Y-9348154D01*
X7494956Y-9348154D02*
X7509503Y-9443473D01*
X7509503Y-9443473D02*
X7533159Y-9535474D01*
X7533159Y-9535474D02*
X7565441Y-9623675D01*
X7565441Y-9623675D02*
X7605866Y-9707592D01*
X7605866Y-9707592D02*
X7653952Y-9786744D01*
X7653952Y-9786744D02*
X7709217Y-9860648D01*
X7709217Y-9860648D02*
X7771177Y-9928822D01*
X7771177Y-9928822D02*
X7839350Y-9990782D01*
X7839350Y-9990782D02*
X7913254Y-10046046D01*
X7913254Y-10046046D02*
X7992406Y-10094133D01*
X7992406Y-10094133D02*
X8076324Y-10134558D01*
X8076324Y-10134558D02*
X8164525Y-10166840D01*
X8164525Y-10166840D02*
X8256526Y-10190496D01*
X8256526Y-10190496D02*
X8351845Y-10205043D01*
X8351845Y-10205043D02*
X8450000Y-10210000D01*
X8190225Y-9877150D02*
X9077150Y-9509774D01*
X8709774Y-8622849D02*
X7822849Y-8990225D01*
X8450000Y-8290000D02*
X8351845Y-8294956D01*
X8351845Y-8294956D02*
X8256526Y-8309503D01*
X8256526Y-8309503D02*
X8164525Y-8333159D01*
X8164525Y-8333159D02*
X8076324Y-8365441D01*
X8076324Y-8365441D02*
X7992406Y-8405866D01*
X7992406Y-8405866D02*
X7913254Y-8453952D01*
X7913254Y-8453952D02*
X7839350Y-8509217D01*
X7839350Y-8509217D02*
X7771177Y-8571177D01*
X7771177Y-8571177D02*
X7709217Y-8639350D01*
X7709217Y-8639350D02*
X7653952Y-8713254D01*
X7653952Y-8713254D02*
X7605866Y-8792406D01*
X7605866Y-8792406D02*
X7565441Y-8876324D01*
X7565441Y-8876324D02*
X7533159Y-8964525D01*
X7533159Y-8964525D02*
X7509503Y-9056526D01*
X7509503Y-9056526D02*
X7494956Y-9151845D01*
X7494956Y-9151845D02*
X7490000Y-9250000D01*
%TD*%
D13*
%TO.C,J1*%
X3850000Y-4100000D03*
X5850000Y-4100000D03*
D14*
X1350000Y-3600000D03*
X8350000Y-3600000D03*
%TD*%
M02*
